<svg width="44" height="18" viewBox="0 0 44 18" fill="none" xmlns="http://www.w3.org/2000/svg">
<g clip-path="url(#clip0)">
<path d="M8.01411 2.32065C7.50031 2.92864 6.67824 3.40818 5.85616 3.33968C5.7534 2.5176 6.15588 1.64415 6.62686 1.10466C7.14065 0.479543 8.0398 0.0342531 8.76768 0C8.85331 0.856327 8.51934 1.69553 8.01411 2.32065ZM8.75911 3.50238C7.56882 3.43387 6.54979 4.17888 5.98461 4.17888C5.41087 4.17888 4.54598 3.53663 3.60402 3.55376C2.37947 3.57088 1.24056 4.26451 0.615439 5.36917C-0.669052 7.5785 0.281472 10.8497 1.52315 12.648C2.13114 13.5385 2.85902 14.5147 3.8181 14.4805C4.72581 14.4462 5.08547 13.8896 6.18157 13.8896C7.28623 13.8896 7.60307 14.4805 8.56216 14.4634C9.5555 14.4462 10.1806 13.5728 10.7886 12.6822C11.4822 11.6717 11.7648 10.687 11.7819 10.6356C11.7648 10.6185 9.86378 9.89058 9.84665 7.69838C9.82952 5.86584 11.3452 4.99239 11.4137 4.94101C10.5574 3.67364 9.22153 3.53663 8.75911 3.50238ZM15.6354 1.01903V14.3692H17.7077V9.80495H20.5764C23.1968 9.80495 25.0379 8.00666 25.0379 5.40343C25.0379 2.80019 23.231 1.01903 20.6449 1.01903H15.6354ZM17.7077 2.76594H20.0969C21.8952 2.76594 22.9228 3.72502 22.9228 5.41199C22.9228 7.09895 21.8952 8.0666 20.0883 8.0666H17.7077V2.76594ZM28.8229 14.4719C30.1245 14.4719 31.3319 13.8126 31.88 12.7678H31.9228V14.3692H33.8409V7.72407C33.8409 5.79734 32.2996 4.55566 29.9275 4.55566C27.7268 4.55566 26.0997 5.81446 26.0398 7.54424H27.9066C28.0607 6.72217 28.8229 6.18268 29.8676 6.18268C31.1349 6.18268 31.8457 6.77355 31.8457 7.86109V8.59753L29.2596 8.75167C26.8533 8.89724 25.5517 9.88202 25.5517 11.5947C25.5517 13.3245 26.8961 14.4719 28.8229 14.4719ZM29.3795 12.8877C28.2748 12.8877 27.5726 12.3568 27.5726 11.5433C27.5726 10.7041 28.2491 10.216 29.5422 10.1389L31.8457 9.99334V10.7469C31.8457 11.9971 30.7839 12.8877 29.3795 12.8877ZM36.4014 18C38.4223 18 39.3728 17.2293 40.2035 14.8915L43.8428 4.68411H41.7363L39.2957 12.5709H39.2529L36.8124 4.68411H34.6459L38.1568 14.4034L37.9684 14.9943C37.6516 15.9962 37.1378 16.3815 36.2215 16.3815C36.0588 16.3815 35.742 16.3644 35.6135 16.3473V17.9486C35.7334 17.9829 36.2472 18 36.4014 18Z" fill="white"/>
</g>
<defs>
<clipPath id="clip0">
<rect width="43.844" height="18" fill="white"/>
</clipPath>
</defs>
</svg>
