<svg width="185" height="218" viewBox="0 0 185 218" fill="none" xmlns="http://www.w3.org/2000/svg">
<path d="M133.29 62.1089C134.094 61.7066 134.899 61.1032 135.703 60.4998C134.094 61.7066 132.485 62.7122 130.474 63.7178C127.457 65.1257 124.44 66.7348 121.423 68.1427C120.217 68.746 120.016 68.5449 119.412 67.5392C117.803 65.1257 116.194 62.7122 115.39 59.8965C113.781 55.0694 111.769 50.4435 110.563 45.4153C110.361 44.812 110.16 44.2086 110.16 43.8063C110.16 43.4041 110.563 42.8007 110.764 42.8007C113.378 41.9962 115.792 41.1917 118.407 40.7894C121.625 40.3872 124.843 40.1861 129.267 39.7838C129.67 39.7838 130.072 39.7838 130.474 39.7838C132.687 44.0075 133.893 48.8345 134.296 53.6615C134.497 56.6784 134.094 59.4942 133.29 62.1089Z" fill="#C6C6C6"/>
<path d="M138.921 57.8853C138.518 58.0864 138.317 58.4886 137.915 58.6897C137.111 59.2931 136.507 59.8965 135.703 60.2988C136.507 59.6954 137.111 59.092 137.915 58.6897C138.116 58.4886 138.518 58.2875 138.921 57.8853Z" fill="#C6C6C6"/>
<path d="M142.342 56.8796C138.52 60.701 134.095 63.7179 129.268 65.9303C134.095 63.7179 138.52 60.701 142.342 56.8796Z" fill="#EEEFD0"/>
<path d="M82.0025 149.599C82.4048 150.001 83.0082 150.202 83.6116 150.403C83.0082 150.202 82.4048 150.001 82.0025 149.599Z" fill="#EEEFD0"/>
<path d="M87.4338 151.007C89.6462 151.208 91.6574 151.208 93.8698 151.208C91.6574 151.208 89.6462 151.208 87.4338 151.007Z" fill="#EEEFD0"/>
<path d="M137.516 87.853C136.51 92.0767 135.706 96.3004 134.7 100.524C133.292 107.362 131.683 113.999 130.275 120.838C131.683 113.999 133.292 107.362 134.7 100.524C135.504 96.3004 136.51 92.0767 137.516 87.853Z" fill="#EEEFD0"/>
<path d="M119.011 143.163C118.608 143.364 118.206 143.766 117.804 143.967C117 144.37 115.994 144.973 115.189 145.375C115.994 144.973 117 144.37 117.804 143.967C118.206 143.766 118.608 143.565 119.011 143.163Z" fill="#EEEFD0"/>
<path d="M70.3391 138.738C65.5121 134.917 61.2884 130.492 56.8636 126.268C52.4388 122.045 47.813 118.022 43.3882 113.798C40.5724 111.184 37.7566 108.368 34.9408 105.753C33.3318 104.346 31.7228 102.938 30.1138 101.53C28.9071 100.524 27.4992 99.3174 26.4935 98.1106C25.8901 97.5072 24.2812 96.9038 24.8845 95.6971C25.2868 94.6914 26.6947 94.6915 27.7003 94.4904C32.1251 93.4847 36.751 92.6802 41.1758 91.6745C47.813 90.2667 54.6513 89.0599 61.2884 87.0487C66.5177 85.4397 71.9481 84.434 77.3785 83.0261C82.6078 81.6183 87.8371 80.4115 93.0664 79.0036C93.8709 78.8025 94.6754 78.6014 95.4799 78.1991C101.916 75.7856 108.754 73.7743 115.391 71.9642C120.42 70.5563 124.844 67.9416 129.47 65.7292C128.867 66.1315 128.062 66.3326 127.459 66.7349C128.264 70.9585 128.264 75.5844 127.66 79.8081C125.85 93.2836 123.638 105.955 117.403 118.223C109.961 132.302 96.2844 144.571 80.1943 147.185C80.9988 147.789 81.6022 148.593 82.4067 149.197C79.1887 146.18 75.7695 143.163 72.5515 140.146C71.5459 139.945 70.9425 139.342 70.3391 138.738ZM58.2715 120.838C58.0704 120.838 57.8692 121.039 57.6681 121.039C57.467 121.441 57.467 121.844 57.6681 122.045C57.8692 122.246 57.8693 122.447 58.0704 122.648C58.2715 122.849 58.4726 122.849 58.6737 122.849C58.6737 122.849 58.8749 122.648 59.076 122.648C59.2772 122.648 59.2772 122.447 59.2772 122.447C59.4783 121.844 59.076 121.24 58.2715 120.838ZM67.7244 128.481C67.3222 128.078 66.5177 127.877 66.1154 128.28C65.9143 128.682 65.7132 129.084 65.7132 129.486C65.7132 129.889 66.1155 130.291 66.5177 130.492C66.92 130.693 67.3222 131.095 67.7244 130.693C67.9256 130.492 68.1267 130.09 68.3279 129.687C68.1267 129.486 67.9256 128.883 67.7244 128.481ZM74.1605 137.733C74.5628 137.733 74.965 137.33 74.965 136.526C74.965 136.124 74.5627 135.721 73.9594 135.52C73.5571 135.52 73.1549 135.922 73.1549 136.526C73.1549 137.129 73.5571 137.531 74.1605 137.733Z" fill="#EDEDED"/>
<path d="M142.946 56.6785L143.147 56.8796C142.946 56.6785 142.946 56.6785 142.946 56.6785Z" fill="#EEEFD0"/>
<path d="M141.337 55.4717C140.532 56.2762 139.728 57.0807 138.923 57.8852C138.521 58.0863 138.32 58.4886 137.918 58.6897C137.113 59.2931 136.51 59.8965 135.705 60.2987C134.901 60.9021 134.096 61.3043 133.292 61.9077C134.096 59.2931 134.498 56.4773 134.297 53.6615C134.096 48.6334 132.688 44.0075 130.476 39.7838C131.079 39.7838 131.884 39.7838 132.487 39.985H132.688C133.292 39.985 134.096 40.186 134.699 40.3872C134.901 40.3872 135.303 40.5883 135.504 40.5883C136.107 40.7894 136.51 40.7895 137.113 40.9906C137.917 41.1917 138.722 41.594 139.728 41.9962C140.733 42.3985 141.538 43.0018 142.141 43.6052C143.147 44.6108 143.75 45.8176 144.152 47.2255C144.354 48.03 144.354 49.0356 144.152 50.0413C144.152 50.4435 143.951 51.0469 143.75 51.4491C143.549 52.2536 143.147 52.857 142.745 53.6615C142.141 54.2649 141.739 54.8683 141.337 55.4717Z" fill="#9D9D9C"/>
<path d="M78.7853 148.995C78.7853 149.197 78.5843 149.398 78.5843 149.599C78.5843 149.599 78.3831 149.599 78.182 149.599C78.3831 149.599 78.3831 149.599 78.5843 149.599C78.7854 149.599 78.9865 149.197 78.7853 148.995Z" fill="#F5F4C8"/>
<path d="M11.2092 96.3005C11.6115 96.3005 12.2148 96.0993 12.6171 96.0993C13.8238 96.0993 15.0306 96.0993 16.2374 95.8982C16.2374 96.0993 16.2374 96.0993 16.2374 96.3005C17.8464 96.3005 19.6565 96.3005 21.2656 96.0993C22.0701 96.0993 22.8745 96.3004 23.4779 96.9038C26.897 100.926 31.3219 104.144 35.1433 107.765C40.9759 113.396 47.0097 118.827 52.8424 124.458C58.675 130.09 64.7088 135.52 70.7426 141.152C70.5415 140.951 70.5415 140.951 70.3404 140.749C68.3291 141.152 66.3179 141.353 64.3066 141.353C64.7089 141.755 65.1111 142.157 65.7145 142.358C58.675 136.727 51.6356 131.095 44.7973 125.263C42.1827 123.05 39.3669 121.039 36.7523 119.028C33.9365 116.614 31.3218 114 28.7072 111.586C25.8914 109.173 23.2768 106.759 20.2599 104.547C17.8464 102.535 15.4329 100.725 13.0194 98.9151C12.2149 98.3117 11.6115 97.7083 11.0081 96.9038C10.807 96.7027 10.807 96.5016 10.807 96.3005C10.807 96.5016 11.0081 96.3005 11.2092 96.3005Z" fill="#EDEDED"/>
<path d="M78.1816 149.599C77.9805 149.599 77.9804 149.599 77.7793 149.599C74.9635 148.996 72.1478 147.99 69.9354 146.18C72.1478 147.99 74.9635 148.996 77.7793 149.599C77.9804 149.599 78.1816 149.599 78.1816 149.599Z" fill="#F5F4C8"/>
<path d="M4.77097 88.4564C4.77097 88.0542 4.97211 87.6519 4.97211 87.2497C5.17324 86.8474 5.1732 86.6463 5.37433 86.244C5.1732 86.6463 5.17324 86.8474 4.97211 87.2497C4.97211 87.6519 4.77097 88.0542 4.77097 88.4564Z" fill="#C6C6C6"/>
<path d="M10.2002 94.0879C9.79794 94.0879 9.39569 93.8868 9.19456 93.8868C8.79231 93.8868 8.39004 93.6857 7.98779 93.6857C8.39004 93.8868 8.79231 93.8868 9.19456 93.8868C9.59682 94.0879 9.99907 94.0879 10.2002 94.0879Z" fill="#C6C6C6"/>
<path d="M16.2343 94.4903C16.2343 94.2892 16.0331 94.0881 16.0331 93.8869L15.6308 90.4678C15.6308 88.6577 16.0331 87.0487 16.8376 85.4397C17.441 83.8306 18.2455 82.4227 19.4522 81.216C20.659 80.0092 22.0669 79.0036 23.6759 78.6013C22.268 76.7912 20.8601 75.1822 19.4522 73.3721C21.6646 76.1878 23.8771 79.0036 26.2906 81.8193C26.6928 82.2216 26.6928 82.6239 26.2906 83.0261C25.6872 83.6295 25.0838 84.2329 24.4804 84.8362C22.6703 87.0486 23.0725 88.8588 25.6872 90.6689C26.2905 91.0711 27.095 91.2723 27.6984 91.4735C28.1007 91.6746 28.5029 92.0768 28.5029 92.4791C28.704 93.0825 27.8995 93.0825 27.4973 93.2836C24.8826 93.887 22.0669 94.6915 19.2512 94.4903C16.6365 94.4903 14.0218 94.2892 11.4072 94.2892C11.0049 94.2892 10.6027 94.2892 10.4015 94.0881C10.8038 94.0881 11.206 94.2892 11.4072 94.2892C13.0162 94.2892 14.6252 94.4903 16.2343 94.4903Z" fill="#C6C6C6"/>
<path d="M71.9457 50.2423C71.9457 50.6446 71.3423 51.0468 70.9401 51.0468C68.3254 51.4491 66.1131 52.4547 63.9007 53.4603C59.0736 55.2705 54.6489 57.684 50.2241 60.4997C49.8218 60.7009 49.4196 61.1032 49.0173 61.3043C48.4139 61.7066 47.8106 61.7065 47.4083 61.5054C45.7993 60.2986 43.9892 58.8907 42.3802 57.684C42.179 57.684 42.3801 56.8795 42.5812 56.8795C43.5869 56.4772 44.5926 55.8738 45.3971 55.4716C46.6038 55.0693 47.8106 54.6671 49.2185 54.2649C51.8331 53.4604 54.4477 52.4547 57.0624 51.6502C60.0793 50.6446 62.895 49.6389 65.9119 48.6333C67.3198 48.231 68.7277 48.0299 70.1356 47.6277C71.9457 47.4265 72.348 48.8345 71.9457 50.2423Z" fill="#9D9D9C"/>
<path d="M122.228 38.7782C121.826 38.9794 121.222 38.9794 120.82 39.1805C116.999 39.7839 113.378 40.9906 109.557 41.7951C108.149 42.1974 107.948 42.8008 108.35 44.0075C108.953 46.0188 109.557 48.0301 110.16 49.8402C110.361 50.4436 110.361 50.8458 110.361 51.4492C110.16 51.4492 110.16 51.2481 109.959 51.2481C109.758 51.2481 109.557 51.047 109.557 51.047C107.546 47.6278 105.333 44.0075 103.322 40.5884C102.92 39.985 103.121 39.5827 103.925 39.3816C106.339 38.9794 108.551 38.1749 110.764 37.1693C112.373 36.5659 114.183 35.9625 115.993 35.9625C117.401 35.9625 118.809 35.5602 120.217 35.5602C121.624 35.3591 122.831 36.9681 122.429 38.376C122.63 38.376 122.429 38.5771 122.228 38.7782Z" fill="#9D9D9C"/>
<path d="M82.203 74.5787C82.6053 74.3775 83.0076 73.7742 83.6109 73.573L84.0131 73.7742C84.2143 75.7854 83.812 77.5956 82.4042 79.2046C80.9963 80.8136 78.1805 80.4114 77.376 78.4001C76.9737 77.3945 76.9737 76.3888 76.7726 75.7854C76.7726 73.5731 76.9737 72.1652 77.9794 70.7573C78.1805 70.5562 78.5827 70.3551 78.7838 70.1539C79.1861 70.1539 79.1861 70.5562 79.1861 70.9584C79.1861 71.3607 78.985 71.763 78.985 72.3663C78.985 72.7686 78.985 72.9697 78.985 73.372C79.3872 74.5787 80.9963 75.3832 82.203 74.5787Z" fill="white"/>
<path d="M25.2861 86.0429C26.0906 84.4339 27.4985 83.4283 29.3086 82.8249C30.3143 82.4226 31.9233 83.2272 32.3255 84.0317C32.5267 84.2328 32.5266 84.635 32.5266 85.0373C32.1244 86.8474 29.3086 89.0598 27.2974 89.0598C25.8895 89.0598 24.6827 87.2497 25.2861 86.0429Z" fill="#9F2316"/>
<path d="M73.3553 14.442C73.3553 13.2352 73.3553 11.8274 73.3553 10.6206C73.3553 10.0172 73.5564 9.615 73.7575 9.01162C73.9587 8.60937 74.3609 8.4082 74.7632 8.4082C74.9643 8.4082 74.9643 8.40822 75.1654 8.60934C76.3722 9.61497 77.3778 10.6206 78.3835 11.8274C81.4004 15.2465 84.2161 18.6656 86.4285 22.2859C90.8533 29.5265 95.4792 36.7671 99.3006 44.2087C100.306 46.0189 101.312 47.829 101.915 49.8403C102.519 51.8515 102.116 53.6616 100.91 55.4718C100.507 56.0752 99.904 56.4774 99.0995 56.4774C98.4961 56.4774 97.6916 56.2763 97.2893 55.6729C96.686 54.8684 96.0826 53.8628 96.2837 52.8572C96.2837 52.656 96.4849 52.2538 96.4849 52.2538C96.686 52.2538 97.0882 52.2538 97.0882 52.4549C97.4905 53.0583 97.8927 53.8628 98.295 54.6673C98.4961 54.8684 98.6972 54.8684 98.8983 54.8684C99.0995 54.8684 99.5018 54.8684 99.5018 54.6673C99.904 53.8628 100.306 53.2594 100.306 52.4549C100.507 50.2425 99.904 48.2312 98.8983 46.4211C94.2724 37.5715 89.2443 28.9231 83.4116 20.6769C81.6015 18.0623 79.3891 15.4477 77.3778 13.0341C76.9756 12.6319 76.5733 12.2296 75.9699 12.0285H75.7688C75.5677 12.0285 74.9643 12.2296 74.9643 12.4307C74.9643 13.8386 74.9643 15.2465 74.9643 16.6544C75.1654 19.8724 75.3666 23.0904 75.5677 26.3084C75.97 32.9456 77.3779 39.5828 79.5902 45.8177C80.1936 47.829 81.4004 49.6392 82.6071 51.2482C83.0094 51.8516 83.2105 52.4549 83.6128 53.0583C83.6128 53.2594 83.4116 53.4605 83.2105 53.6617C83.2105 53.6617 83.2105 53.6617 83.0094 53.6617C82.6071 53.4605 82.2049 53.4606 82.2049 53.0583C80.3947 50.4437 78.7857 47.829 77.9812 44.8121C76.3722 39.5828 75.1654 34.1524 74.7632 28.5208C74.562 25.9062 74.1598 23.4927 73.7575 21.0792C73.7575 18.6657 73.5564 16.4533 73.3553 14.442Z" fill="black"/>
<path d="M66.7175 69.3495C66.9186 69.3495 67.1198 69.3495 67.3209 69.3495C69.1311 69.3495 70.74 69.9528 71.7457 71.5618C72.3491 72.5675 72.5502 73.7742 72.5502 74.981C72.5502 77.9979 70.1367 81.2159 67.1198 82.0204C66.5164 82.2216 66.1142 82.2216 65.5108 82.2216C64.1029 82.2216 63.0973 81.2159 62.8961 79.808C62.695 79.2046 62.695 78.4002 62.695 78.199C62.4939 75.1821 63.4995 72.9697 64.304 70.7573C64.7063 69.7517 65.5108 69.3495 66.7175 69.3495ZM64.5052 79.6069C64.9074 80.2103 65.7119 80.4114 66.3153 80.2103C68.5277 79.6069 70.1367 78.199 70.3378 75.9866V75.7855L70.1367 75.9866C69.3322 75.9866 68.5277 76.1878 67.7231 75.9866C66.5164 75.7855 65.7119 74.5788 65.913 73.372C66.1141 72.7686 66.5164 72.1652 66.7175 71.5618C66.7175 71.3607 66.7176 71.1596 66.5164 70.9585C66.3153 70.9585 66.1141 70.9585 65.913 70.9585C64.1029 72.9697 63.0973 77.3945 64.5052 79.6069Z" fill="black"/>
<path d="M63.0984 63.3156C63.2996 63.1145 63.5007 63.1145 63.7018 63.1145C63.9029 63.1145 64.3052 63.3156 64.5063 63.5167C64.9086 63.919 64.9086 64.9247 64.3052 65.3269C63.903 65.7292 63.5007 65.9303 63.0984 66.1314C61.8917 67.3382 60.4838 68.3438 59.4782 69.9528C59.2771 70.355 58.8748 70.5562 58.2714 70.7573C57.8692 70.355 57.4669 70.1539 57.4669 69.9528C57.4669 69.3494 57.4669 68.5449 57.8691 67.9415C59.277 66.1314 60.886 64.5224 63.0984 63.3156Z" fill="black"/>
<path d="M84.8184 61.5055C85.0195 61.5055 85.4218 61.7067 85.824 62.1089C87.433 63.7179 88.6398 65.528 89.4443 67.5393C89.4443 67.7404 89.4443 67.9416 89.4443 68.3438C89.2432 68.545 89.2432 68.9472 88.8409 69.1483C88.8409 69.1483 88.6398 69.1483 88.4387 69.1483C88.2376 69.1483 88.2376 69.1483 88.0364 69.1483C87.8353 68.9472 87.6342 68.545 87.4331 68.3438C86.8297 66.5337 85.824 65.1258 84.215 64.1202C83.2094 63.5168 83.2094 62.7123 84.0139 62.1089C84.4162 61.5055 84.6173 61.5055 84.8184 61.5055Z" fill="black"/>
<path d="M35.1423 67.7404C34.9412 67.5393 35.1423 67.137 35.3434 66.9359C35.5446 66.9359 35.7456 66.9359 35.7456 67.1371C37.3547 68.5449 38.9637 69.9528 40.3716 71.3607C41.3772 72.1652 41.9806 73.372 42.7851 74.3776C42.9862 74.5787 42.9862 74.7798 42.9862 74.981L42.7851 75.1821C42.7851 75.1821 42.5839 75.1821 42.5839 75.3832C42.1817 75.3832 41.9806 75.1821 41.7794 74.981C41.1761 74.3776 40.7738 73.7742 40.1704 73.1708C38.9637 71.9641 37.5558 70.7573 36.3491 69.5505C35.9468 68.9472 35.5445 68.3438 35.1423 67.7404Z" fill="black"/>
<path d="M87.2331 53.2593C86.2275 51.248 85.2219 49.0356 84.4174 47.0244C84.2163 46.6221 84.4174 46.2198 84.4174 45.6164C84.4174 45.6164 84.4174 45.4153 84.6185 45.4153L84.8196 45.2142C85.0207 45.2142 85.2219 45.4153 85.2219 45.4153C85.8253 47.0243 86.6298 48.6334 87.2331 50.2424C88.0376 51.8514 88.8422 53.6615 90.4512 54.6671C90.4512 54.6671 90.4512 55.0694 90.4512 55.2706C90.25 55.4717 90.0489 55.4716 89.8478 55.4716C89.4455 55.4716 89.2444 55.2705 89.0433 55.0694C88.2388 54.466 87.4343 53.8627 87.2331 53.2593Z" fill="black"/>
<path d="M91.254 49.6392C91.4551 49.6392 91.6563 49.8403 91.6563 49.8403C92.6619 51.6504 93.8686 53.6617 94.8743 55.4718C94.8743 55.6729 94.8743 55.8741 94.8743 56.0752L94.6732 56.2764C94.4721 56.2764 94.2709 56.2764 94.0698 56.0752C92.2596 54.2651 90.8517 52.4549 90.8517 49.8403C90.8517 50.0414 91.0529 49.6392 91.254 49.6392Z" fill="black"/>
<path d="M35.3416 71.7631C35.5427 71.9642 35.9449 71.9642 36.1461 72.1653C37.1517 73.3721 38.1573 74.78 39.163 75.9867C39.3641 76.1879 39.5652 76.5901 39.5652 76.7912C39.3641 76.9923 39.3641 76.9924 39.3641 76.9924H39.163C37.3528 75.7856 35.7438 74.3777 35.1404 72.3665C35.1404 72.5676 35.3416 72.1653 35.3416 71.7631Z" fill="black"/>
<path d="M35.141 75.9867C35.7444 76.3889 36.1466 76.9923 36.1466 77.5957C35.9455 77.5957 35.9455 77.7968 35.7443 77.7968C34.9398 77.5957 34.5376 76.7912 34.7387 76.1878C34.7387 75.9867 34.9398 75.9867 35.141 75.9867Z" fill="black"/>
<path d="M66.3152 71.1596C66.5163 70.9585 66.7174 70.9585 66.9186 71.1596C67.1197 71.1596 67.1197 71.5619 67.1197 71.763C66.9186 72.3664 66.5163 72.9697 66.3152 73.5731C65.913 74.7799 66.7175 75.9867 68.1253 76.1878C68.9298 76.3889 69.7344 76.1878 70.5389 76.1878C70.1366 78.4002 68.5276 79.607 66.3152 80.4115C65.7118 80.6126 64.7062 80.2103 64.5051 79.808C63.0972 77.3945 64.1028 72.9698 66.3152 71.1596Z" fill="white"/>
<path d="M110.965 51.8514V52.0525C110.965 51.8514 110.764 51.6502 110.764 51.4491C110.764 51.6502 110.764 51.8514 110.965 51.8514Z" fill="white"/>
<path d="M66.516 130.492C66.1137 130.09 65.9126 129.889 65.7114 129.486C65.7114 129.084 65.7115 128.682 66.1137 128.28C66.516 127.877 67.3204 128.078 67.7227 128.481C67.9238 128.883 68.125 129.486 68.3261 129.889C68.125 130.291 67.9238 130.693 67.7227 130.894C67.3204 131.296 66.9182 130.894 66.516 130.492Z" fill="black"/>
<path d="M59.0757 123.05C59.0757 123.05 58.8746 123.251 58.6734 123.251C58.4723 123.251 58.2712 123.05 58.0701 123.05C57.869 122.849 57.6678 122.648 57.6678 122.447C57.4667 122.045 57.4667 121.642 57.6678 121.441C57.6678 121.24 58.0701 121.039 58.2712 121.24C59.0757 121.24 59.478 121.844 59.0757 123.05C59.2768 122.849 59.2768 122.849 59.0757 123.05Z" fill="black"/>
<path d="M73.9587 135.52C74.5621 135.52 74.9644 135.922 74.9644 136.526C74.9644 137.129 74.5621 137.732 74.1599 137.732C73.5565 137.732 73.1542 137.33 73.1542 136.727C73.1542 136.123 73.5565 135.52 73.9587 135.52Z" fill="black"/>
<path d="M70.7426 75.9867C70.5415 76.1878 70.5415 76.1878 70.7426 75.9867C70.5415 76.1878 70.5415 75.9867 70.7426 75.9867Z" fill="white"/>
<path d="M18.449 72.5674C18.8512 72.5674 19.2535 72.7686 19.6557 73.3719C21.0636 75.1821 22.4715 76.791 23.8794 78.6012C22.2704 79.2046 20.8625 80.0091 19.6557 81.2159C18.449 82.4226 17.4434 83.8305 17.0411 85.4395C16.2366 87.0485 15.8343 88.6575 15.8343 90.4677L16.2366 93.8868C16.2366 94.0879 16.4377 94.2891 16.4377 94.4902C14.8287 94.4902 13.2197 94.4902 11.6107 94.2891C11.2084 94.2891 10.8062 94.2891 10.605 94.0879C10.2028 94.0879 9.80053 93.8868 9.5994 93.8868C9.19715 93.8868 8.79489 93.6857 8.39263 93.6857C7.99038 93.4845 7.58813 93.2834 7.387 93.0823C7.18587 92.8812 6.98477 92.6801 6.78365 92.4789C6.18027 91.8756 5.97913 91.2722 5.57688 90.4677C5.57688 90.2666 5.37574 89.8643 5.37574 89.6631C5.37574 89.2609 5.37574 88.8587 5.37574 88.4564C5.37574 88.0542 5.57688 87.6519 5.57688 87.2496C5.778 86.8474 5.77803 86.6463 5.97915 86.244C6.18028 85.8418 6.18024 85.6406 6.38137 85.2384C7.18587 84.0316 7.78927 82.8248 8.59377 81.6181C9.39828 80.4113 10.2028 79.4057 11.4095 78.4001C13.4208 76.59 15.4321 74.7798 17.4433 72.9697C17.6444 72.7685 17.8456 72.5674 18.2479 72.5674C18.0468 72.5674 18.2478 72.5674 18.449 72.5674Z" fill="#9D9D9C"/>
<path d="M117.001 118.625C123.437 106.357 125.448 93.6858 127.258 80.2103C127.862 75.7855 127.862 71.3607 127.057 67.1371C127.66 66.7348 128.465 66.5337 129.068 66.1314C133.895 63.7179 138.32 60.701 142.142 57.0807C142.343 56.8796 142.544 56.8796 142.745 56.6785C142.745 56.6785 142.745 56.8796 142.946 56.8796C143.147 57.0807 143.147 57.2818 143.147 57.483C143.147 58.2875 142.946 59.092 142.946 59.8965C142.946 60.701 142.745 61.5055 142.544 62.31C141.739 66.5337 140.935 70.9585 140.13 75.1821C139.125 79.4058 138.32 83.6294 137.315 87.8531C136.309 92.0767 135.504 96.3004 134.499 100.524C133.091 107.362 131.482 113.999 130.074 120.838C129.269 124.458 128.666 128.078 128.063 131.699C127.862 133.308 127.258 134.514 126.051 135.721C124.04 137.934 122.431 140.548 120.018 142.559C119.615 142.761 119.213 143.163 118.811 143.364C118.409 143.565 118.006 143.967 117.604 144.168C116.8 144.571 115.794 145.174 114.989 145.576C112.375 146.984 109.76 148.191 106.743 148.995C105.738 149.197 104.933 149.398 103.927 149.8C103.324 150.001 102.721 150.202 102.319 150.403C100.508 150.806 98.8993 151.007 97.0892 151.208C95.8824 151.208 94.8769 151.208 93.6701 151.208C91.4577 151.208 89.2453 151.208 87.234 151.007C86.0273 150.806 84.8205 150.806 83.6138 150.605H83.4126C82.8092 150.403 82.2058 150.202 81.8036 149.8C80.9991 149.197 80.3957 148.392 79.5912 147.789C96.0836 144.973 109.559 132.704 117.001 118.625Z" fill="#C6C6C6"/>
<path d="M70.3361 140.95C70.5372 141.152 70.5371 141.152 70.7383 141.353C71.945 142.358 73.1518 143.565 74.3586 144.571C75.5653 145.576 76.7721 146.783 77.9788 147.99C78.3811 148.392 78.5822 148.794 78.7833 149.197C78.7833 149.398 78.5822 149.599 78.5822 149.8C78.5822 149.8 78.3811 149.8 78.18 149.8C77.9788 149.8 77.9788 149.8 77.7777 149.8C74.9619 149.197 72.1462 148.191 69.9338 146.381C68.5259 145.174 66.9169 143.967 65.509 142.761C65.1068 142.358 64.7045 141.956 64.1011 141.755C66.3135 141.554 68.3248 141.353 70.3361 140.95Z" fill="#C6C6C6"/>
<path d="M84.4173 152.415C85.0207 152.415 85.624 152.415 86.4285 152.616C88.8421 153.018 91.2556 153.219 93.6691 153.219C96.0826 153.219 98.295 153.018 100.709 152.415C104.53 151.61 108.15 150.605 111.569 148.794C112.374 148.392 113.178 148.191 113.782 147.789C116.195 146.582 118.609 145.576 120.419 143.565C120.821 143.163 121.425 142.761 121.827 142.962C122.229 142.962 122.631 143.163 123.235 143.364C124.844 144.37 126.252 145.576 127.659 146.783C128.665 147.588 129.47 148.392 130.274 149.197C131.883 150.605 133.492 152.012 134.9 153.621C143.75 163.477 149.984 174.539 153.605 187.21C154.208 189.221 154.812 191.433 155.817 193.444C156.219 194.048 156.219 195.053 156.421 195.657C156.823 197.266 157.828 198.272 159.437 198.875C160.443 199.277 161.449 199.478 162.454 199.679C163.46 199.679 164.466 199.478 165.471 199.076C169.293 197.266 171.907 194.852 173.717 191.232C175.93 186.003 177.137 180.773 176.935 175.142C176.734 172.728 176.131 170.717 175.528 168.505C175.125 167.097 174.522 165.689 174.12 164.281C174.12 164.281 174.12 164.08 174.321 164.08H174.522H174.723C176.332 164.884 177.74 166.091 178.544 167.499C180.757 171.321 182.768 175.343 182.567 179.768C182.567 181.779 182.567 183.992 182.567 186.003C182.366 191.232 179.952 195.456 176.533 199.478C175.125 201.087 173.315 202.495 171.505 203.903C170.097 205.11 168.287 205.311 166.477 205.311C166.477 205.311 166.477 205.311 166.276 205.311C165.471 205.311 164.667 205.11 163.862 205.11C162.857 205.11 161.851 205.512 162.052 206.518C162.052 209.333 160.242 210.339 158.03 211.144C155.616 211.948 153.203 212.149 150.588 212.149C149.18 212.149 147.772 212.149 146.364 212.35C145.359 212.551 144.554 212.551 143.548 212.551C142.744 212.551 141.738 212.551 140.934 212.551C137.112 212.35 133.291 211.948 129.47 211.747C128.866 211.747 128.464 211.747 127.861 211.747C126.654 211.747 125.447 212.35 124.844 213.356C124.643 213.557 124.643 213.758 124.441 213.959C123.637 214.965 122.832 215.367 122.028 215.367C121.223 215.367 120.62 214.764 119.614 213.758C119.413 213.356 119.011 212.954 118.81 212.753C118.609 212.551 118.408 212.551 118.206 212.551C118.005 212.551 117.804 212.753 117.804 212.954C117.603 213.557 117.603 214.362 117.402 214.965C117.201 215.568 116.597 215.971 115.994 215.769C115.592 215.769 115.19 215.568 114.988 215.367C114.586 214.764 114.385 213.959 113.983 213.155C113.782 212.954 113.581 212.753 113.178 212.753C112.977 212.753 112.977 212.954 112.776 213.155C112.575 213.356 112.575 213.557 112.575 213.758C112.374 214.16 112.776 215.166 111.77 215.166C111.569 215.166 111.569 215.166 111.368 215.166C110.564 214.965 110.363 214.16 110.363 213.557C110.363 212.35 110.161 211.345 110.363 210.138C110.564 208.73 111.368 207.523 112.776 206.92C114.787 206.115 116.598 205.713 118.609 205.713C119.212 205.713 120.017 205.713 120.62 205.713C122.43 205.914 124.24 206.317 126.05 206.518C128.464 206.719 131.079 206.92 133.492 207.121C134.095 207.121 134.9 206.92 135.503 206.719C135.705 206.719 135.705 206.317 135.906 206.115L135.705 205.914C135.503 205.914 135.503 205.713 135.302 205.713C131.28 205.713 127.659 204.305 124.039 203.3C120.218 202.093 117.201 200.082 114.184 197.668C110.966 195.053 110.564 191.634 110.564 188.014C110.765 186.003 111.167 183.992 111.569 181.98C112.374 178.561 114.385 176.148 118.005 174.941C120.017 174.337 122.028 173.734 124.24 173.332C125.648 173.131 127.056 173.131 128.263 173.131C129.47 173.131 130.877 173.131 132.084 173.332C132.084 173.332 132.285 173.332 132.486 173.131C132.285 172.93 132.285 172.728 132.084 172.728C130.475 172.527 128.866 171.924 127.257 171.924C123.637 172.326 119.816 172.93 116.396 174.337C113.782 175.343 111.972 177.153 110.966 179.567C109.759 182.584 108.955 185.802 109.156 189.02C109.156 190.428 108.955 192.037 108.552 193.444C107.748 196.864 107.145 200.283 106.943 203.702C106.943 206.518 106.943 209.535 106.742 212.35C106.742 212.954 106.541 213.557 106.34 213.959C106.34 214.16 105.737 214.362 105.536 214.161C105.334 214.161 105.334 214.161 105.334 214.161C104.932 213.959 104.731 213.557 104.329 213.155C103.927 212.753 103.725 212.551 103.524 212.551C103.323 212.551 103.122 212.954 102.921 213.557C102.519 214.362 102.318 215.166 101.312 215.166C101.111 215.166 101.111 215.166 100.91 215.166C99.904 214.965 99.904 213.959 99.904 213.155C99.904 212.551 99.7029 211.948 99.5018 211.546C99.5018 211.345 99.3006 211.345 99.0995 211.144C98.8984 211.144 98.6973 211.345 98.6973 211.345C98.295 212.149 98.0939 213.155 97.6916 213.959C97.4905 214.563 96.8871 214.764 96.2837 214.764C96.0826 214.764 95.8815 214.764 95.6804 214.764C95.077 214.563 94.6747 214.16 94.6747 213.557C94.6747 212.35 94.8758 210.942 96.2837 210.339C97.0882 209.937 97.2894 209.333 97.2894 208.73C97.4905 206.719 97.8927 204.708 98.0938 202.495C98.6972 196.059 98.6972 189.623 98.295 183.187C98.0939 180.17 97.4905 177.153 96.4849 174.337C95.6804 172.125 94.6747 170.315 92.2612 169.51C92.0601 169.51 91.859 169.309 91.6578 169.309C91.2556 169.309 90.8533 169.51 90.4511 169.913C89.8477 170.918 89.2443 171.924 88.842 172.93C86.6296 179.366 84.8195 185.802 84.4173 192.439C84.2161 195.255 84.015 198.272 83.8139 201.087C83.8139 201.087 83.8139 201.087 84.015 201.087C84.015 202.495 84.015 203.903 84.2161 205.311C84.2161 206.92 84.4173 208.328 85.624 209.333C86.6297 210.138 86.6296 211.345 86.8308 212.551C86.8308 213.758 86.4285 214.563 85.4229 215.166C84.8195 215.568 84.2162 215.568 83.6128 215.568C83.0094 215.568 82.406 215.367 81.8026 214.965L81.6015 214.764C81.1993 214.362 80.9981 213.758 80.3947 213.758H80.1936C79.7914 213.959 79.3891 214.563 79.188 215.166L78.9868 215.367C78.5846 215.769 78.1823 215.971 77.7801 215.971C77.3778 215.971 76.7745 215.77 76.5734 215.166C76.3722 214.965 76.3722 214.563 76.1711 214.161C75.97 213.959 75.7689 213.758 75.5677 213.758C75.3666 213.758 75.3666 213.758 75.1654 213.959C74.9643 214.16 74.5621 214.362 74.361 214.563C74.1598 214.764 73.7576 214.965 73.3553 214.965C73.1542 214.965 72.953 214.965 72.953 214.764C72.7519 214.362 72.7519 213.959 72.7519 213.557C73.1542 212.149 74.1598 210.942 75.9699 210.54C77.5789 210.138 77.5789 209.937 77.7801 208.328C77.9812 203.3 77.9812 198.271 78.1823 193.243C78.7857 184.796 79.5902 176.55 81.1992 168.304C82.0037 164.281 82.406 160.057 83.2105 156.035C82.6071 153.018 83.0094 152.415 84.4173 152.415Z" fill="#F8AA37"/>
<path d="M12.8142 61.9079C13.0153 61.9079 13.2165 61.9078 13.2165 61.7067C13.2165 61.7067 13.2164 61.7067 13.4175 61.7067C13.6187 61.7067 13.6187 61.5056 13.6187 61.5056C14.4232 62.5112 15.2277 63.718 16.0322 64.7236C16.8367 65.7292 17.239 66.936 18.2446 67.5394C18.0435 65.7292 16.8367 64.3214 15.8311 62.9135C13.2164 58.891 11.2051 54.6673 9.39501 50.2425C8.59051 48.6335 8.18828 46.8234 7.78603 45.0132C7.5849 44.611 7.78603 44.0076 7.98716 43.8065C8.18829 43.6054 8.38939 43.6053 8.59052 43.6053C8.79164 43.6053 9.19389 43.6053 9.39501 43.6053C12.2108 44.8121 15.2277 45.8177 17.8423 47.6279C22.2671 50.6448 26.6919 53.6617 30.9156 56.8797C34.5358 59.6955 37.7538 62.7124 40.5696 66.3327C41.173 67.1372 41.7764 67.7405 42.3798 68.3439C42.5809 68.5451 42.9832 68.7462 43.1843 68.9473C43.3854 68.9473 43.5865 68.7461 43.5865 68.7461L43.7877 68.545C43.7877 68.3439 43.7876 68.1428 43.5865 67.9417C41.3741 65.1259 39.1617 62.5112 36.5471 60.0977C32.7257 56.4775 28.3009 53.4606 23.8761 50.2425C20.0547 47.6279 16.2333 45.0132 11.8086 43.4042C10.4007 42.8008 8.79163 42.3986 7.38374 42.3986C6.57924 42.3986 6.17699 42.8008 6.37811 43.6053C6.57924 46.0189 7.38374 48.2312 8.38938 50.6448C8.99276 52.2538 9.59618 54.0639 10.1996 55.6729C9.99844 55.6729 9.79728 55.8741 9.59615 55.8741C6.98151 52.0527 5.37251 48.0301 3.7635 43.8065C3.16012 42.1975 2.75784 40.7896 2.35558 39.1806C2.35558 38.7783 2.35558 38.5772 2.35558 38.175C2.35558 37.7727 2.95896 37.3704 3.36122 37.3704C3.36122 37.3704 3.36123 37.3704 3.56236 37.3704C4.56799 37.5715 5.37248 37.7727 6.37811 38.175C8.38938 38.9795 10.6018 39.9851 12.613 40.9907C15.6299 42.5997 18.6468 44.2087 21.6637 46.0189C23.4739 47.0245 25.284 48.2312 27.0942 49.438C31.1167 52.0526 35.3404 54.6673 39.1618 57.4831C42.9832 60.0977 46.8046 62.7124 50.0226 65.9304C50.0226 65.9304 50.2237 65.9304 50.4249 65.9304C50.626 65.9304 50.6259 65.9304 50.8271 65.9304C50.8271 65.9304 51.0282 65.5282 51.0282 65.327C51.0282 65.1259 51.0282 65.1259 50.8271 64.9248C50.6259 64.7236 50.626 64.5225 50.4249 64.3214C49.6204 63.3158 49.8214 62.7124 50.8271 62.109C51.0282 61.9079 51.4304 61.7067 51.6316 61.5056C56.8609 58.2876 62.2913 55.4718 68.124 53.6617C68.7273 53.4605 69.5318 53.2594 70.1352 53.0583C70.7386 53.0583 71.1409 53.0583 71.5431 53.0583C72.7499 53.0583 72.951 53.4605 73.5544 54.6673C73.7555 55.0695 73.9566 55.2707 74.1578 55.4718L74.3589 55.2707C74.3589 54.8685 74.56 54.2651 74.3589 53.8628C72.951 49.8403 72.3476 45.6166 71.7442 41.3929C71.342 37.7727 70.5375 34.3535 69.9341 30.9344C69.733 29.5265 69.5319 28.1186 69.3307 26.9119C68.9285 24.0961 68.5262 21.2803 68.3251 18.2634C68.124 16.051 67.9228 13.6375 68.124 11.4251C68.3251 8.60934 68.3251 5.59248 69.3307 2.97783C69.5319 2.57558 69.9341 2.17329 70.3364 2.37442C70.5375 2.37442 70.7386 2.37442 70.9397 2.37442C71.342 2.57554 71.5431 2.77671 71.9454 2.97783C72.5487 3.38009 73.3532 3.98344 73.9566 4.58682C75.7668 6.39696 77.5769 8.00598 79.1859 9.81612C84.013 15.4477 88.2366 21.2803 92.4603 27.5152C94.0693 29.9287 95.8794 32.3423 97.4884 34.7558C102.718 43.002 107.545 51.2481 111.97 59.6955C113.377 62.5112 115.188 65.1259 116.797 67.7405C116.998 67.9416 117.199 68.3439 117.4 68.545C117.802 69.1484 117.601 69.7518 116.797 69.9529C114.584 70.7574 112.372 71.3608 110.361 71.9642C103.321 74.1766 96.0805 76.3889 89.0411 78.6013C88.4377 78.8025 87.6332 79.0036 87.0298 79.2047C86.2253 79.4059 85.4208 79.607 85.2197 79.607C84.4152 79.607 84.4152 79.2047 85.0186 77.1935C85.4208 75.9867 85.4208 74.78 85.4208 73.3721C85.4208 72.7687 85.4208 71.9642 85.2197 71.3608C84.6163 69.5507 83.6107 68.3439 81.3983 68.1428C81.1972 68.1428 80.996 68.1428 80.7949 68.1428C78.9848 68.1428 77.1747 69.1484 76.3702 70.5563C75.9679 71.3608 75.5657 72.3664 75.5657 73.171C75.3645 74.78 75.5657 76.389 75.5657 77.998C75.5657 78.6014 75.9679 79.4059 76.169 80.0092C77.1747 82.0205 77.1746 82.0205 74.7611 82.6239C72.1465 83.4284 69.3307 83.8307 66.7161 84.2329H66.515C66.1127 84.2329 65.5093 84.2329 65.1071 84.0318C61.0845 82.825 57.062 82.6239 53.0395 82.2216C49.8215 81.8194 46.6035 81.8194 43.3854 81.8194C40.1674 81.8194 36.9493 82.0205 33.7313 82.2216C33.7313 82.2216 33.7313 82.2216 33.5302 82.2216C32.9268 82.2216 32.3234 82.2216 31.7201 82.0205C31.3178 81.8194 30.9155 81.8194 30.5133 81.8194C30.111 81.8194 29.7088 81.8194 29.3066 82.0205C29.1055 82.0205 28.7031 82.2216 28.502 82.2216C27.8986 82.2216 27.2953 82.0205 26.893 81.4172C22.066 75.7856 17.4401 70.154 13.6187 63.9191C13.6187 63.1146 13.2164 62.5112 12.8142 61.9079ZM94.0693 56.4774C94.0693 56.6785 94.4715 56.6786 94.6727 56.6786L94.8738 56.4774C94.8738 56.2763 94.8738 56.0752 94.8738 55.8741C93.8681 53.8628 92.6614 52.0527 91.6558 50.2425C91.6558 50.0414 91.4546 50.0414 91.2535 50.0414C91.0524 50.0414 90.8512 50.4436 90.8512 50.4436C90.8512 52.656 92.4602 54.6673 94.0693 56.4774ZM90.2479 55.0696C90.449 54.8684 90.449 54.6673 90.2479 54.4662C88.6389 53.2594 87.8343 51.6504 87.0298 50.0414C86.4265 48.4324 85.8231 46.8234 85.0186 45.2144C85.0186 45.0133 84.8175 45.0132 84.6164 45.0132L84.4152 45.2144L84.2141 45.4155C84.2141 45.8177 84.013 46.4211 84.2141 46.8234C85.0186 48.8346 86.0242 51.047 87.0298 53.0583C87.4321 53.6617 88.0355 54.2651 88.6389 54.8684C88.84 55.0696 89.2423 55.2707 89.4434 55.2707C89.8456 55.2707 90.0467 55.2707 90.2479 55.0696ZM84.2141 63.718C85.8231 64.7236 86.8287 66.3326 87.4321 67.9417C87.6332 68.3439 87.6332 68.545 88.0355 68.7461C88.0355 68.7461 88.2366 68.7461 88.4377 68.7461C88.6389 68.7461 88.6388 68.7461 88.84 68.7461C89.0411 68.545 89.2423 68.1428 89.4434 67.9417C89.4434 67.7405 89.4434 67.3383 89.4434 67.1372C88.6389 65.1259 87.6332 63.3157 85.8231 61.7067C85.4208 61.3045 85.2197 61.3045 84.8174 61.1034C84.6163 61.1034 84.4152 61.1033 84.0129 61.5056C83.4096 62.3101 83.4096 63.1146 84.2141 63.718ZM75.1634 28.3197C75.7668 33.7501 76.9735 39.1806 78.3814 44.611C79.1859 47.6279 80.795 50.2425 82.6051 52.8572C82.8062 53.0583 83.2085 53.2594 83.4096 53.4605C83.4096 53.4605 83.4096 53.4605 83.6107 53.4605C83.8118 53.2594 84.0129 53.0583 84.0129 52.8572C83.8118 52.2538 83.4096 51.6504 83.0073 51.047C81.8005 49.2369 80.5938 47.6279 79.9904 45.6166C77.778 39.1806 76.169 32.7445 75.9679 26.1074C75.7668 22.8894 75.5657 19.6713 75.3645 16.4533C75.3645 15.0454 75.3645 13.6375 75.3645 12.2296C75.3645 12.0285 75.9679 11.8274 76.169 11.8274H76.3702C76.7724 12.0285 77.3758 12.4308 77.778 12.833C79.7893 15.4477 82.0017 17.8612 83.8118 20.4758C89.4433 28.722 94.4715 37.3705 99.2986 46.22C100.304 48.0302 100.908 50.0414 100.706 52.2538C100.706 53.0583 100.304 53.6616 99.9019 54.4662C99.7008 54.6673 99.4997 54.8684 99.2986 54.6673C99.0974 54.6673 98.6952 54.6673 98.6952 54.4662C98.293 53.8628 97.8907 53.0583 97.4884 52.2538C97.2873 52.0527 97.0861 52.0527 96.885 52.0527C96.885 52.0527 96.6839 52.4549 96.6839 52.656C96.6839 53.6617 97.0862 54.6673 97.6896 55.4718C98.0918 56.0752 98.6952 56.2763 99.4997 56.2763C100.103 56.2763 100.908 55.8741 101.31 55.2707C102.517 53.4606 102.919 51.6504 102.315 49.6391C101.712 47.6279 100.706 45.8178 99.7008 44.0076C95.8794 36.3648 91.4546 29.1243 86.8287 22.0848C84.4152 18.2634 81.5994 14.8443 78.7836 11.6262C77.778 10.4195 76.5713 9.41384 75.5657 8.40821C75.3645 8.40821 75.3645 8.20707 75.1634 8.20707C74.7611 8.20707 74.3589 8.40823 74.1578 8.81049C73.9566 9.41387 73.7555 9.8161 73.7555 10.4195C73.7555 11.6262 73.7555 13.0341 73.7555 14.2409C73.7555 14.2409 73.7555 14.2409 73.5544 14.2409C73.7555 16.4533 74.1578 18.6657 74.3589 20.6769C74.3589 23.2916 74.7611 25.9062 75.1634 28.3197ZM62.8947 79.8081C63.0958 81.216 64.1015 82.2216 65.5093 82.2216C66.1127 82.2216 66.7161 82.2216 67.1183 82.0205C70.1352 81.0149 72.5488 77.7968 72.5488 74.9811C72.5488 73.7743 72.5487 72.7687 71.7442 71.5619C70.7386 69.9529 69.1296 69.3496 67.3195 69.3496C67.1183 69.3496 66.9172 69.3496 66.7161 69.3496C65.7104 69.3496 64.906 69.9529 64.5037 70.7574C63.4981 72.9698 62.6935 75.1822 62.8947 78.1991C62.6935 78.4002 62.6935 79.0036 62.8947 79.8081ZM58.4699 70.9585C58.8722 70.5563 59.4755 70.3552 59.6766 70.1541C60.4811 68.545 61.8891 67.5394 63.2969 66.3327C63.6992 65.9304 64.1015 65.7292 64.5037 65.5281C65.1071 65.1259 65.107 64.1202 64.7048 63.718C64.5037 63.5169 64.3025 63.3158 63.9003 63.3158C63.6992 63.3158 63.4981 63.3157 63.2969 63.5168C61.0845 64.7236 59.6767 66.3327 58.2688 68.3439C57.8665 68.9473 57.8665 69.5507 57.8665 70.3552C57.6654 70.3552 58.0677 70.5563 58.4699 70.9585ZM41.9775 74.7799C42.1786 74.9811 42.5809 74.9811 42.782 75.1822C42.782 75.1822 42.9832 75.1822 42.9832 74.9811L43.1843 74.7799C43.1843 74.5788 42.9832 74.3777 42.9832 74.1766C42.1786 73.171 41.3741 72.1653 40.5696 71.1597C39.1617 69.7518 37.5527 68.3439 35.9437 66.936C35.9437 66.936 35.7426 66.936 35.5415 66.7349C35.3403 66.936 35.1392 67.3382 35.3404 67.5394C35.7426 68.1428 36.1448 68.545 36.7482 69.1484C37.955 70.3552 39.1617 71.5619 40.5696 72.7687C40.7707 73.5732 41.3741 74.1766 41.9775 74.7799ZM39.1618 77.3946C39.1618 77.3946 39.3629 77.1935 39.1618 77.3946C39.3629 77.1935 39.564 77.1935 39.564 76.9923C39.3629 76.7912 39.3629 76.389 39.1618 76.1879C38.1561 74.9811 37.1505 73.5732 36.1449 72.3665C35.9437 72.1653 35.7426 71.9642 35.3404 71.9642C35.1392 72.1653 35.1392 72.5676 35.1392 72.7687C35.7426 74.7799 37.3516 76.1879 39.1618 77.3946ZM35.7426 77.7968C35.9437 77.7968 35.9437 77.5957 36.1449 77.5957C36.1449 76.9923 35.7426 76.389 35.1392 75.9867C34.9381 75.9867 34.737 76.1879 34.737 76.1879C34.5358 76.7912 34.9381 77.5957 35.7426 77.7968Z" fill="#F8AA37"/>
<path d="M34.3353 85.0373C34.5365 84.2328 35.1398 83.8305 35.9443 83.8305C38.1567 83.8305 40.3691 83.6294 42.5815 83.6294C43.386 83.6294 43.9894 83.6294 44.7939 83.6294C49.6209 83.8305 54.6491 84.4339 59.4761 84.8362C59.6773 84.8362 59.6772 84.8362 59.8784 85.0373C60.0795 85.2384 60.2806 85.4396 60.2806 85.4396C60.2806 85.6407 60.0795 85.8418 59.8784 85.8418C57.0626 86.6463 54.2468 87.652 51.2299 88.2553C45.1962 89.4621 39.1624 90.6688 33.1286 91.6745C32.7263 91.6745 32.5252 91.8756 31.9218 91.8756C31.5195 91.6745 30.9161 91.4734 30.5139 91.2722C29.7094 90.87 29.7094 90.0654 30.3128 89.6632C30.5139 89.4621 30.9162 89.261 31.1173 89.0598C32.7263 88.2553 33.9331 86.8474 34.3353 85.0373Z" fill="#F8AA37"/>
<path d="M108.954 195.657C108.954 195.657 109.155 195.657 108.954 195.657C109.155 195.657 109.155 195.657 108.954 195.657C109.356 195.657 109.758 195.657 109.758 195.858C111.971 198.875 114.988 200.685 118.206 202.696C118.407 202.897 118.407 203.3 118.608 203.501C118.407 203.501 118.206 203.702 118.005 203.702C114.787 203.702 111.971 204.506 109.155 206.317C108.954 206.518 108.753 206.518 108.753 206.518C108.351 206.518 108.149 206.317 108.149 205.914C108.149 204.909 108.149 204.104 108.149 203.099C108.149 203.099 107.948 203.099 107.747 203.099C108.149 200.685 108.351 198.272 108.753 196.059C108.552 196.059 108.753 195.657 108.954 195.657Z" fill="#F8AA37"/>
<path d="M10.6043 56.2762C11.2076 56.4774 11.4088 57.0807 11.2077 57.6841C12.2133 58.2875 12.6155 59.2931 12.8167 60.2988C13.0178 60.701 13.42 61.1032 13.6212 61.5055L13.42 61.7066C13.42 61.7066 13.4201 61.7066 13.2189 61.7066C13.0178 61.7066 12.8167 61.9078 12.8167 61.9078C12.6155 61.5055 12.4144 61.1032 12.4144 60.4998C11.4088 59.6953 11.0065 58.8908 11.0065 57.6841C10.202 57.483 10.202 57.0807 10.202 56.4773C10.0009 56.2762 9.79976 56.0751 9.79976 55.6728C10.0009 55.4717 10.202 55.4717 10.4031 55.4717C10.4031 55.6728 10.6043 55.874 10.6043 56.2762Z" fill="#F8AA37"/>
<path d="M92.0605 187.209C92.0605 185.6 92.4627 183.991 93.2673 182.584C93.6695 181.98 94.0717 180.975 95.0774 180.975C95.2785 180.975 95.2785 180.975 95.4797 180.975C96.2842 181.176 96.083 182.382 96.083 183.187C96.083 185.399 96.2842 187.813 96.2842 190.025C96.2842 190.025 96.2842 190.025 96.4853 190.025C96.2842 192.841 96.2841 195.456 96.083 198.271L95.8819 198.473C95.8819 198.473 95.8819 198.473 95.6808 198.473C95.4797 198.473 95.0774 198.473 95.0774 198.271C93.4684 194.852 92.2616 191.031 92.0605 187.209Z" fill="#F8AA37"/>
<path d="M90.048 208.127C91.2548 207.523 92.2604 206.719 93.6683 206.719C93.6683 206.719 93.6683 206.719 93.8694 206.719C94.2717 206.719 94.6739 206.719 94.875 206.92C95.0762 207.121 95.0762 207.523 94.875 207.724C93.6683 208.931 93.266 210.54 92.8638 212.149C92.6626 212.551 92.6627 212.954 92.2604 213.356C91.8582 213.959 91.2548 214.16 90.6514 214.16C90.048 214.16 89.4446 213.959 89.0424 213.356C88.6401 212.753 88.6402 212.149 88.439 211.948C88.439 209.937 88.8413 208.931 90.048 208.127Z" fill="#F39026"/>
<path d="M110.563 52.0525C110.563 51.8514 110.362 51.6502 110.362 51.4491L110.563 51.6502C110.764 51.8514 110.764 52.0525 110.563 52.0525Z" fill="#F39026"/>
<path d="M70.3377 75.9867H70.5389V76.1878L70.3377 75.9867Z" fill="#F39026"/>
<path d="M11.8101 61.7066C8.18985 55.0694 4.5696 48.4323 2.15608 41.3928C1.75383 39.9849 1.35156 38.5771 0.94931 36.9681C0.748184 36.1636 1.55266 35.3591 2.35716 35.5602C3.36279 35.7613 4.16734 35.9625 5.17297 36.1636C7.98875 36.9681 10.8045 38.376 13.4191 39.7838C15.8326 40.9906 18.2462 42.3985 20.6597 43.6052C24.6822 45.6165 28.1013 48.4323 31.7216 50.6447C34.3363 52.2537 36.9509 54.0638 39.5656 55.6728C40.1689 56.0751 40.5712 56.2762 41.1746 55.874C43.5881 54.0638 46.4039 53.6616 49.0185 52.6559C51.2309 51.6503 53.8456 51.047 56.2591 50.2424C58.6726 49.4379 60.885 48.4323 63.2985 47.6278C65.5109 47.0244 67.7233 46.421 69.9356 45.8176C70.7402 45.6165 71.1424 45.0132 71.1424 44.2087C71.1424 40.7895 70.3379 37.5714 69.7345 34.3534C69.5334 33.75 69.3323 32.9455 69.3323 32.3421C68.7289 27.314 68.1255 22.2858 67.5222 17.2577C66.9188 12.0284 67.5221 7.00025 68.7289 1.77096C68.7289 1.36871 68.93 1.16758 69.1311 0.765328C69.5334 0.161949 70.3379 -0.240341 70.9413 0.161912C72.148 0.765291 73.1537 1.56981 74.1593 2.37432C77.9807 5.59234 81.1987 9.2126 84.2156 13.2351C87.4337 17.4588 90.4506 21.6825 93.4675 25.9061C93.6686 26.1073 93.6685 26.3084 93.8697 26.5095C96.6854 29.5264 98.6967 33.1467 100.909 36.5658C101.512 37.7726 102.317 37.9737 103.524 37.7726C105.334 37.1692 107.345 36.767 108.954 35.9625C112.977 34.1523 117.402 34.1523 121.625 33.7501C122.631 33.7501 123.033 34.1523 123.435 35.158C124.441 39.3816 124.24 38.9793 128.463 38.7782C132.285 38.5771 135.905 39.1805 139.324 40.5883C143.95 42.3985 146.163 46.8232 145.157 51.4492C144.554 53.8627 144.151 56.4773 143.95 58.8909C143.347 65.528 141.738 71.964 140.33 78.6012C137.916 89.2609 135.503 99.9206 133.29 110.781C131.883 117.821 130.475 124.86 129.268 131.9C128.866 133.71 128.463 135.319 126.854 136.727C125.648 137.934 124.843 139.543 123.838 141.152C123.435 141.956 123.636 142.358 124.24 142.962C127.056 145.174 130.072 147.386 132.687 150.001C137.514 154.426 141.336 159.454 144.755 165.086C147.168 169.108 149.582 173.131 151.191 177.354C152.599 181.176 153.805 185.198 155.213 189.221C155.615 190.226 155.817 191.433 156.219 192.64C156.621 194.249 157.426 195.657 158.632 196.864C160.04 198.473 161.85 198.875 163.862 198.271C166.476 197.266 168.89 196.059 170.499 193.847C172.309 191.433 173.717 188.819 174.32 185.802C174.723 183.589 175.326 181.377 175.527 178.963C175.728 173.332 174.521 168.102 171.504 163.074C171.102 162.471 170.901 161.868 170.499 161.264C170.499 161.063 170.499 160.862 170.7 160.661C170.901 160.46 171.102 160.46 171.303 160.46C171.504 160.46 171.706 160.46 171.907 160.661C175.929 163.275 179.55 166.292 181.561 170.717C183.773 175.544 184.578 180.572 183.773 185.802C183.773 186.003 183.773 186.204 183.773 186.405C183.974 192.037 180.957 196.26 177.538 200.283C175.728 202.495 173.315 204.104 171.102 205.914C169.694 206.92 167.683 207.121 166.074 207.523C165.672 207.523 165.068 207.523 164.666 207.523C164.063 207.523 163.459 207.926 163.258 208.529C161.649 212.149 158.431 213.557 154.811 213.959C153.403 214.16 152.196 214.16 150.386 214.362C148.576 213.959 146.364 214.362 143.95 214.764C143.347 214.965 142.542 214.764 141.738 214.764C137.715 214.563 133.693 214.16 129.871 213.959C129.067 213.959 128.463 213.959 127.659 213.959C126.653 213.959 125.648 214.362 125.245 215.166C124.039 217.177 122.229 217.177 120.217 216.976C119.01 216.775 117.804 216.373 116.798 217.378C116.597 217.58 116.396 217.58 116.195 217.58C114.183 217.378 112.172 217.379 110.161 217.177C109.155 216.976 107.345 216.976 106.138 217.177C105.937 217.177 105.937 217.177 105.736 217.177C104.127 216.775 102.719 216.775 101.311 217.781C101.11 217.982 100.306 217.781 99.9035 217.58C98.6967 216.976 97.49 216.775 96.0821 216.976C95.4787 216.976 94.6742 216.976 93.8697 216.775C92.864 216.373 92.0596 216.373 91.0539 216.373C90.6517 216.373 90.2494 216.373 90.0483 216.373C87.6348 216.373 86.428 216.373 84.819 217.177C84.0145 217.58 83.21 217.781 82.4055 217.58C80.7965 217.177 79.3886 216.976 77.7796 217.781C76.9751 218.183 75.9694 217.982 74.9638 217.58C74.1593 217.177 73.1537 216.976 72.148 216.775C70.7402 216.775 69.5334 215.367 70.1368 213.758C70.7402 211.948 71.7458 210.339 73.1537 209.132C73.3548 208.931 73.757 208.73 73.9582 208.529C74.5616 208.127 74.7627 207.724 74.7627 207.121C74.9638 205.713 75.1649 204.305 75.1649 202.897C75.3661 198.875 75.5672 194.852 75.7683 190.83C76.3717 183.992 76.9751 177.354 78.383 170.717C79.1875 166.292 79.992 161.868 80.5954 157.443C80.7965 156.236 81.1987 155.029 81.3999 153.823C81.3999 153.42 81.1987 152.817 80.7965 152.616C79.992 152.214 78.9863 152.012 77.9807 151.811C76.7739 151.61 75.5672 151.208 74.3605 151.007C72.7514 150.806 71.3435 150.001 70.1368 148.995C68.1255 147.386 66.1142 145.777 63.9018 144.168C62.2928 142.761 60.6838 141.554 58.8737 140.146C55.2534 137.129 51.6331 134.112 47.8117 131.095C45.1971 129.084 42.7836 126.872 40.169 124.86C35.3419 121.441 31.1183 117.218 26.8946 113.195C23.2743 109.977 19.4529 106.96 15.8327 103.943C12.8158 101.329 9.39659 98.915 6.37968 96.5015C5.17293 95.4959 4.1673 94.4902 3.36279 93.0823C1.95491 90.87 1.75381 88.4565 2.96057 86.2441C4.56958 83.4283 6.17857 80.6125 8.59209 78.4001C10.8045 76.3889 13.218 74.3776 15.6315 72.3663C16.6371 71.3607 16.6372 71.1596 16.0338 69.9528C15.0282 66.9359 13.218 64.5224 11.8101 61.7066ZM70.1368 47.4266C68.7289 47.8289 67.321 48.03 65.9131 48.4323C62.8962 49.4379 60.0805 50.4435 57.0636 51.4492C54.4489 52.2537 51.8343 53.2593 49.2197 54.0638C48.0129 54.4661 46.8062 54.8684 45.3983 55.2706C44.3926 55.6729 43.3869 56.0751 42.5824 56.6785C42.3813 56.6785 42.1802 57.4829 42.3814 57.4829C43.9904 58.8908 45.5994 60.0976 47.4095 61.3044C48.0129 61.7066 48.6163 61.5055 49.0185 61.1033C49.4208 60.9021 49.823 60.4999 50.2253 60.2988C54.4489 57.483 58.8737 55.0695 63.9018 53.2593C66.3154 52.4548 68.5278 51.2481 70.9413 50.8458C71.3435 50.8458 71.9469 50.4436 71.9469 50.0413C72.3492 48.8345 71.9469 47.4266 70.1368 47.4266ZM120.418 35.359C119.011 35.5602 117.603 35.7613 116.195 35.7613C114.385 35.7613 112.574 36.3647 110.965 36.9681C108.753 37.9737 106.541 38.5771 104.127 39.1805C103.323 39.3816 103.122 39.7838 103.524 40.3872C105.535 43.8064 107.546 47.4267 109.759 50.8458C109.759 51.0469 109.96 51.0469 110.161 51.0469C110.362 51.0469 110.362 51.2481 110.563 51.2481L110.764 51.4492C110.764 51.6503 110.965 51.8514 110.965 52.0526V51.8514L110.764 51.6503V51.4492C110.764 50.8458 110.563 50.4435 110.563 49.8402C109.96 47.8289 109.356 45.8176 108.753 44.0075C108.351 42.8008 108.552 41.9962 109.96 41.7951C113.781 40.9906 117.401 39.7839 121.223 39.1805C121.625 39.1805 122.229 38.9793 122.631 38.7782C122.832 38.7782 123.033 38.5771 123.033 38.3759C123.033 36.9681 121.826 35.359 120.418 35.359ZM110.362 51.4492C110.362 51.4492 110.362 51.6503 110.362 51.4492C110.563 51.8514 110.563 52.0526 110.764 52.0526V51.8514C110.563 51.8514 110.563 51.6503 110.362 51.4492ZM143.95 50.0413C144.151 49.0357 144.151 48.2312 143.95 47.2255C143.749 45.8177 142.945 44.6109 141.939 43.6052C141.336 43.0019 140.531 42.3985 139.525 41.9963C138.721 41.594 137.916 41.1917 136.911 40.9906C136.307 40.7895 135.905 40.5883 135.302 40.5883C135.101 40.5883 134.698 40.3872 134.497 40.3872C133.894 40.1861 133.089 40.1861 132.486 39.985H132.285C131.48 39.7839 130.877 39.7838 130.274 39.7838C129.871 39.7838 129.469 39.7838 129.067 39.7838C124.642 40.1861 121.424 40.1861 118.206 40.7895C115.591 41.1917 113.178 41.9962 110.563 42.8007C110.161 42.8007 109.96 43.4041 109.96 43.8064C109.96 44.4098 110.161 45.0131 110.362 45.4154C111.569 50.4435 113.58 55.0695 115.189 59.8965C116.195 62.7123 117.804 65.1257 119.212 67.5393C119.815 68.5449 120.217 68.5449 121.223 68.1427C124.24 66.7348 127.257 65.3269 130.274 63.7179C132.084 62.9134 133.894 61.7066 135.503 60.4998C136.307 59.8965 136.911 59.2931 137.715 58.8909C138.118 58.6897 138.319 58.2875 138.721 58.0864C139.525 57.2819 140.531 56.4773 141.134 55.6728C141.537 55.0694 142.14 54.4661 142.542 53.6616C142.945 53.0582 143.347 52.2537 143.548 51.4492C143.749 51.0469 143.95 50.6447 143.95 50.0413ZM107.949 203.3C107.949 204.305 107.949 205.11 107.949 206.115C107.949 206.518 108.351 206.719 108.552 206.719C108.753 206.719 108.753 206.719 108.954 206.518C111.569 204.708 114.586 203.702 117.804 203.903C118.005 203.903 118.206 203.702 118.407 203.702C118.206 203.3 118.206 202.897 118.005 202.897C114.988 200.886 111.77 198.875 109.558 196.059C109.356 195.858 109.155 195.858 108.954 195.858H108.753C108.552 195.858 108.351 196.059 108.351 196.26C107.949 198.674 107.747 201.087 107.345 203.3C107.747 203.3 107.747 203.3 107.949 203.3ZM88.6404 211.948C88.6404 212.149 88.8415 212.753 89.2438 213.356C89.4449 213.959 90.2494 214.16 90.8528 214.16C91.4562 214.16 92.0596 213.959 92.4618 213.356C92.663 212.954 92.8641 212.551 93.0652 212.149C93.4674 210.54 94.0708 209.132 95.0764 207.724C95.2776 207.523 95.2776 206.92 95.0764 206.92C94.8753 206.719 94.4731 206.719 94.0708 206.719C94.0708 206.719 94.0708 206.719 93.8697 206.719C92.4618 206.719 91.4562 207.523 90.2494 208.127C88.8415 208.931 88.4393 209.937 88.6404 211.948ZM87.4337 208.328C88.8416 206.92 90.6517 206.317 92.4618 205.713C93.4675 205.311 94.2719 205.11 95.0764 204.708C95.6798 204.506 95.881 203.702 95.6799 203.3C95.4787 202.897 95.2776 202.696 95.2776 202.294C92.8641 198.473 91.8584 194.249 90.8528 190.025C90.6517 189.02 90.6517 187.813 90.8528 186.606C91.0539 183.992 92.2607 181.779 94.272 179.969C95.2776 178.963 95.6799 177.958 95.4787 176.55C95.2776 175.142 94.6742 173.935 93.8697 172.728C93.6685 172.326 93.2663 172.125 92.864 171.723C91.8584 170.918 91.0539 171.119 90.4506 172.125C90.0483 172.93 89.6461 173.533 89.4449 174.337C88.4393 177.958 87.4337 181.377 86.6292 184.997C85.2213 190.428 85.2213 196.26 85.0201 201.892C85.0201 203.099 85.0201 204.104 85.2213 205.311C85.2213 206.518 85.8247 207.523 86.6292 208.529C86.6292 208.73 87.0314 208.931 87.4337 208.328ZM95.8809 198.473C95.8809 198.473 96.0821 198.473 95.8809 198.473C96.0821 198.473 96.2832 198.271 96.2832 198.271C96.4843 195.456 96.4844 192.841 96.6855 190.025C96.6855 190.025 96.6855 190.025 96.4844 190.025C96.4844 187.813 96.2832 185.399 96.2832 183.187C96.2832 182.382 96.4844 181.176 95.6799 180.975C95.4787 180.975 95.2776 180.975 95.2776 180.975C94.4731 180.975 94.0708 181.98 93.4675 182.584C92.4618 183.992 92.0596 185.399 92.2607 187.21C92.4618 191.232 93.6686 194.852 95.2776 198.473C95.2776 198.473 95.6798 198.473 95.8809 198.473ZM80.1931 167.499C78.5841 175.745 77.7796 184.193 77.1762 192.439C76.774 197.467 76.7739 202.495 76.7739 207.523C76.7739 208.931 76.7739 209.333 74.9638 209.736C73.1537 210.138 72.3492 211.345 71.7458 212.753C71.5446 213.155 71.7458 213.758 71.9469 213.959C72.148 214.16 72.1481 214.16 72.3492 214.16C72.7514 214.362 72.9526 213.959 73.3548 213.758C73.5559 213.557 73.9582 213.356 74.1593 213.155C74.3604 213.155 74.3605 212.954 74.5616 212.954C74.7627 212.954 74.9638 213.155 75.1649 213.356C75.3661 213.557 75.3661 213.959 75.5672 214.362C75.9695 214.965 76.3717 215.166 76.7739 215.166C77.1762 215.166 77.5784 215.166 77.9807 214.563L78.1818 214.362C78.5841 213.959 78.7852 213.155 79.1875 212.954C79.3886 212.954 79.3886 212.954 79.3886 212.954C79.992 212.954 80.1931 213.758 80.5954 214.16L80.7965 214.362C81.3998 214.764 82.0033 214.965 82.6066 214.965C83.21 214.965 83.8134 214.965 84.4168 214.563C85.4224 213.959 86.0257 213.155 85.8246 211.948C85.8246 210.741 85.6235 209.535 84.6179 208.73C83.4112 207.523 83.21 206.115 83.21 204.708C83.21 203.3 83.21 201.892 83.0089 200.484C83.0089 200.484 83.0089 200.484 82.8077 200.484C83.0089 197.668 83.21 194.651 83.4111 191.835C83.8134 185.198 85.8246 178.762 87.8359 172.326C88.2381 171.321 88.8416 170.315 89.4449 169.309C89.6461 168.907 90.0483 168.706 90.6517 168.706C90.8528 168.706 91.0539 168.706 91.2551 168.907C93.6686 169.712 94.8753 171.522 95.4787 173.734C96.4844 176.55 97.0877 179.567 97.2888 182.584C97.6911 189.02 97.6911 195.456 97.0877 201.892C96.8866 203.903 96.4843 205.914 96.2832 208.127C96.2832 208.73 96.0821 209.535 95.2776 209.736C93.6686 210.339 93.6686 211.546 93.6686 212.954C93.6686 213.557 94.0709 213.959 94.6742 214.16C94.8754 214.16 95.0765 214.16 95.2776 214.16C95.881 214.16 96.2832 213.959 96.6855 213.356C97.0878 212.551 97.2889 211.546 97.6911 210.741C97.6911 210.54 98.0933 210.54 98.0933 210.54C98.2945 210.54 98.4956 210.741 98.4956 210.942C98.6967 211.546 98.8978 211.948 98.8978 212.551C99.099 213.356 98.8978 214.362 99.9035 214.563C100.105 214.563 100.306 214.563 100.306 214.563C101.311 214.563 101.512 213.557 101.915 212.954C102.116 212.35 102.317 212.149 102.518 211.948C102.719 211.948 102.92 212.149 103.323 212.551C103.725 212.954 103.926 213.356 104.328 213.557H104.529C104.731 213.557 105.133 213.356 105.334 213.356C105.535 212.753 105.736 212.35 105.736 211.747C105.736 208.931 105.937 205.914 105.937 203.099C105.937 199.679 106.541 196.26 107.546 192.841C107.949 191.433 108.15 190.025 108.15 188.416C108.15 185.198 108.753 181.98 109.96 178.963C110.965 176.55 112.776 174.74 115.39 173.734C118.809 172.326 122.631 171.723 126.251 171.321C127.86 171.321 129.469 171.723 131.078 172.125C131.279 172.125 131.279 172.527 131.48 172.527C131.279 172.527 131.279 172.728 131.078 172.728C129.871 172.728 128.463 172.527 127.257 172.527C125.849 172.527 124.642 172.728 123.234 172.728C121.022 172.93 119.01 173.533 116.999 174.337C113.379 175.544 111.569 177.958 110.563 181.377C110.161 183.388 109.558 185.399 109.558 187.411C109.356 191.031 109.96 194.45 113.178 197.065C116.195 199.478 119.212 201.691 123.033 202.696C126.653 203.903 130.274 205.11 134.296 205.11C134.497 205.11 134.497 205.11 134.698 205.311L134.9 205.512C134.9 205.713 134.698 205.914 134.497 206.115C133.894 206.317 133.089 206.518 132.486 206.518C130.072 206.317 127.458 206.115 125.044 205.914C123.234 205.713 121.424 205.311 119.614 205.11C119.011 205.11 118.206 205.11 117.603 205.11C115.591 205.11 113.58 205.512 111.77 206.317C110.362 206.92 109.356 207.926 109.356 209.535C109.356 210.741 109.356 211.747 109.356 212.954C109.356 213.557 109.558 214.563 110.362 214.563C110.563 214.563 110.563 214.563 110.764 214.563C111.569 214.563 111.368 213.758 111.569 213.155C111.569 212.954 111.77 212.753 111.77 212.551C111.77 212.35 111.971 212.149 112.172 212.149C112.373 212.149 112.776 212.35 112.977 212.551C113.379 213.155 113.58 213.959 113.982 214.764C114.183 215.166 114.586 215.166 114.988 215.166C115.591 215.166 116.396 214.965 116.396 214.362C116.597 213.758 116.597 212.954 116.798 212.35C116.798 212.149 116.999 211.948 117.2 211.948C117.401 211.948 117.603 211.948 117.804 212.149C118.206 212.551 118.407 212.954 118.608 213.155C119.413 214.362 120.217 214.764 121.022 214.764C121.826 214.764 122.43 214.362 123.435 213.356C123.636 213.155 123.636 212.954 123.838 212.753C124.642 211.747 125.648 211.345 126.854 211.144C127.458 211.144 128.061 211.144 128.463 211.144C132.285 211.345 136.106 211.747 139.928 211.948C140.933 211.948 141.738 211.948 142.542 211.948C143.548 211.948 144.352 211.948 145.358 211.747C146.766 211.546 148.174 211.546 149.582 211.546C152.196 211.546 154.61 211.345 157.023 210.54C159.236 209.736 161.247 208.73 161.046 205.914C161.046 204.909 161.85 204.305 162.856 204.506C163.661 204.506 164.465 204.708 165.27 204.708C165.27 204.708 165.27 204.708 165.471 204.708C167.281 204.708 169.091 204.506 170.499 203.3C172.309 201.892 174.119 200.484 175.527 198.875C178.946 195.053 181.36 190.629 181.561 185.399C181.561 183.388 181.561 181.176 181.561 179.164C181.762 174.539 179.751 170.717 177.538 166.896C176.533 165.287 175.125 164.281 173.717 163.477C173.717 163.477 173.717 163.477 173.516 163.477H173.315L173.114 163.678C173.516 165.086 174.119 166.494 174.521 167.901C175.326 170.114 175.929 172.326 175.929 174.539C176.13 180.17 175.125 185.399 172.711 190.629C171.102 194.45 168.286 196.864 164.465 198.473C163.459 198.875 162.454 199.076 161.448 199.076C160.443 199.076 159.437 198.875 158.431 198.271C156.822 197.668 155.817 196.662 155.414 195.053C155.213 194.249 155.213 193.444 154.811 192.841C153.604 190.83 153.202 188.819 152.599 186.606C148.978 174.136 142.945 162.873 134.095 153.018C132.687 151.409 131.078 150.001 129.469 148.593C128.665 147.789 127.659 146.984 126.854 146.18C125.447 144.973 123.838 143.766 122.43 142.761C121.826 142.358 121.424 142.157 121.022 142.358C120.619 142.358 120.217 142.559 119.614 142.962C117.804 144.772 115.39 145.979 112.977 147.185C112.172 147.588 111.368 147.789 110.764 148.191C107.345 149.8 103.524 150.806 99.9035 151.811C97.49 152.415 95.2776 152.616 92.864 152.616C90.4505 152.616 88.0371 152.214 85.6235 152.012C84.819 151.811 84.2157 151.811 83.6123 151.811C82.0033 151.811 81.8021 152.415 81.3999 154.627C81.601 159.454 80.9976 163.477 80.1931 167.499ZM82.0032 149.599C82.4055 150.001 83.0089 150.202 83.6123 150.403H83.8134C85.0201 150.605 86.2269 150.806 87.4337 150.806C89.6461 151.007 91.6573 151.007 93.8697 151.007C95.0764 151.007 96.0821 151.007 97.2888 151.007C98.8979 150.806 100.708 150.605 102.518 150.202C103.122 150.001 103.725 149.8 104.127 149.599C104.932 149.197 105.937 148.996 106.943 148.794C109.759 147.99 112.574 146.783 115.189 145.375C115.994 144.973 116.999 144.37 117.804 143.967C118.206 143.766 118.608 143.364 119.01 143.163C119.413 142.761 119.815 142.559 120.016 142.358C122.43 140.548 124.039 137.732 126.05 135.52C127.056 134.313 127.86 133.107 128.061 131.498C128.665 127.877 129.268 124.257 130.072 120.637C131.48 113.798 133.089 107.161 134.497 100.323C135.503 96.0993 136.307 91.8756 137.313 87.6519C138.319 83.4283 139.123 79.2046 140.129 74.981C141.134 70.7573 141.738 66.3326 142.542 62.1089C142.743 61.3044 142.743 60.4999 142.945 59.6954C142.945 58.8908 143.146 58.0864 143.146 57.2819C143.146 57.0807 142.945 56.8796 142.945 56.6785L142.743 56.4773C142.542 56.6784 142.341 56.6785 142.14 56.8796C138.319 60.701 133.894 63.7179 129.067 65.9303C124.441 68.1427 119.815 70.5562 114.988 72.1652C108.351 74.1765 101.714 76.1878 95.0764 78.4001C94.2719 78.6013 93.4675 79.0035 92.663 79.2046C87.4337 80.6125 82.2044 81.8193 76.9751 83.2272C71.5447 84.635 66.1142 85.6407 60.885 87.2497C54.2478 89.261 47.6106 90.4677 40.9735 91.8756C36.5487 92.8812 31.9227 93.6857 27.498 94.6913C26.4923 94.8925 25.0845 94.8925 24.6822 95.8981C24.28 97.1049 25.6879 97.5071 26.2913 98.3116C27.498 99.5184 28.7047 100.524 29.9115 101.731C31.5205 103.139 33.1295 104.547 34.7385 105.954C37.5543 108.569 40.3701 111.385 43.1859 113.999C47.6106 118.223 52.2365 122.246 56.6613 126.469C61.0861 130.693 65.5109 134.917 70.1368 138.939C70.7402 139.543 71.3435 139.945 71.9469 140.548C75.5672 143.364 78.7852 146.582 82.0032 149.599ZM79.3886 70.9584C79.3886 70.5562 79.3886 70.1539 78.9863 70.1539C78.7852 70.1539 78.383 70.355 78.1818 70.7573C77.1762 72.1652 76.9751 73.7742 76.9751 75.7855C77.1762 76.3888 77.1762 77.3945 77.5785 78.4001C78.1819 80.4114 81.1988 80.8136 82.6066 79.2046C84.0145 77.5956 84.2156 75.7855 84.2156 73.7742L83.8134 73.5731C83.4111 73.9753 83.0089 74.3776 82.4055 74.5787C81.1987 75.3832 79.5897 74.5787 79.3886 73.372C79.3886 72.9697 79.1875 72.7686 79.3886 72.3663C79.1875 71.763 79.3886 71.3607 79.3886 70.9584ZM30.9171 89.261C30.5149 89.4621 30.3138 89.6632 30.1126 89.8643C29.5093 90.2666 29.5093 91.0711 30.3138 91.4734C30.9172 91.6745 31.3194 91.8756 31.7216 92.0767C31.7216 92.0767 31.7216 92.0767 31.9228 92.0767C32.5262 91.8756 32.7273 91.8756 33.1295 91.6744C39.1633 90.4677 45.1971 89.4621 51.2309 88.2553C54.2478 87.6519 57.0636 86.6463 59.8793 85.8418C60.0805 85.8418 60.2816 85.4396 60.2816 85.4396C60.2816 85.2384 60.0805 85.0373 59.8793 85.0373C59.8793 85.0373 59.6782 85.0373 59.4771 85.0373C54.6501 84.635 49.6219 84.0316 44.7948 83.8305C43.9903 83.8305 43.3869 83.8305 42.5824 83.8305C40.3701 83.8305 38.1577 84.0317 35.9453 84.0317C35.1408 84.0317 34.5374 84.4339 34.3363 85.2384C33.9341 86.8474 32.7273 88.2553 30.9171 89.261ZM32.325 85.0373C32.325 84.8362 32.325 84.4339 32.1239 84.0317C31.5205 83.026 30.1126 82.4226 29.107 82.8249C27.498 83.4283 25.889 84.4339 25.0845 86.0429C24.4811 87.2497 25.6879 89.0598 27.0957 89.0598C29.107 89.0598 31.9228 86.8474 32.325 85.0373ZM11.0056 97.306C11.609 97.9094 12.4135 98.7139 13.0169 99.3173C15.4304 101.127 18.0451 102.938 20.2575 104.949C23.0732 107.161 25.889 109.575 28.7047 111.988C31.5205 114.402 33.934 117.016 36.7498 119.43C39.3644 121.642 42.1802 123.452 44.7948 125.665C51.6331 131.498 58.6726 137.129 65.712 142.761C67.1199 143.967 68.7289 145.174 70.1368 146.381C72.3492 148.191 75.1649 149.197 77.9807 149.8C78.1818 149.8 78.1819 149.8 78.383 149.8C78.5841 149.8 78.5841 149.8 78.7852 149.8C78.9863 149.8 79.1875 149.398 78.9863 149.197C78.7852 148.794 78.5841 148.392 78.1818 147.99C76.9751 146.783 75.7683 145.777 74.5616 144.571C73.3548 143.565 72.148 142.358 70.9413 141.353C64.9075 135.922 58.8737 130.291 53.041 124.659C47.2084 119.028 41.1746 113.597 35.3419 107.966C31.5205 104.345 27.2968 101.127 23.6766 97.1049C23.0732 96.5015 22.2687 96.0993 21.4642 96.3004C19.8552 96.3004 18.045 96.3004 16.436 96.5015C16.436 96.3004 16.436 96.3004 16.436 96.0992C15.2292 96.0992 14.0225 96.0993 12.8158 96.3004C12.4135 96.3004 11.8101 96.3004 11.4079 96.5015C11.2067 96.5015 11.0056 96.7026 10.8045 96.9037C10.6034 96.7026 10.8045 97.1049 11.0056 97.306ZM17.0394 73.1708C15.0282 74.981 13.0169 76.7911 11.0056 78.6012C10 79.6068 8.99438 80.6125 8.18988 81.8193C7.38538 83.026 6.58086 84.2328 5.97748 85.4396C5.77635 85.6407 5.5752 86.0429 5.5752 86.4452C5.37407 86.8475 5.3741 87.0486 5.17297 87.4508C4.97185 87.8531 4.97183 88.2553 4.97183 88.6575C4.97183 89.0598 4.97183 89.4621 4.97183 89.8643C4.97183 90.0654 5.17297 90.4677 5.17297 90.6688C5.3741 91.4733 5.77631 92.0767 6.37968 92.6801C6.58081 92.8812 6.78198 93.0824 6.98311 93.2835C7.38536 93.4846 7.58649 93.6857 7.98874 93.8868C8.39099 94.088 8.79326 94.088 9.19551 94.088C9.59776 94.088 10 94.088 10.2011 94.2891C10.6034 94.2891 11.0056 94.4903 11.2068 94.4903C13.8214 94.6914 16.4361 94.6913 19.0507 94.6913C21.8665 94.8925 24.4811 94.088 27.2969 93.4846C27.6991 93.4846 28.3025 93.2834 28.3025 92.6801C28.3025 92.2778 27.9002 91.8756 27.498 91.6744C26.8946 91.2722 26.0901 91.0711 25.4867 90.8699C22.8721 89.2609 22.4698 87.2497 24.28 85.0373C24.8834 84.4339 25.4867 83.8305 26.0901 83.2272C26.4924 82.8249 26.4924 82.4226 26.0901 82.0204C23.8777 79.2046 21.6653 76.3888 19.2518 73.5731C18.8496 73.1708 18.4473 72.7686 18.0451 72.7686C17.8439 72.7686 17.6428 72.7686 17.4416 72.9697C17.4416 72.7686 17.2406 72.9697 17.0394 73.1708ZM27.2969 81.2159C27.6991 81.8193 28.3025 82.0204 28.9059 82.0204C29.107 82.0204 29.3081 82.0204 29.7104 81.8193C30.1126 81.6181 30.5149 81.6181 30.9171 81.6181C31.3194 81.6181 31.7216 81.6181 32.1239 81.8193C32.7273 82.0204 33.3307 82.0204 33.934 82.0204C33.934 82.0204 33.9341 82.0204 34.1352 82.0204C37.3532 81.8193 40.5712 81.6181 43.7892 81.6181C47.0072 81.6181 50.2253 81.8193 53.4433 82.0204C57.4659 82.4226 61.6895 82.6238 65.5109 83.8305C65.9132 84.0316 66.5165 84.0317 66.9187 84.0317H67.1199C69.9357 83.6294 72.5503 83.2272 75.1649 82.4227C77.3773 81.8193 77.3773 81.8193 76.3717 79.808C76.1706 79.2046 75.7683 78.6012 75.7683 77.7967C75.5672 76.1877 75.5672 74.5787 75.7683 72.9697C75.7683 72.1652 76.1706 71.1596 76.5729 70.3551C77.3774 68.9472 78.9863 67.9415 80.9976 67.9415C81.1987 67.9415 81.3999 67.9415 81.601 67.9415C83.6123 68.1427 84.819 69.5506 85.4224 71.1596C85.6235 71.763 85.8247 72.5675 85.6235 73.1708C85.6235 74.3776 85.4224 75.7855 85.2213 76.9922C84.6179 78.8024 84.819 79.4058 85.4224 79.4058C85.8247 79.4058 86.428 79.2046 87.2325 79.0035C87.8359 78.8024 88.6404 78.6013 89.2438 78.4001C96.2832 76.1878 103.524 73.9753 110.563 71.7629C112.776 71.1596 114.988 70.355 116.999 69.7517C117.603 69.5505 117.804 68.9472 117.603 68.3438C117.402 67.9416 117.2 67.7404 116.999 67.5393C115.39 64.9246 113.781 62.1089 112.172 59.4942C107.546 51.0469 102.719 42.5996 97.6911 34.5545C96.0821 32.141 94.272 29.7275 92.663 27.314C88.4393 21.2802 84.2156 15.2464 79.3886 9.61488C77.7796 7.80474 75.9695 5.99459 74.1593 4.38558C73.5559 3.7822 72.9526 3.37997 72.148 2.77659C71.9469 2.57547 71.5447 2.3743 71.1424 2.17318C70.9413 2.17318 70.7402 1.97205 70.5391 2.17318C70.1368 2.17318 69.7346 2.37434 69.5334 2.77659C68.5278 5.59236 68.5278 8.4081 68.3267 11.2239C68.1255 13.4363 68.3267 15.8498 68.5278 18.0622C68.7289 20.878 69.1312 23.6937 69.5334 26.7106C69.7346 28.1185 69.7345 29.5264 70.1368 30.7332C70.7402 34.3534 71.5447 37.7726 71.9469 41.1918C72.3492 45.4154 73.1537 49.639 74.5616 53.6616C74.7627 54.0638 74.5616 54.4661 74.5616 55.0695L74.3605 55.2706C74.1593 55.0695 73.9582 54.6672 73.757 54.466C73.3548 53.2593 72.9525 52.8571 71.7458 52.8571C71.3435 52.8571 70.9413 52.8571 70.3379 52.8571C69.5334 52.8571 68.93 53.2593 68.3267 53.4604C62.2929 55.2706 57.0636 58.0864 51.8343 61.3044C51.432 61.5055 51.2309 61.7066 51.0298 61.9078C50.0242 62.7123 49.823 63.3157 50.6275 64.1202C50.8286 64.3213 50.8287 64.5224 51.0298 64.7235C51.0298 64.7235 51.2309 64.9247 51.2309 65.1258C51.2309 65.3269 51.2309 65.7291 51.0298 65.7291C50.8287 65.7291 50.8286 65.7291 50.6275 65.7291C50.4264 65.7291 50.4264 65.7291 50.2253 65.7291C47.0073 62.5111 43.1859 59.8965 39.3645 57.2819C35.3419 54.4661 31.3194 51.8515 27.2969 49.2368C25.4867 48.0301 23.6766 46.8233 21.8664 45.8176C18.8495 44.0075 15.8327 42.3985 12.8158 40.7895C10.8045 39.7838 8.79321 38.7782 6.58083 37.9737C5.77632 37.5715 4.77071 37.3704 3.76508 37.1692C3.76508 37.1692 3.76506 37.1692 3.56393 37.1692C3.16168 36.9681 2.5583 37.5715 2.5583 37.9737C2.5583 38.376 2.5583 38.7782 2.5583 38.9794C2.96056 40.5884 3.56395 41.9962 3.9662 43.6052C5.57523 47.8289 7.18422 51.8514 9.79886 55.6728C9.99998 55.8739 10 56.0751 10.2011 56.4773C10.2011 57.0807 10.4023 57.6841 11.0056 57.6841C11.0056 58.8908 11.4079 59.6953 12.4135 60.4998C12.4135 60.9021 12.6146 61.5055 12.8158 61.9078C13.0169 62.5111 13.4191 63.1145 13.8214 63.7179C17.8439 69.7517 22.4698 75.5844 27.2969 81.2159Z" fill="black"/>
<path d="M11.4082 57.6841C11.4082 57.0807 11.4082 56.4774 10.8049 56.2762C10.6037 56.0751 10.6037 55.6728 10.4026 55.4717C9.79921 53.8627 9.19584 52.0525 8.59246 50.4435C7.78795 48.2311 6.98345 45.8176 6.5812 43.4041C6.5812 42.5996 6.78232 42.1974 7.58683 42.1974C9.19584 42.3985 10.6037 42.8008 12.0116 43.203C16.4364 44.812 20.2578 47.4267 24.0792 50.0413C28.504 53.0582 32.7276 56.2762 36.7502 59.8965C39.3648 62.31 41.5772 65.1258 43.7896 67.7404C43.9907 67.9415 43.9907 68.1427 43.9907 68.3438C43.9907 68.3438 43.9907 68.5449 43.7896 68.5449C43.5885 68.5449 43.3874 68.746 43.3874 68.746C42.9851 68.5449 42.7839 68.3438 42.5828 68.1427C41.9794 67.5393 41.1749 66.7348 40.7727 66.1314C38.158 62.5111 34.7389 59.4942 31.1186 56.6785C26.895 53.4604 22.4702 50.4435 18.0454 47.4266C15.4308 45.6165 12.615 44.6109 9.59809 43.4041C9.39697 43.4041 9.19585 43.203 8.7936 43.4041C8.59247 43.4041 8.19024 43.4041 8.19024 43.6052C7.98912 43.8064 7.78798 44.4098 7.98911 44.812C8.59248 46.6221 8.99471 48.4323 9.59809 50.0413C11.4082 54.4661 13.4195 58.6897 16.0342 62.7122C17.0398 64.1201 18.0454 65.5281 18.4476 67.3382C17.2409 66.7348 16.8387 65.3269 16.2353 64.5224C15.4308 63.5167 14.6263 62.31 13.8218 61.3044C13.6206 60.9021 13.2184 60.4999 13.0173 60.0976C12.8161 59.092 12.4138 58.2875 11.4082 57.6841Z" fill="black"/>
</svg>
