<svg width="205" height="29" viewBox="0 0 205 29" fill="none" xmlns="http://www.w3.org/2000/svg">
<path d="M13.0239 28.1936L21.1543 9.28905H15.4515L10.712 21.3262H10.4423L5.74132 9.28905H0L8.05327 28.1936H13.0239ZM32.4057 28.8109C34.5378 28.8109 36.3425 28.335 37.8195 27.3834C39.2966 26.4317 40.4718 25.1843 41.3452 23.6411L37.1452 21.5577C36.7085 22.355 36.1113 23.0173 35.3535 23.5446C34.5956 24.0719 33.6388 24.3355 32.4828 24.3355C31.892 24.3355 31.314 24.2519 30.7488 24.0847C30.1837 23.9175 29.6635 23.6475 29.1883 23.2745C28.713 22.9016 28.3149 22.4386 27.9938 21.8856C27.6727 21.3326 27.4607 20.6703 27.358 19.8987H41.5764C41.5764 19.7444 41.5893 19.6029 41.615 19.4743C41.615 19.3457 41.6278 19.2043 41.6535 19.05V18.587C41.6535 17.1724 41.448 15.8606 41.037 14.6518C40.626 13.4429 40.0223 12.3948 39.226 11.5074C38.4296 10.6201 37.4406 9.92563 36.259 9.42408C35.0773 8.92253 33.7287 8.67176 32.2131 8.67176C30.7745 8.67176 29.458 8.94182 28.2635 9.48195C27.069 10.0221 26.035 10.7487 25.1616 11.6618C24.2882 12.5748 23.6075 13.6422 23.1194 14.864C22.6313 16.0857 22.3873 17.3781 22.3873 18.7413C22.3873 20.2074 22.6378 21.5513 23.1387 22.773C23.6396 23.9947 24.3396 25.0557 25.2387 25.9559C26.1378 26.8561 27.1974 27.557 28.4176 28.0585C29.6378 28.5601 30.9672 28.8109 32.4057 28.8109ZM36.7599 16.3107H27.6277C27.9617 15.2047 28.5396 14.3431 29.3617 13.7258C30.1837 13.1085 31.1342 12.7999 32.2131 12.7999C32.9837 12.7999 33.6452 12.9156 34.1975 13.1471C34.7498 13.3786 35.2122 13.6744 35.5846 14.0345C35.9571 14.3946 36.2397 14.7804 36.4324 15.1919C36.625 15.6034 36.7342 15.9764 36.7599 16.3107ZM53.2517 28.5022C54.0738 28.5022 54.8251 28.4315 55.5059 28.29C56.1866 28.1486 56.8224 27.9364 57.4132 27.6534L55.9875 23.2167C55.7563 23.371 55.5123 23.4932 55.2554 23.5832C54.9985 23.6732 54.6517 23.7182 54.215 23.7182C53.5472 23.7182 53.0334 23.5124 52.6738 23.1009C52.4169 22.8437 52.2435 22.5286 52.1536 22.1557C52.0637 21.7827 52.0187 21.3777 52.0187 20.9404V13.6101H56.6426V9.28905H52.0187V3.50195H46.971V9.28905H43.6572V13.6101H46.971V21.9049C46.971 24.0397 47.5746 25.6858 48.782 26.8432C49.2957 27.3577 49.9315 27.7627 50.6893 28.0585C51.4471 28.3543 52.3013 28.5022 53.2517 28.5022ZM68.3179 28.8109C69.7564 28.8109 70.9638 28.5279 71.9399 27.9621C72.9161 27.3962 73.6354 26.7146 74.0978 25.9173H74.406V28.1936H79.1455V0.569824H74.0978V8.86466L74.406 11.5653H74.0978C73.6354 10.768 72.9161 10.0864 71.9399 9.52053C70.9638 8.95468 69.7564 8.67176 68.3179 8.67176C67.1105 8.67176 65.961 8.92253 64.8693 9.42408C63.7775 9.92563 62.8142 10.6201 61.9793 11.5074C61.1445 12.3948 60.483 13.4558 59.9949 14.6903C59.5068 15.9249 59.2628 17.2752 59.2628 18.7413C59.2628 20.2074 59.5068 21.5577 59.9949 22.7923C60.483 24.0269 61.1445 25.0878 61.9793 25.9752C62.8142 26.8625 63.7775 27.557 64.8693 28.0585C65.961 28.5601 67.1105 28.8109 68.3179 28.8109ZM69.3583 24.1426C68.6904 24.1426 68.0546 24.014 67.4509 23.7568C66.8472 23.4996 66.3142 23.1395 65.8518 22.6765C65.3894 22.2136 65.017 21.6477 64.7344 20.979C64.4518 20.3103 64.3105 19.5644 64.3105 18.7413C64.3105 17.9183 64.4518 17.1724 64.7344 16.5036C65.017 15.8349 65.3894 15.269 65.8518 14.8061C66.3142 14.3431 66.8472 13.983 67.4509 13.7258C68.0546 13.4686 68.6904 13.34 69.3583 13.34C70.0262 13.34 70.6619 13.4622 71.2656 13.7065C71.8693 13.9509 72.4023 14.3045 72.8647 14.7675C73.3271 15.2305 73.6996 15.7963 73.9822 16.465C74.2647 17.1338 74.406 17.8925 74.406 18.7413C74.406 19.5901 74.2647 20.3488 73.9822 21.0176C73.6996 21.6863 73.3271 22.2521 72.8647 22.7151C72.4023 23.1781 71.8693 23.5317 71.2656 23.7761C70.6619 24.0204 70.0262 24.1426 69.3583 24.1426ZM92.4006 28.8109C94.5328 28.8109 96.3374 28.335 97.8144 27.3834C99.2915 26.4317 100.467 25.1843 101.34 23.6411L97.1401 21.5577C96.7034 22.355 96.1062 23.0173 95.3484 23.5446C94.5906 24.0719 93.6337 24.3355 92.4777 24.3355C91.8869 24.3355 91.3089 24.2519 90.7437 24.0847C90.1786 23.9175 89.6584 23.6475 89.1832 23.2745C88.7079 22.9016 88.3098 22.4386 87.9887 21.8856C87.6676 21.3326 87.4556 20.6703 87.3529 19.8987H101.571C101.571 19.7444 101.584 19.6029 101.61 19.4743C101.61 19.3457 101.623 19.2043 101.648 19.05V18.587C101.648 17.1724 101.443 15.8606 101.032 14.6518C100.621 13.4429 100.017 12.3948 99.2209 11.5074C98.4245 10.6201 97.4355 9.92563 96.2539 9.42408C95.0722 8.92253 93.7236 8.67176 92.208 8.67176C90.7694 8.67176 89.4529 8.94182 88.2584 9.48195C87.0639 10.0221 86.0299 10.7487 85.1565 11.6618C84.2831 12.5748 83.6024 13.6422 83.1143 14.864C82.6263 16.0857 82.3822 17.3781 82.3822 18.7413C82.3822 20.2074 82.6327 21.5513 83.1336 22.773C83.6345 23.9947 84.3345 25.0557 85.2336 25.9559C86.1327 26.8561 87.1923 27.557 88.4125 28.0585C89.6327 28.5601 90.9621 28.8109 92.4006 28.8109ZM96.7548 16.3107H87.6226C87.9566 15.2047 88.5346 14.3431 89.3566 13.7258C90.1786 13.1085 91.1291 12.7999 92.208 12.7999C92.9786 12.7999 93.6401 12.9156 94.1924 13.1471C94.7447 13.3786 95.2071 13.6744 95.5796 14.0345C95.952 14.3946 96.2346 14.7804 96.4273 15.1919C96.6199 15.6034 96.7291 15.9764 96.7548 16.3107ZM109.933 28.1936V18.9342C109.933 18.1626 110.042 17.4489 110.26 16.793C110.479 16.1371 110.787 15.5648 111.185 15.0761C111.583 14.5875 112.065 14.2081 112.63 13.938C113.195 13.668 113.825 13.5329 114.518 13.5329C115.058 13.5329 115.514 13.5779 115.886 13.668C116.259 13.758 116.599 13.8801 116.907 14.0345L118.256 9.44337C117.922 9.23761 117.517 9.07043 117.042 8.94182C116.567 8.81322 115.995 8.74892 115.327 8.74892C114.788 8.74892 114.242 8.82608 113.69 8.9804C113.137 9.13473 112.624 9.35335 112.148 9.63628C111.673 9.9192 111.243 10.2536 110.858 10.6394C110.472 11.0252 110.164 11.4496 109.933 11.9125H109.625V9.28905H104.885V28.1936H109.933ZM125.616 28.1936V19.0114C125.616 18.214 125.705 17.4681 125.885 16.7737C126.065 16.0792 126.322 15.4812 126.656 14.9797C126.99 14.4781 127.401 14.0795 127.889 13.7837C128.377 13.4879 128.942 13.34 129.584 13.34C131.794 13.34 132.898 14.626 132.898 17.1981V28.1936H137.946V19.0114C137.946 18.214 138.042 17.4681 138.235 16.7737C138.428 16.0792 138.697 15.4812 139.044 14.9797C139.391 14.4781 139.821 14.0795 140.335 13.7837C140.849 13.4879 141.439 13.34 142.107 13.34C144.214 13.34 145.267 14.626 145.267 17.1981V28.1936H150.315V16.2721C150.315 15.1662 150.174 14.1438 149.891 13.205C149.608 12.2662 149.191 11.4624 148.639 10.7937C148.086 10.125 147.386 9.60413 146.539 9.23118C145.691 8.85823 144.689 8.67176 143.533 8.67176C141.992 8.67176 140.682 9.01256 139.603 9.69415C138.524 10.3757 137.689 11.1924 137.098 12.144C136.687 11.1666 135.994 10.3436 135.017 9.67486C134.041 9.00613 132.834 8.67176 131.395 8.67176C130.162 8.67176 129.038 8.95468 128.024 9.52053C127.009 10.0864 126.206 10.8323 125.616 11.7582H125.307V9.28905H120.568V28.1936H125.616ZM157.52 28.425C158.445 28.425 159.229 28.0971 159.871 27.4412C160.513 26.7854 160.834 25.9945 160.834 25.0685C160.834 24.1426 160.513 23.3581 159.871 22.7151C159.229 22.0721 158.445 21.7506 157.52 21.7506C156.596 21.7506 155.806 22.0721 155.151 22.7151C154.496 23.3581 154.168 24.1426 154.168 25.0685C154.168 25.9945 154.496 26.7854 155.151 27.4412C155.806 28.0971 156.596 28.425 157.52 28.425ZM173.781 28.8109C175.913 28.8109 177.718 28.335 179.195 27.3834C180.672 26.4317 181.847 25.1843 182.721 23.6411L178.52 21.5577C178.084 22.355 177.487 23.0173 176.729 23.5446C175.971 24.0719 175.014 24.3355 173.858 24.3355C173.267 24.3355 172.689 24.2519 172.124 24.0847C171.559 23.9175 171.039 23.6475 170.564 23.2745C170.088 22.9016 169.69 22.4386 169.369 21.8856C169.048 21.3326 168.836 20.6703 168.733 19.8987H182.952C182.952 19.7444 182.965 19.6029 182.99 19.4743C182.99 19.3457 183.003 19.2043 183.029 19.05V18.587C183.029 17.1724 182.823 15.8606 182.412 14.6518C182.001 13.4429 181.398 12.3948 180.601 11.5074C179.805 10.6201 178.816 9.92563 177.634 9.42408C176.453 8.92253 175.104 8.67176 173.588 8.67176C172.15 8.67176 170.833 8.94182 169.639 9.48195C168.444 10.0221 167.41 10.7487 166.537 11.6618C165.664 12.5748 164.983 13.6422 164.495 14.864C164.007 16.0857 163.763 17.3781 163.763 18.7413C163.763 20.2074 164.013 21.5513 164.514 22.773C165.015 23.9947 165.715 25.0557 166.614 25.9559C167.513 26.8561 168.573 27.557 169.793 28.0585C171.013 28.5601 172.342 28.8109 173.781 28.8109ZM178.135 16.3107H169.003C169.337 15.2047 169.915 14.3431 170.737 13.7258C171.559 13.1085 172.509 12.7999 173.588 12.7999C174.359 12.7999 175.02 12.9156 175.573 13.1471C176.125 13.3786 176.587 13.6744 176.96 14.0345C177.332 14.3946 177.615 14.7804 177.808 15.1919C178 15.6034 178.109 15.9764 178.135 16.3107ZM193.201 28.8109C194.486 28.8109 195.629 28.5344 196.631 27.9814C197.633 27.4284 198.429 26.6761 199.02 25.7244H199.328V28.1936H204.067V9.28905H199.02V18.5484C199.02 19.32 198.923 20.0466 198.731 20.7282C198.538 21.4098 198.255 22.0014 197.883 22.5029C197.511 23.0045 197.061 23.4031 196.534 23.6989C196.008 23.9947 195.398 24.1426 194.704 24.1426C193.548 24.1426 192.668 23.8147 192.065 23.1588C191.461 22.5029 191.159 21.4934 191.159 20.1302V9.28905H186.111V20.7475C186.111 23.1909 186.696 25.1457 187.865 26.6118C189.033 28.0778 190.812 28.8109 193.201 28.8109Z" fill="#52B36E"/>
</svg>
