<svg width="68" height="18" viewBox="0 0 68 18" fill="none" xmlns="http://www.w3.org/2000/svg">
<g clip-path="url(#clip0)">
<path d="M8.10567 0.00109196H2.85183C2.49225 0.00109196 2.18652 0.262358 2.13042 0.617389L0.0055171 14.0896C-0.0367456 14.3554 0.169183 14.5951 0.438788 14.5951H2.94706C3.30658 14.5951 3.6123 14.3339 3.6684 13.9783L4.24149 10.3446C4.29683 9.98885 4.60331 9.72763 4.96208 9.72763H6.62529C10.0861 9.72763 12.0835 8.05291 12.6052 4.73419C12.8402 3.28224 12.6151 2.14146 11.9352 1.34252C11.1885 0.465117 9.86411 0.00109196 8.10567 0.00109196ZM8.71182 4.92166C8.42449 6.80689 6.98406 6.80689 5.59126 6.80689H4.79848L5.35465 3.28613C5.38772 3.07331 5.57204 2.9166 5.78718 2.9166H6.15051C7.09926 2.9166 7.99429 2.9166 8.45673 3.45737C8.73254 3.78007 8.81706 4.25941 8.71182 4.92166Z" fill="#283B82"/>
<path d="M23.8098 4.86105H21.294C21.0797 4.86105 20.8945 5.01778 20.8614 5.23059L20.7501 5.93427L20.5741 5.67919C20.0295 4.88867 18.8148 4.62445 17.6026 4.62445C14.8225 4.62445 12.4479 6.73013 11.9854 9.68394C11.745 11.1574 12.0868 12.5663 12.9226 13.5488C13.6893 14.4522 14.7863 14.8287 16.0916 14.8287C18.3317 14.8287 19.574 13.3883 19.574 13.3883L19.4618 14.0874C19.4194 14.3547 19.6254 14.5944 19.8936 14.5944H22.1597C22.52 14.5944 22.8242 14.3332 22.8811 13.9776L24.2408 5.36652C24.2839 5.10148 24.0788 4.86105 23.8098 4.86105ZM20.3029 9.75771C20.0603 11.195 18.9194 12.16 17.4644 12.16C16.7339 12.16 16.1499 11.9256 15.775 11.4816C15.4032 11.0406 15.2619 10.413 15.3802 9.71387C15.6068 8.28884 16.7669 7.29251 18.1995 7.29251C18.9141 7.29251 19.4948 7.52986 19.8774 7.97766C20.2608 8.43015 20.4127 9.06165 20.3029 9.75771Z" fill="#283B82"/>
<path d="M37.2102 4.861H34.682C34.4408 4.861 34.2142 4.98085 34.0774 5.1814L30.5904 10.3177L29.1124 5.38188C29.0195 5.07301 28.7345 4.861 28.4118 4.861H25.9274C25.6254 4.861 25.4158 5.15598 25.5118 5.44023L28.2966 13.6126L25.6785 17.3085C25.4725 17.5996 25.6799 18 26.0358 18H28.5609C28.8005 18 29.0249 17.8832 29.1609 17.6865L37.5697 5.54861C37.771 5.25816 37.5644 4.861 37.2102 4.861Z" fill="#283B82"/>
<path d="M45.5822 0.00108337H40.3276C39.9689 0.00108337 39.6631 0.262349 39.607 0.61738L37.4821 14.0896C37.4399 14.3554 37.6457 14.5951 37.9139 14.5951H40.6103C40.8607 14.5951 41.0752 14.4123 41.1143 14.1634L41.7173 10.3446C41.7726 9.98884 42.0792 9.72762 42.4379 9.72762H44.1004C47.5619 9.72762 49.5586 8.0529 50.0809 4.73419C50.3169 3.28223 50.0902 2.14145 49.4103 1.34251C48.6643 0.465109 47.3407 0.00108337 45.5822 0.00108337ZM46.1884 4.92165C45.9018 6.80688 44.4615 6.80688 43.0678 6.80688H42.2759L42.8328 3.28612C42.8659 3.0733 43.0486 2.91659 43.2645 2.91659H43.6279C44.5759 2.91659 45.4716 2.91659 45.934 3.45736C46.2099 3.78006 46.2936 4.25941 46.1884 4.92165Z" fill="#469BDB"/>
<path d="M61.2842 4.86105H58.7698C58.5539 4.86105 58.3702 5.01778 58.338 5.23059L58.2266 5.93427L58.05 5.67919C57.5053 4.88867 56.2915 4.62445 55.0793 4.62445C52.299 4.62445 49.9253 6.73013 49.4627 9.68394C49.2231 11.1574 49.5634 12.5663 50.3993 13.5488C51.1675 14.4522 52.2629 14.8287 53.5681 14.8287C55.8082 14.8287 57.0505 13.3883 57.0505 13.3883L56.9383 14.0874C56.8961 14.3547 57.1019 14.5944 57.3717 14.5944H59.6371C59.9959 14.5944 60.3017 14.3332 60.3578 13.9776L61.7183 5.36652C61.7596 5.10148 61.5538 4.86105 61.2842 4.86105ZM57.7772 9.75771C57.536 11.195 56.3936 12.16 54.9387 12.16C54.2096 12.16 53.6242 11.9256 53.2493 11.4816C52.8776 11.0406 52.7377 10.413 52.8545 9.71387C53.0826 8.28884 54.2411 7.29251 55.6739 7.29251C56.3883 7.29251 56.969 7.52986 57.3516 7.97766C57.7365 8.43015 57.8886 9.06165 57.7772 9.75771Z" fill="#469BDB"/>
<path d="M64.2518 0.370703L62.0953 14.0896C62.0532 14.3554 62.259 14.5951 62.5271 14.5951H64.695C65.0553 14.5951 65.3612 14.3339 65.4165 13.9783L67.5428 0.506784C67.5851 0.240871 67.3793 0.000445366 67.1112 0.000445366H64.6835C64.4692 0.00108624 64.2848 0.158005 64.2518 0.370703Z" fill="#469BDB"/>
</g>
<defs>
<clipPath id="clip0">
<rect width="67.5473" height="18" fill="white"/>
</clipPath>
</defs>
</svg>
