<svg width="64" height="64" viewBox="0 0 64 64" fill="none" xmlns="http://www.w3.org/2000/svg">
<path d="M61.2168 23.1214C61.1723 20.5848 61.1723 18.0036 61.1723 15.467C61.1723 15.2445 61.0388 15.111 60.8608 15.022C57.1227 13.4645 53.2065 12.3519 49.1568 12.0849C45.1962 11.7734 41.1465 12.3074 37.4529 13.954C35.5393 14.7995 33.8037 16.0011 32.2461 17.3806C31.7121 16.8466 30.5551 16.6241 29.932 16.4016C25.3484 14.7995 20.4087 14.0875 15.4689 14.3545C12.9768 14.488 10.4847 14.8885 8.03714 15.5115C6.12356 16.0456 4.25448 16.7131 2.4299 17.5141C2.16289 17.6476 1.89589 17.7366 1.67338 17.9146C1.22836 18.2707 1.05035 18.8047 1.00585 19.3387C0.96135 20.0507 1.18386 20.7628 1.22836 21.4303C1.27286 22.1868 1.31736 22.9879 1.36186 23.7444C1.49537 25.6135 1.58438 27.438 1.67338 29.3071C1.85139 33.0008 2.02939 36.7389 2.20739 40.4326C2.2964 42.3461 2.3409 44.3042 2.4299 46.2178C2.51891 48.7989 2.60791 51.4245 2.65241 54.0056C2.65241 54.3171 3.14194 54.5397 3.40895 54.4062C10.5737 51.1575 18.7176 49.7335 26.7724 50.3565C29.1755 50.5345 31.5341 50.9795 33.8927 51.469C34.0707 51.5135 34.2487 51.5135 34.3822 51.469C34.5157 51.5135 34.6492 51.558 34.7827 51.469C38.2094 49.6445 41.7695 47.9534 45.5967 47.1078C49.1568 46.3513 52.9395 46.3513 56.4996 47.1969C58.5467 47.6864 60.5048 48.5319 62.3294 49.5554C62.5964 49.689 63.0414 49.5109 62.9969 49.1549C62.5519 44.7938 62.1514 40.3881 61.8399 35.9824C61.5283 31.7992 61.3058 27.438 61.2168 23.1214ZM28.419 49.6C26.5054 49.3774 24.5473 49.2884 22.6337 49.2884C18.7621 49.3329 14.8904 49.778 11.1523 50.7125C10.5737 50.846 10.0397 50.9795 9.4612 51.1575C7.50312 51.736 5.58953 52.4036 3.76496 53.2046C3.54245 44.3487 3.18644 35.4484 2.69692 26.5925C2.56341 24.0559 2.3854 21.5193 2.20739 18.9827C2.20739 18.9382 2.2074 18.8492 2.2519 18.8047C2.2964 18.7157 2.3854 18.6712 2.47441 18.6712C9.19418 15.6896 16.537 14.5325 23.9243 15.8231C24.3693 15.9121 24.9033 16.0901 25.3483 16.0901C27.4399 16.5351 29.487 17.2471 31.4451 18.0481C32.0681 26.548 32.7357 35.0034 33.3587 43.5032C33.5367 45.8618 33.7147 48.1759 33.8037 50.5345C32.2016 49.9115 30.1546 49.778 28.419 49.6ZM51.8714 45.7728C49.9579 45.7283 48.0443 45.8173 46.1307 46.1733C44.3061 46.5293 42.5261 47.0634 40.746 47.7309C38.6544 48.5319 36.6963 49.5109 34.7382 50.579C34.7382 49.7335 34.7382 48.9324 34.7382 48.0869C34.6492 45.7283 34.4712 43.4142 34.2487 41.0556C33.8927 36.2049 33.5367 31.3542 33.1362 26.5035C32.9137 23.7889 32.7357 21.0298 32.5576 18.3152C35.4058 15.6896 38.9214 13.954 42.7486 13.242C46.5757 12.5299 50.5364 12.8859 54.319 13.776C56.3661 14.2655 58.3687 14.933 60.2823 15.7341C60.2378 20.0952 60.2823 24.4564 60.5048 28.7731C60.6828 33.0898 60.9943 37.3619 61.3948 41.6786C61.5728 43.9037 61.7954 46.1733 62.0179 48.3984C58.9027 46.7963 55.4761 45.8618 51.8714 45.7728Z" fill="#23443C" stroke="#23443C"/>
<path d="M36.3865 22.4546C36.4755 22.2321 36.52 21.9651 36.5645 21.7426C36.8315 21.9651 37.143 22.0986 37.499 22.1431C37.766 22.1876 37.944 22.0986 38.033 21.8316C38.0775 21.7426 38.122 21.6091 38.122 21.5201C38.3446 21.6536 38.5671 21.6981 38.8341 21.6981C39.1456 21.6536 39.4571 21.5201 39.7241 21.3421C39.7241 21.3421 39.7241 21.3421 39.7686 21.3421C40.3471 21.5646 41.0147 21.3421 41.3707 20.8971C41.5487 21.1196 41.7267 21.2976 41.8602 21.5201C41.9937 21.6981 42.3497 21.6981 42.4832 21.5201C42.6612 21.2976 42.7947 21.0751 42.9282 20.8081C43.0172 20.8971 43.0617 21.0306 43.1507 21.1196C43.4623 21.6091 44.2188 21.1641 43.9073 20.6746C43.9073 20.6301 43.8628 20.6301 43.8628 20.5856C44.0853 20.7636 44.2633 20.9416 44.4858 21.1196C44.7528 21.3421 45.1533 21.0306 45.1533 20.7191C45.1533 20.4966 45.1978 20.3186 45.2868 20.1406C45.5539 20.5856 45.9099 21.0306 46.2214 21.4311C46.3104 21.5201 46.5329 21.6091 46.6664 21.5646C46.9779 21.4311 47.2004 21.2531 47.3784 20.9861C47.6009 21.0751 47.8679 21.1196 48.135 21.0751C48.8915 20.9861 49.381 20.4966 49.737 19.918C50.004 20.0961 50.3155 20.1406 50.5826 20.096C50.6716 20.3186 50.8496 20.4521 51.0721 20.5411C51.3836 20.6746 51.7396 20.5856 52.0066 20.4521C52.1401 20.5411 52.2736 20.6746 52.4071 20.7636C52.5851 20.8971 52.8522 20.9416 53.0302 20.7636C53.1637 20.6301 53.2082 20.2741 53.0302 20.1406C52.7631 19.9625 52.5406 19.74 52.2736 19.562C52.0511 19.384 51.6951 19.384 51.5616 19.651C51.4726 19.7845 51.2946 19.829 51.3391 19.651C51.4726 19.206 50.9386 18.939 50.5826 19.206C50.3601 19.384 50.1375 19.2505 50.1375 19.028C50.182 18.939 50.2266 18.85 50.2266 18.7165C50.4046 18.227 49.6925 17.96 49.4255 18.3605C49.3365 18.494 49.2475 18.672 49.2475 18.85C49.0695 19.384 48.8025 19.8735 48.313 20.096C48.0905 20.1851 47.8679 20.2296 47.6454 20.1406C47.6454 19.7845 47.5564 19.4285 47.2894 19.117C47.1114 18.8945 46.7109 18.939 46.5774 19.206C46.3549 19.651 46.4439 20.0961 46.6664 20.4521C46.6664 20.4966 46.6219 20.4966 46.6219 20.5411C46.2659 20.096 45.9989 19.651 45.7319 19.206C45.6429 18.9835 45.3313 18.939 45.1088 19.028C44.7973 19.2505 44.5303 19.562 44.3523 19.918C44.0408 19.6065 43.7293 19.295 43.4623 18.939C43.2398 18.6275 42.7947 18.672 42.6612 19.028C42.3497 18.939 42.0382 19.206 42.1272 19.562C42.2162 19.8735 42.1717 20.1406 42.0827 20.4521C41.9047 20.2296 41.7267 20.007 41.5487 19.829C41.5042 19.7845 41.5042 19.74 41.4597 19.6955C41.3707 19.473 41.1927 19.295 40.9702 19.1615C40.8367 19.0725 40.7477 18.9835 40.5696 18.939C40.1691 18.85 39.9021 19.028 39.6796 19.295C39.5016 19.1615 39.1456 19.2505 39.0566 19.4285C38.7896 19.8735 38.7896 20.3631 39.0121 20.7636C38.9231 20.8081 38.8341 20.8526 38.7451 20.8526C38.5671 20.8526 38.3891 20.7636 38.3001 20.6301C38.3446 20.4076 38.3446 20.1406 38.3446 19.918C38.3446 19.473 37.7215 19.3395 37.499 19.6955C37.321 20.007 37.2765 20.3631 37.3655 20.6746C37.321 20.8526 37.2765 21.0306 37.232 21.2086C36.876 21.0306 36.609 20.7191 36.52 20.2741C36.431 19.7845 35.6299 19.8735 35.6299 20.4076C35.6744 20.8081 35.6299 21.2086 35.5409 21.6091C35.4964 21.5646 35.4519 21.5201 35.4074 21.5201C35.2294 21.3866 34.9179 21.4756 34.7844 21.6981C34.6509 21.9206 34.7399 22.1431 34.9624 22.3211C35.1849 22.4991 35.4074 22.6327 35.6299 22.8107C35.986 22.8997 36.2975 22.7217 36.3865 22.4546ZM40.2136 20.3186V20.2741C40.2136 20.1406 40.3026 20.007 40.3471 19.918C40.3916 19.918 40.4361 19.8735 40.4806 19.8735C40.5251 19.918 40.5696 20.007 40.6142 20.0515C40.6142 20.096 40.6587 20.0961 40.6587 20.1406C40.6587 20.2296 40.6587 20.3186 40.6142 20.3631C40.5251 20.5856 40.3471 20.6301 40.1246 20.5856C40.2136 20.4521 40.2136 20.3631 40.2136 20.3186Z" fill="#23443C"/>
<path d="M37.3203 27.8392C37.2313 27.3942 37.0978 26.9936 36.9643 26.5486C36.9643 26.4596 36.9643 26.3706 36.9643 26.2816C36.9643 26.2816 37.0088 26.1481 37.0088 26.0591C37.0978 26.1036 37.2758 26.1926 37.2758 26.1926C37.4093 26.2816 37.4983 26.3706 37.5873 26.4596C37.7654 26.6821 37.8989 26.9491 37.9434 27.2162C38.0324 27.6167 38.5664 27.6167 38.7444 27.3052C38.8334 27.1717 38.9224 26.9936 39.0114 26.8156C39.1449 26.8601 39.3229 26.8601 39.5009 26.8156C40.1685 26.6376 40.6135 25.7031 40.4355 25.0356C40.3465 24.6796 39.9459 24.4125 39.5899 24.4125C39.2339 24.4125 38.8779 24.5905 38.6109 24.8576C38.3884 25.0801 38.2104 25.4361 38.1659 25.7476C38.1214 25.7031 38.1214 25.7031 38.0769 25.6586C37.7209 25.3026 37.1868 24.9466 36.6528 25.0801C36.5193 25.1246 36.4303 25.1691 36.3858 25.2136C36.2078 24.8576 35.9408 24.3235 35.4513 24.5905C35.0508 24.8131 35.1843 25.3916 35.5403 25.5251C35.5403 25.5251 35.5403 25.5696 35.5848 25.5696C35.6293 25.6586 35.6738 25.7921 35.7183 25.8811C35.8073 26.1036 35.8963 26.3261 35.9853 26.5486V26.5931C36.0298 27.1272 36.1633 27.6167 36.4303 28.0617C36.7863 28.6402 37.4539 28.3287 37.3203 27.8392ZM39.4119 25.4361C39.4564 25.3916 39.5899 25.3471 39.6344 25.3916C39.5899 25.3471 39.6344 25.4361 39.6344 25.4806C39.5899 25.6586 39.5454 25.7921 39.4564 25.9256C39.4119 25.8366 39.3674 25.7921 39.3229 25.7476C39.3229 25.7031 39.2784 25.6586 39.2784 25.6141C39.2784 25.5696 39.3229 25.4806 39.4119 25.4361Z" fill="#23443C"/>
<path d="M52.8073 24.2345C52.5848 23.9674 52.2732 23.7894 51.9172 23.8784C51.5612 23.9674 51.4277 24.368 51.4277 24.6795V24.724C51.3832 24.5905 51.3387 24.5015 51.2497 24.4125C51.0272 24.1899 50.6267 24.1454 50.4042 24.4125C50.1817 24.6795 50.1372 25.2135 50.1372 25.5695C50.1372 25.7475 50.1817 25.9255 50.2707 26.1035C50.1372 25.97 50.0037 25.792 49.9146 25.6585C49.7366 25.3915 49.6031 25.08 49.4696 24.7685C49.3361 24.368 48.7131 24.3235 48.6241 24.7685C48.5796 24.902 48.5351 24.991 48.5351 25.1245C48.5351 25.08 48.4906 25.0355 48.4906 25.0355C48.2681 24.724 48.0011 24.4125 47.5561 24.4125C47.4226 24.4125 47.2445 24.457 47.1555 24.546C47.0665 24.3235 46.755 24.279 46.5325 24.368C46.31 24.5015 46.2655 24.7685 46.3545 24.991C46.5325 25.436 46.6215 25.9255 46.6215 26.3705C46.6215 26.8601 47.4225 26.9936 47.5116 26.5041C47.5116 26.4595 47.5116 26.415 47.5116 26.3705C47.5116 26.326 47.5116 26.326 47.5116 26.2815C47.5116 26.1035 47.5116 25.9255 47.5116 25.703C47.5116 25.5695 47.5115 25.436 47.6005 25.3025C47.645 25.347 47.6451 25.347 47.6896 25.3915C47.7786 25.4805 47.8231 25.5695 47.9121 25.703C48.0456 25.9255 48.1346 26.148 48.2236 26.3705C48.3126 26.6821 48.8466 26.8601 49.0246 26.4595C49.0691 26.326 49.1136 26.237 49.1581 26.1035C49.3361 26.415 49.5586 26.6821 49.8256 26.8601C50.2262 27.1271 50.6712 27.1271 51.0272 26.9491C51.1162 26.9936 51.2497 27.0381 51.3832 27.0826C52.0507 27.2161 52.6293 26.8601 52.8963 26.237C52.9408 26.148 52.9408 26.1035 52.9853 26.0145C53.3413 25.97 53.6528 25.792 53.9198 25.5695C53.9643 25.6585 54.0088 25.792 54.0533 25.881C54.2313 26.237 54.4093 26.593 54.7653 26.7711C55.1659 26.9936 55.5219 26.8156 55.8334 26.5931C55.9224 26.504 56.0114 26.4595 56.1004 26.3705C56.1004 26.504 56.1894 26.6376 56.3229 26.7266C56.5009 26.8601 56.8124 26.7711 56.9459 26.5485C57.1684 26.1035 57.1685 25.614 56.9014 25.169C56.7679 24.9465 56.4119 24.8575 56.1894 25.08C56.0114 25.3025 55.7889 25.4805 55.5664 25.6585C55.4329 25.7475 55.3439 25.8365 55.2104 25.97C55.2104 25.97 55.2104 25.97 55.1659 26.0145L55.1214 25.97C55.0769 25.881 54.9879 25.7475 54.9434 25.6585C54.8543 25.525 54.8098 25.3915 54.7653 25.258C54.6318 24.991 54.5873 24.724 54.4983 24.457C54.4093 24.0119 53.7418 24.0564 53.6528 24.457C53.5638 24.724 53.3858 24.991 53.1633 25.1245C53.0298 24.6795 52.9408 24.4125 52.8073 24.2345ZM51.8282 26.1035C51.7392 26.148 51.6057 26.148 51.4722 26.1035C51.5167 25.881 51.5167 25.614 51.5167 25.3915C51.5167 25.258 51.5167 25.1245 51.5167 24.991C51.6057 25.3025 51.8282 25.5695 52.0952 25.703C52.0062 25.881 51.9617 26.0145 51.8282 26.1035ZM52.0952 24.724C52.0507 24.724 52.0507 24.724 52.0952 24.724V24.724Z" fill="#23443C"/>
<path d="M37.276 32.6893C37.365 32.8228 37.4985 32.9563 37.632 33.0453C37.9881 33.2678 38.5221 33.3568 38.8781 33.0453C39.5011 32.5113 39.0116 31.6213 38.4331 31.0427H38.4776C39.0561 30.9537 39.4121 31.5768 39.5456 32.0663C39.6346 32.5113 40.3022 32.4668 40.3912 32.0663C40.5247 31.6658 40.3911 31.3098 40.4802 30.9092C40.4802 30.8202 40.5247 30.7757 40.5692 30.7312C40.8807 31.0872 41.0587 31.6213 41.5482 31.8438C41.9042 31.9773 42.2157 31.8883 42.5272 31.7103C42.7052 31.8883 42.9278 32.0218 43.1948 32.1108C43.7288 32.2888 44.2628 32.1108 44.6633 31.7548C45.1529 32.1108 45.8649 32.0663 46.2654 31.5768C46.6214 31.1317 45.9984 30.5087 45.6424 30.9537C45.4644 31.1317 45.2864 31.0872 45.1974 30.9982C45.2864 30.7312 45.3309 30.4642 45.3309 30.1972C45.2864 29.8857 44.8413 29.5297 44.5743 29.8857C44.3518 30.1972 44.2183 30.5532 44.2628 30.9092C44.0848 31.1762 43.8178 31.3543 43.4618 31.2653C43.3283 31.2207 43.1948 31.1317 43.1058 31.0427C43.1503 30.9537 43.1503 30.9092 43.1948 30.8202C43.3728 30.2417 43.5508 29.2182 42.7943 28.9957C42.6162 28.9512 42.3492 29.0402 42.3047 29.2182C42.0377 29.7967 41.8597 30.3752 42.0822 30.9982C42.0377 30.9982 42.0377 31.0427 41.9932 31.0427C41.8597 31.0872 41.7707 30.9537 41.7262 30.8202C41.5927 30.6422 41.5037 30.4197 41.3257 30.2417C41.0142 29.8412 40.4357 29.7077 40.0351 30.0637C39.8571 30.1972 39.7681 30.3752 39.7236 30.5977C39.4121 30.3307 39.0116 30.1527 38.5666 30.1972C38.2106 30.2417 37.899 30.3752 37.632 30.5532C37.2315 30.4197 36.7865 30.4642 36.564 30.8647C36.2525 31.3988 36.386 32.1108 36.653 32.6003C36.742 32.9118 37.098 32.9118 37.276 32.6893ZM42.3937 29.7967C42.2157 29.7077 42.4382 29.7522 42.3937 29.7967V29.7967ZM38.1216 32.1553C38.1661 32.1998 38.1661 32.2443 38.2106 32.3333C38.2106 32.3778 38.2106 32.3778 38.2551 32.4223C38.2106 32.4223 38.1661 32.3778 38.1661 32.3778C38.0771 32.3333 37.9881 32.2443 37.9436 32.1553C37.8991 32.0218 37.8545 31.9328 37.8545 31.7993C37.9436 31.8883 38.0326 31.9773 38.1216 32.1553Z" fill="#23443C"/>
<path d="M43.9044 24.6351C43.5484 24.3681 43.1034 24.1456 42.6583 24.3236C42.3468 24.4571 42.2578 24.7686 42.2578 25.0801C42.2578 25.3472 42.3023 25.6142 42.3468 25.8812C42.3913 26.1037 42.6583 26.2817 42.8808 26.1927C42.8808 26.1927 42.8808 26.1927 42.9253 26.1927C43.0143 26.3707 43.1478 26.5042 43.3704 26.5932C43.5484 26.6377 43.7264 26.6377 43.8599 26.5932C44.2604 26.4597 44.5274 26.1482 44.5274 25.7477C44.5274 25.2582 44.2159 24.9021 43.9044 24.6351ZM43.1924 25.5697C43.1924 25.5697 43.1924 25.5252 43.1924 25.4807C43.1924 25.3917 43.1924 25.3027 43.1924 25.1692C43.2369 25.2137 43.2814 25.2137 43.3259 25.2582C43.4149 25.3472 43.5039 25.4362 43.5929 25.5252C43.6374 25.5697 43.6374 25.6142 43.6819 25.6587V25.7032C43.5039 25.5697 43.3704 25.4807 43.1924 25.5697ZM43.6819 25.7922C43.7264 25.7922 43.7264 25.7922 43.6819 25.7922C43.6819 25.8367 43.7264 25.8367 43.7264 25.8367C43.7264 25.8367 43.7264 25.7922 43.6819 25.7922Z" fill="#23443C"/>
<path d="M54.9437 21.875C55.0772 21.875 55.2552 21.875 55.3887 21.875C55.6112 21.875 55.7893 21.697 55.8338 21.519C56.1453 21.519 56.4568 21.3855 56.7238 21.163C56.8128 21.074 56.9018 20.985 56.9463 20.896C57.0798 20.9405 57.1688 20.9405 57.3023 20.8514C57.4803 20.7179 57.6138 20.4509 57.4803 20.2284C57.3023 20.0059 57.1688 19.7389 56.9908 19.5164C56.9908 19.4719 56.9463 19.4719 56.9463 19.4274C56.8128 19.2494 56.5013 19.2494 56.3678 19.3829C56.1898 19.5164 56.1453 19.7834 56.2343 19.9614C56.2343 20.0059 56.2788 20.0059 56.2788 20.0504V20.0949C56.2788 20.1394 56.2788 20.1394 56.2788 20.1839C56.2788 20.2284 56.2788 20.2284 56.2788 20.2729C56.2343 20.3174 56.2343 20.3619 56.1898 20.4064C56.1898 20.4064 56.1453 20.4509 56.1453 20.4954L56.1008 20.5399C56.0563 20.5399 56.0563 20.5844 56.0118 20.5844C56.0118 20.5844 56.0118 20.5844 55.9673 20.5844C55.9228 20.5844 55.9228 20.5844 55.8783 20.5844H55.8338H55.7893C55.7893 20.5844 55.7893 20.5844 55.7448 20.5844H55.7003H55.6558C55.6112 20.5844 55.6113 20.5399 55.5668 20.5399L55.5223 20.4954L55.4777 20.4509C55.4777 20.4509 55.4777 20.4509 55.4777 20.4064C55.4777 20.3619 55.4332 20.3619 55.4332 20.3174C55.4332 20.3174 55.4332 20.2729 55.4332 20.2284C55.4777 20.2284 55.5223 20.1839 55.5668 20.1839C55.8338 20.0504 55.8338 19.6944 55.7003 19.4719C55.5667 19.2939 55.3887 19.1604 55.1662 19.1604C54.7212 19.1159 54.5432 19.5609 54.4987 19.9169C54.4987 19.9614 54.4987 20.0059 54.4987 20.0504C54.4542 20.1394 54.4542 20.1839 54.4097 20.2729C54.2762 20.7179 54.4097 21.163 54.5877 21.5635C54.5877 21.7415 54.7212 21.875 54.9437 21.875Z" fill="#23443C"/>
<path d="M58.946 42.2571C59.124 41.9456 59.1685 41.5451 59.0795 41.1891C58.9905 40.7886 58.4564 40.7441 58.2784 41.1001C58.1004 41.3671 58.0559 41.6786 58.0114 41.9901C57.9224 42.0346 57.8779 42.0346 57.7889 42.0791C57.7444 42.0791 57.6554 42.0791 57.6109 42.0346C57.7889 41.8121 57.8779 41.5896 57.8779 41.3226C57.8779 41.1001 57.6554 40.8776 57.4329 40.8776C56.9434 40.8776 56.6319 41.3226 56.5874 41.7676C56.5429 41.8121 56.4539 41.8566 56.4094 41.8566C56.3649 41.9011 56.3204 41.9011 56.2759 41.9456C56.3204 41.7676 56.3204 41.5451 56.3649 41.3671C56.4094 40.9666 55.6973 40.7441 55.5193 41.1446C55.3858 41.4561 55.2523 41.7676 55.2968 42.0791V42.1236C55.2078 42.3016 55.0743 42.3461 54.8963 42.3461C54.8963 42.3461 54.7628 42.3461 54.8073 42.3461C54.8073 42.3461 54.6738 42.3016 54.7183 42.3461H54.6738V42.3016C54.6738 42.2126 54.7183 42.1681 54.7183 42.0791H54.7628C54.9853 42.0791 55.2078 41.8566 55.2078 41.6341C55.2078 41.4561 55.2078 41.3226 55.1633 41.1446C55.1188 40.7886 54.6738 40.5215 54.4068 40.8331C54.0508 41.2336 53.7393 41.8121 53.7393 42.3461C53.7838 42.8801 54.1843 43.1917 54.6738 43.2362C55.0743 43.2807 55.5193 43.1472 55.7863 42.8356C55.9644 42.8801 56.1424 42.9246 56.3649 42.8356C56.5429 42.7911 56.6764 42.7021 56.8544 42.6131C56.9879 42.7466 57.1659 42.8356 57.3439 42.9246C57.5664 42.9691 57.7889 42.9691 58.0114 42.9246C58.0559 43.0136 58.1004 43.1027 58.1894 43.1917C58.2784 43.2362 58.3675 43.3252 58.4565 43.3697C58.8125 43.5922 59.3465 43.1027 59.0795 42.7466C59.0795 42.5686 58.9905 42.4351 58.946 42.2571ZM57.4774 41.7231C57.5219 41.6341 57.6109 41.6786 57.4774 41.7231V41.7231Z" fill="#23443C"/>
<path d="M51.337 41.5008C51.4705 41.1893 51.4705 40.8333 51.2925 40.4773C51.1145 40.1213 50.5805 40.2548 50.4915 40.5663C50.4025 40.8333 50.4025 41.0558 50.4025 41.3228C50.3135 41.4118 50.18 41.4563 50.0464 41.4563C49.9129 41.4563 49.7794 41.3228 49.7349 41.1893C49.7794 41.0113 49.8239 40.8333 49.8239 40.6108C49.7794 40.1658 49.2454 39.9878 48.9784 40.3883C48.8449 40.6108 48.8004 40.8333 48.8004 41.0558C48.6669 41.2783 48.3999 41.3673 48.1329 41.3673C48.1774 41.2338 48.2219 41.0558 48.2219 40.8778C48.2219 40.4328 47.9549 39.8987 47.4653 39.8097C46.8423 39.6762 46.4863 40.2993 46.5753 40.8333C46.6198 41.1003 46.7088 41.3228 46.8423 41.5453C46.7533 41.5898 46.6643 41.6343 46.5753 41.6343C46.4418 41.6343 46.3083 41.6343 46.1748 41.5898C46.3083 41.4563 46.4418 41.3673 46.5308 41.1893C46.7533 40.7443 46.4418 40.2993 46.0413 40.1213C45.5963 39.9432 45.1513 40.0768 44.8842 40.4773C44.7952 40.5663 44.7952 40.6998 44.7507 40.8333C44.7062 40.7443 44.6617 40.6108 44.6172 40.5218C44.2612 40.0768 43.6382 40.2993 43.4602 40.7888C43.3712 41.0113 43.3712 41.2783 43.4602 41.5008C43.4602 41.5008 43.4602 41.5008 43.4157 41.5453C43.1932 41.7233 42.9707 41.8568 42.7482 41.9458C42.7927 41.8568 42.7927 41.7678 42.8372 41.6788C42.8817 41.4563 42.7927 41.1893 42.5256 41.1448C42.3476 41.1003 42.2586 41.0113 42.1696 40.8778C42.0361 40.6553 41.7691 40.6108 41.5466 40.6998C41.1461 40.8778 40.9236 41.3228 40.9681 41.7233C40.9681 41.9013 41.0571 42.0793 41.1461 42.2573C41.0571 42.3018 40.9236 42.3463 40.8346 42.3908C40.7901 42.3908 40.7456 42.4353 40.7011 42.4353C40.7011 42.4353 40.7011 42.4353 40.6566 42.4353C40.6566 42.3463 40.6566 42.2573 40.6566 42.1683C40.6566 41.9458 40.6121 41.7233 40.4341 41.5898C40.2116 41.3673 39.9 41.2783 39.6775 41.5008C39.5885 41.5453 39.544 41.6343 39.4995 41.6788C39.4105 41.6343 39.277 41.5898 39.1435 41.5898C38.921 41.5898 38.743 41.6788 38.6095 41.8123C38.2535 41.5453 37.7195 41.5453 37.3189 41.8123L37.2744 41.8568C37.2299 41.8123 37.1409 41.7678 37.0519 41.7678C36.8294 41.7678 36.5624 41.9903 36.6069 42.2128C36.6514 42.3908 36.6514 42.5689 36.6514 42.7469C36.4734 43.2809 36.4734 43.8594 36.7404 44.3934C36.9629 44.7939 37.5414 44.5714 37.5859 44.1709C37.6304 43.7259 37.5859 43.3254 37.5859 42.9249C37.6304 42.8804 37.6304 42.8359 37.6749 42.7469C37.7639 42.6134 37.942 42.4354 38.12 42.5244C38.1645 42.5689 38.209 42.6579 38.2535 42.7024C38.2535 42.9249 38.2535 43.1029 38.209 43.3254C38.0755 43.9039 38.921 44.1264 39.0545 43.5479C39.0545 43.4589 39.099 43.3699 39.099 43.2809V43.2364C39.099 43.1919 39.099 43.1919 39.099 43.1474C39.277 43.4589 39.811 43.4589 39.9 43.0584C39.9 43.0139 39.9 42.9694 39.9445 42.9249C40.167 43.3699 40.6566 43.3699 41.1016 43.2364C41.4131 43.1474 41.7246 43.0139 41.9916 42.8804C42.7927 43.1029 43.5492 42.7469 44.1722 42.2128C44.5282 42.3908 45.0177 42.3463 45.3738 42.2128C45.4183 42.2128 45.4183 42.1683 45.4628 42.1683C46.1303 42.6579 47.1093 42.6579 47.7769 42.1683C48.3109 42.3908 48.8894 42.2573 49.3344 41.9458C49.5569 42.1683 49.8685 42.3463 50.2245 42.3908C50.447 42.3908 50.625 42.3463 50.803 42.2573C50.803 42.3018 50.8475 42.3463 50.8475 42.3463C50.981 42.4799 51.07 42.5689 51.2035 42.7024C51.604 43.1029 52.227 42.4799 51.8265 42.0793C51.515 41.9013 51.3815 41.7233 51.337 41.5008ZM44.6617 41.4118C44.6617 41.3673 44.7062 41.3228 44.7062 41.2783C44.7062 41.3228 44.7062 41.3673 44.7507 41.4118C44.7062 41.4118 44.7062 41.4118 44.6617 41.4118Z" fill="#23443C"/>
<path d="M54.0078 37.1396C54.1413 36.7836 54.2748 36.3385 54.1858 35.938C54.3638 35.8935 54.5418 35.8935 54.7198 35.8935C55.1203 35.9825 55.5208 36.3385 55.4763 36.7391C55.4318 36.8726 55.3873 37.0061 55.3428 37.0951C55.1648 37.5846 55.8768 37.8516 56.1438 37.4511C56.2328 37.2731 56.3219 37.0951 56.3664 36.9171C56.4554 36.6946 56.5889 36.472 56.7669 36.3385C56.8114 36.294 56.9004 36.2495 56.9894 36.205C57.0339 36.205 57.0339 36.205 57.0784 36.205V36.2495C56.8114 36.294 56.5889 36.6055 56.7669 36.9171C56.8114 37.0061 56.8559 37.0506 56.9004 37.1396C57.0784 37.4511 57.4789 37.4066 57.6569 37.1396C57.8794 36.7836 58.0574 36.3385 57.9239 35.938C57.7459 35.4485 57.3009 35.226 56.8114 35.3595C56.5444 35.4485 56.3218 35.582 56.0993 35.76C55.7433 35.2705 55.2093 35.0035 54.6308 34.959C54.3193 34.959 54.0078 35.0035 53.7407 35.137C53.6517 35.0925 53.5627 35.048 53.4292 35.048C53.0732 35.0035 52.6727 35.0925 52.3612 35.3595C52.0942 35.6265 51.9607 36.027 51.8717 36.383C51.7382 36.9171 52.5837 37.1841 52.7172 36.6056C52.7617 36.472 52.8062 36.2495 52.8952 36.116C52.8062 36.561 53.0287 37.0061 53.3847 37.2731C53.5627 37.4511 53.9188 37.3621 54.0078 37.1396Z" fill="#23443C"/>
<path d="M50.8927 37.4517C51.1597 37.4517 51.2932 37.2292 51.3377 37.0067C51.3822 36.5172 51.2042 36.0722 50.8927 35.7162C50.7146 35.5382 50.3586 35.5827 50.2251 35.7607C50.2696 35.4492 50.0026 35.1822 49.6911 35.2712C49.2461 35.3602 49.0236 35.7607 49.0236 36.2057C48.9346 36.2947 48.8456 36.5172 48.7121 36.5172C48.6676 36.5172 48.6231 36.5172 48.6231 36.4282C48.8011 36.1167 48.8901 35.7607 48.8456 35.4047C48.8011 35.0041 48.4005 34.8261 48.089 35.0931C47.7775 35.3602 47.6885 35.8052 47.6885 36.2057C47.644 36.2502 47.5995 36.3392 47.5105 36.3837C47.466 36.4282 47.377 36.4727 47.3325 36.5172C47.3325 36.3837 47.3325 36.2502 47.3325 36.1167C47.3325 35.9387 47.199 35.7607 47.021 35.6717C46.843 35.6272 46.576 35.7162 46.5315 35.8942C46.487 35.9832 46.4425 36.0722 46.398 36.1612C46.309 36.3392 46.309 36.5172 46.4425 36.6507C46.4425 36.9177 46.487 37.1847 46.665 37.3627C47.021 37.6743 47.5105 37.4963 47.8665 37.2737C47.9555 37.2292 48 37.1847 48.089 37.1402C48.178 37.2292 48.3115 37.3182 48.4451 37.3627C48.8901 37.4962 49.2461 37.3182 49.5131 37.0512C49.8246 37.2292 50.2251 37.1847 50.5366 37.0067C50.4031 37.2292 50.6701 37.4517 50.8927 37.4517ZM50.0916 36.1167C50.0471 36.1612 50.0471 36.1612 50.0026 36.2057C49.9581 36.2057 49.9581 36.2502 49.9581 36.2502C50.0026 36.1612 50.0471 36.0277 50.0916 35.9387V35.9832C50.0916 36.0277 50.0916 36.1167 50.0916 36.1167C50.1361 36.0722 50.1361 36.0722 50.0916 36.1167Z" fill="#23443C"/>
<path d="M41.9476 37.2286C41.9476 37.0506 41.9921 36.8726 42.0366 36.6946C42.1256 36.9171 42.1701 37.0951 42.2591 37.3176C42.3926 37.7181 42.9711 37.7626 43.1046 37.3176C43.1491 37.1396 43.2381 36.9616 43.2826 36.8281C43.4161 37.0061 43.5496 37.1841 43.6831 37.3621C43.9501 37.8516 44.7512 37.4066 44.4397 36.9171C44.1727 36.4276 43.7721 36.0271 43.2826 35.6711C43.0601 35.493 42.7931 35.6711 42.6596 35.8491C42.5706 35.6711 42.5261 35.4485 42.4371 35.2705C42.3036 34.9145 41.814 34.8255 41.636 35.1815C41.458 35.493 41.3245 35.8046 41.2355 36.1606C41.2355 36.1161 41.191 36.1161 41.191 36.0716C40.9685 35.8046 40.7015 35.5821 40.301 35.6266C40.212 35.6266 40.123 35.6711 40.034 35.7156C39.9005 35.582 39.767 35.4485 39.6335 35.3595C39.0104 34.959 38.2094 35.048 37.6754 35.582C37.1859 36.1606 37.0524 36.9616 37.3639 37.6736C37.6754 38.3412 38.3429 38.7417 39.0104 38.8307C39.1884 38.8752 39.411 38.6972 39.4555 38.5192C39.6335 37.7626 39.5 36.9171 39.0994 36.2496C39.0549 36.2051 39.0104 36.1161 38.9659 36.0716C39.0549 36.1161 39.1439 36.1161 39.2329 36.2051C39.3665 36.2941 39.4555 36.4276 39.5 36.5611C39.4555 36.8281 39.5445 37.1396 39.6335 37.4066C39.8115 37.8516 40.479 37.8071 40.5235 37.2731C40.5235 37.0506 40.5235 36.8726 40.479 36.6501C40.657 36.9616 40.9685 37.2286 41.1465 37.4956C41.369 37.8071 41.9476 37.7181 41.9476 37.2286ZM38.1204 36.5166C38.1649 36.5166 38.1649 36.5166 38.1204 36.5166C38.2094 36.5166 38.2539 36.5611 38.2539 36.6056C38.3429 36.7836 38.4319 36.9171 38.4764 37.0951C38.5209 37.3176 38.5654 37.4956 38.5654 37.7181C38.2094 37.4956 37.9869 37.0061 38.1204 36.5166Z" fill="#23443C"/>
<path d="M57.0772 31.9777C57.2997 31.9777 57.5667 31.7552 57.5222 31.5327C57.4332 30.9097 57.0772 30.0641 56.3651 29.9751C56.2761 29.9751 56.1871 29.9751 56.1426 29.9751C56.0091 29.6636 55.8311 29.4411 55.5196 29.3521C55.2526 29.2631 54.9856 29.3521 54.8076 29.5301C54.5406 29.3521 54.1845 29.2186 53.8285 29.3076C53.428 29.3521 53.2055 29.6191 53.072 29.9306C52.805 29.7971 52.449 29.7526 52.1375 29.8416C51.9594 29.8861 51.7369 29.9751 51.6034 30.0641C51.1139 29.3521 50.4019 28.8181 49.7344 29.4856C49.6454 29.5746 49.5563 29.6636 49.5118 29.7971C49.2893 29.8861 49.2003 30.1086 49.2448 30.3312C48.9778 31.1767 49.1113 32.2002 49.6453 32.8678C49.9569 33.2683 50.5354 33.0458 50.4464 32.5117C50.3574 31.8442 50.2684 31.1322 50.1349 30.4647C50.1794 30.3757 50.1794 30.3312 50.2239 30.2421C50.2684 30.1976 50.3129 30.0641 50.3574 30.0641C50.4019 30.0641 50.4464 30.1086 50.4464 30.1086C50.6244 30.2421 50.7579 30.3757 50.8469 30.5537C50.9359 30.6427 50.9804 30.7762 51.0249 30.8652C50.9804 31.2657 51.1139 31.6662 51.4254 31.9332C51.7814 32.2002 52.2265 31.9777 52.182 31.4882C52.1375 31.3102 52.093 31.0877 51.9594 30.8207C52.0485 30.7317 52.182 30.6427 52.36 30.6427C52.627 30.6427 52.805 30.7317 52.9385 30.9097C52.983 31.1767 53.0275 31.4437 53.1165 31.6662C53.2945 32.1557 53.9175 32.0222 54.0065 31.5327C54.051 31.2212 53.962 30.9097 53.8285 30.6427C53.8285 30.5982 53.8285 30.5537 53.8285 30.5092C53.8285 30.3757 53.784 30.1531 53.962 30.1531C54.4516 30.1086 54.5406 30.8207 54.5851 31.1322C54.6741 31.5327 55.2081 31.5327 55.3861 31.2657C55.3861 31.3547 55.4306 31.4437 55.4306 31.5327C55.5641 32.0222 56.3206 31.9332 56.3206 31.3992C56.3206 31.2657 56.3206 31.1322 56.3206 30.9542C56.4541 31.1322 56.5876 31.3102 56.6321 31.5327C56.6321 31.7997 56.8101 31.9777 57.0772 31.9777Z" fill="#23443C"/>
<path d="M19.6068 42.3914C19.1173 42.3468 18.7168 42.6139 18.4052 42.9699C18.2272 42.7029 18.0047 42.4804 17.7377 42.3468C17.2482 42.1688 16.8032 42.5249 16.4917 42.8809C16.3582 43.0144 16.2247 43.1924 16.1356 43.3704C15.9131 42.9699 15.2011 43.1924 15.3346 43.7264C15.4236 44.0379 15.2011 44.4384 14.8896 44.4829C14.5336 44.5274 14.2666 44.1269 14.3111 43.8154C14.3111 43.2369 13.4655 43.2369 13.421 43.8154C13.421 44.1269 13.3765 44.4384 13.2875 44.7054C13.243 44.839 13.1095 45.195 12.9315 45.284C12.976 45.1505 13.0205 44.9725 13.065 44.839C13.154 44.3494 13.243 43.5929 12.62 43.4149C12.0415 43.2369 11.73 43.7709 11.6855 44.2604C11.641 44.6609 11.6855 45.1505 11.8635 45.5065C11.641 45.907 11.1959 46.263 10.7064 46.263C10.2169 46.263 9.90539 45.9515 9.72739 45.551C9.77189 45.106 9.72738 44.6609 9.63838 44.2604C9.54937 43.8599 8.88185 43.8154 8.79285 44.2604C8.70384 44.7054 8.70385 45.195 8.83735 45.5955C8.83735 45.6845 8.79285 45.729 8.79285 45.818C8.70384 46.085 8.52583 46.53 8.21431 46.619C7.9473 46.6635 7.81381 46.3075 7.7248 46.1295C7.6803 45.9515 7.63579 45.7735 7.59129 45.5955C7.59129 45.5065 7.54679 45.462 7.59129 45.373C7.59129 45.3285 7.6358 45.3285 7.6358 45.284C7.8138 45.3285 8.03632 45.284 8.16982 45.106C8.30333 44.928 8.21431 44.6164 7.9918 44.4829C7.63579 44.3049 7.23528 44.3939 6.96827 44.6609C6.70126 44.9725 6.65676 45.373 6.74576 45.729C6.83476 46.352 7.05727 47.1085 7.6803 47.3756C8.39233 47.6871 9.05985 47.2421 9.41587 46.619C9.41587 46.619 9.41587 46.619 9.41587 46.5745C9.46037 46.619 9.50487 46.708 9.59387 46.7525C10.4839 47.4201 11.6855 47.1085 12.353 46.3075C12.3975 46.2185 12.4865 46.1295 12.531 46.085C12.976 46.2185 13.421 46.0405 13.7326 45.64C13.8661 45.462 13.9996 45.2395 14.0441 45.017C14.3111 45.2395 14.6671 45.3285 15.0231 45.284C15.3346 45.2395 15.6461 45.0615 15.8241 44.7944C15.9576 44.9725 16.0911 45.106 16.2246 45.284C16.6252 45.6845 17.2482 45.0615 16.8477 44.6609C16.7587 44.5719 16.6697 44.4384 16.5807 44.3494C16.5807 44.3049 16.6252 44.3049 16.6252 44.2604C16.7142 43.9934 16.8477 43.7709 17.0257 43.5484C17.1147 43.4149 17.2482 43.3259 17.3372 43.2369C17.3372 43.2369 17.3817 43.1924 17.4262 43.1924C17.4262 43.2369 17.5152 43.2814 17.5597 43.3259C17.6042 43.3704 17.6487 43.4149 17.6932 43.5039C17.7822 43.6374 17.8267 43.7709 17.8712 43.9044C17.9157 44.0379 17.9602 44.1714 17.9602 44.3049C17.9602 44.4384 17.9602 44.6164 17.9602 44.75C18.0047 45.3285 18.8058 45.3285 18.8503 44.75C18.8503 44.5719 18.8503 44.4384 18.8503 44.2604C18.8503 44.0379 18.8948 43.8599 18.9838 43.6819C19.0728 43.4594 19.3398 43.2369 19.5623 43.2814C19.7403 43.3259 19.8293 43.5039 19.9183 43.7264C20.0073 43.9934 19.9628 44.3049 19.9183 44.6164C19.8738 44.839 20.1408 45.0615 20.3633 45.0615C20.6303 45.0615 20.7638 44.839 20.8083 44.6164C20.8973 43.7264 20.6748 42.4804 19.6068 42.3914Z" fill="#23443C"/>
<path d="M28.7768 43.0144C28.5988 42.7473 28.1982 42.7028 28.0202 43.0144C27.9757 43.1034 27.9312 43.1924 27.8867 43.2814C27.8867 43.2814 27.8867 43.2369 27.8422 43.2369C27.6642 42.8363 27.3972 42.4358 26.9077 42.3913C26.5517 42.3468 26.3292 42.4803 26.1512 42.7028C25.8396 42.5693 25.4391 42.8363 25.5281 43.1924C25.5726 43.3259 25.5726 43.4149 25.6171 43.5484C25.6171 43.7264 25.5281 43.8599 25.3946 43.9934C25.2611 44.0824 25.1276 44.1269 24.9941 44.1714C25.0386 44.0824 25.0386 43.9489 25.0831 43.8599C25.1721 43.2814 24.9496 42.7028 24.4601 42.3913C24.2821 42.2578 24.0151 42.2133 23.7925 42.2133C23.4365 42.2133 23.2585 42.3913 23.1695 42.7473C23.1695 42.7918 23.125 42.8363 23.125 42.9253C22.9915 42.9699 22.9025 43.0144 22.769 43.1034C22.4575 43.5039 22.5465 44.2159 22.769 44.6609C22.9915 45.1949 23.57 45.4175 24.1041 45.1949C24.1931 45.1504 24.2376 45.1059 24.3266 45.0614C24.3711 45.0614 24.3711 45.0614 24.4156 45.0614C24.9496 45.1059 25.5281 45.0169 25.9732 44.6609C26.1067 45.2394 26.9522 44.9724 26.8187 44.4384C26.7742 44.1714 26.7297 43.9044 26.8187 43.6374C26.8187 43.5929 26.9077 43.4149 26.9077 43.3259C27.0857 43.5039 27.1747 43.8154 27.2637 44.0379C27.3527 44.3494 27.4862 44.6164 27.5307 44.9279C27.6642 45.4175 28.3762 45.3284 28.4208 44.7944C28.4208 44.6164 28.4652 44.4829 28.4652 44.3049C28.5097 44.4384 28.5543 44.5719 28.5543 44.7054C28.5543 44.7499 28.5543 44.7944 28.5543 44.8389C28.3762 44.9724 28.2872 45.2839 28.4208 45.5065C28.6433 45.907 29.2218 45.7735 29.3998 45.373C29.5333 45.0169 29.4443 44.5274 29.3553 44.1269C29.2663 43.7709 29.0438 43.3704 28.7768 43.0144ZM24.1041 44.0379C23.8816 43.8599 23.9261 43.4594 24.0151 43.1479C24.1041 43.1924 24.1931 43.2369 24.2376 43.3704C24.3266 43.5484 24.2376 43.8154 24.1041 44.0379Z" fill="#23443C"/>
<path d="M20.9886 38.5197C20.9886 38.4751 20.9886 38.4306 20.9886 38.3861C20.9886 38.1191 21.0331 37.8521 20.9886 37.5851C20.9441 37.1401 20.6771 36.6951 20.232 36.5616C19.9205 36.4726 19.609 36.7841 19.698 37.0956C19.8315 37.6296 19.6535 38.1636 19.2085 38.5641C19.2085 38.5196 19.2085 38.5196 19.164 38.4751C19.1195 38.2971 19.075 38.0746 19.0305 37.8966C18.9415 37.4961 18.808 37.0956 18.719 36.6506C18.5855 36.161 17.8289 36.2501 17.8289 36.7841C17.8289 37.2736 17.8735 37.9411 17.4284 38.2526C17.2949 38.3416 17.1614 38.3861 17.0279 38.2971C17.0279 38.2971 16.9834 38.2526 16.9834 38.2081C17.0279 38.0746 17.0279 37.9856 17.0724 37.8521C17.1614 37.4516 16.6274 37.0511 16.3159 37.4071C16.1379 37.6296 16.0489 37.8966 16.0934 38.1636C15.9599 38.7422 15.6929 39.3207 15.1143 39.3652C14.9363 39.3652 14.8028 39.3207 14.6693 39.2317C14.8918 38.6977 14.9363 38.0301 14.7583 37.4961C14.6693 37.1401 14.2688 37.0956 14.0018 37.3181C13.3788 37.8521 13.2898 38.6532 13.5568 39.3207C13.2453 39.5877 12.7112 39.6322 12.3997 39.3652C12.2217 39.1872 12.1772 38.9202 12.0882 38.7422C11.9102 38.4306 11.5987 38.2971 11.2427 38.3861C10.8867 38.4751 10.7532 38.8312 10.6197 39.1427C10.5752 39.2317 10.5752 39.2762 10.5307 39.3652C9.90763 38.6087 8.88409 38.2081 7.94955 38.5641C7.86055 38.5641 7.77154 38.5196 7.68254 38.5641C7.50453 38.6087 7.32653 38.7867 7.28202 38.9647C6.88151 39.3207 6.65899 39.8102 6.748 40.3442C6.8815 41.0117 7.63803 41.5903 8.30556 41.3678C8.52807 41.2788 8.66158 41.0563 8.61708 40.8337C8.52807 40.3442 8.39456 39.8992 8.26106 39.4097C8.35006 39.3652 8.39456 39.3652 8.48356 39.3652C9.2401 39.2762 9.99664 39.8547 10.1746 40.5667C10.3081 41.0117 10.8867 40.9227 11.0202 40.5667C11.1537 40.2107 11.2872 39.8547 11.4652 39.4987C11.4652 39.5432 11.5097 39.5877 11.5097 39.6322C11.7767 40.1662 12.3997 40.4777 12.9783 40.4777C13.4233 40.4777 13.8238 40.2997 14.0908 40.0327C14.2688 40.1662 14.4468 40.2552 14.7138 40.2997C15.3368 40.4332 15.9599 40.1662 16.3159 39.6767C16.4494 39.4987 16.5384 39.3207 16.6274 39.1427C16.8054 39.2317 17.0279 39.2762 17.2504 39.2317C17.6509 39.1872 17.9625 38.9647 18.185 38.6977V38.7422C18.2295 39.0092 18.3185 39.2762 18.5855 39.4097C18.808 39.5432 19.075 39.5432 19.342 39.4542C19.6535 39.3652 19.876 39.1427 20.054 38.8757C20.0985 38.9647 20.1431 39.0537 20.1876 39.1872C20.3656 39.4542 20.6326 39.6322 20.9886 39.6322C21.1666 39.6322 21.3446 39.5877 21.4781 39.4542C21.6116 39.3207 21.6561 39.0537 21.7006 38.8312C22.0121 38.2971 21.2111 38.0746 20.9886 38.5197Z" fill="#23443C"/>
<path d="M27.4852 39.7659C27.7522 39.7659 27.8857 39.5434 27.9302 39.3209C28.0192 38.7869 27.9302 38.2083 27.7522 37.7188C27.6632 37.4963 27.4407 37.3183 27.2182 37.4073C26.7732 37.5853 26.3282 37.7633 25.9722 38.0748C25.6606 37.5853 25.0376 37.3183 24.5036 37.6298C24.0586 37.8968 23.8806 38.4754 24.0141 38.9649C24.1476 39.4989 24.6371 39.8549 25.1711 40.0329C25.2601 40.0774 25.3491 40.0329 25.4381 40.0329C25.6606 40.2109 26.1057 40.1664 26.1947 39.8104C26.2392 39.5879 26.2837 39.3654 26.2837 39.1429C26.3727 39.0094 26.4172 38.9204 26.5507 38.7869C26.6842 38.6534 26.9067 38.5199 27.1292 38.4309C27.1737 38.6979 27.1737 39.0094 27.1737 39.3209C26.9957 39.5434 27.2627 39.7659 27.4852 39.7659ZM25.2601 39.1429C25.2156 39.1429 25.2156 39.0984 25.1711 39.0984C25.1266 39.0984 25.1266 39.0539 25.0821 39.0539C25.0821 39.0539 24.9931 38.9649 25.0376 39.0094C24.9931 38.9649 24.9931 38.9649 24.9486 38.9204L24.9041 38.8759C24.9041 38.8314 24.8596 38.8314 24.8596 38.7869C24.8596 38.7869 24.8596 38.7424 24.8151 38.7424C24.8151 38.6979 24.8151 38.6979 24.7706 38.6534C24.7706 38.6534 24.7706 38.6534 24.7706 38.6089V38.5644C24.7706 38.5644 24.7706 38.5199 24.7706 38.4754C24.7706 38.4309 24.8151 38.4309 24.8151 38.3864C24.7706 38.4754 24.8151 38.3864 24.8596 38.3419H24.9041C24.9486 38.3419 24.9486 38.3864 24.9486 38.3864C25.0376 38.4309 25.0821 38.4754 25.1266 38.6089V38.6534C25.1266 38.6979 25.1711 38.7424 25.1711 38.8314C25.1711 38.8314 25.1711 38.9204 25.1711 38.9649C25.3046 39.0094 25.2601 39.0539 25.2601 39.1429Z" fill="#23443C"/>
<path d="M7.59156 36.2496C7.54705 35.7601 7.54705 35.3151 7.59156 34.8255C8.08108 35.0035 8.5261 35.3151 8.5261 35.8491C8.5261 36.2051 9.01562 36.4721 9.28263 36.1606C9.68315 35.6711 9.95015 35.048 9.99465 34.425C10.0392 34.514 10.0392 34.5585 10.0837 34.6475C10.2617 35.0035 10.5287 35.3151 10.9292 35.4041C11.5077 35.5376 11.7302 34.6475 11.1517 34.5585C10.8402 34.514 10.7512 33.9355 10.6177 33.713C10.3507 33.3125 9.86115 32.912 9.37163 33.1345C9.14912 33.2235 9.01562 33.446 9.06012 33.6685C9.14913 34.0245 9.14913 34.425 9.06012 34.781C8.70411 34.336 8.17008 34.0245 7.59156 33.891C7.50255 33.7575 7.36905 33.6685 7.19104 33.6685C7.05754 33.6685 6.92403 33.7575 6.87952 33.8465H6.83503C6.0785 33.891 5.41096 34.3805 5.54447 35.1816C5.63347 36.0271 6.39 36.4276 7.10203 36.6946C7.28004 36.7836 7.59156 36.5166 7.59156 36.2496ZM6.65701 35.5376C6.47901 35.4486 6.39001 35.2706 6.34551 35.0925C6.30101 34.87 6.47901 34.781 6.65701 34.7365C6.65701 35.0036 6.65701 35.2706 6.65701 35.5376Z" fill="#23443C"/>
<path d="M23.7901 33.8019C23.8346 33.7129 23.9236 33.6239 23.9681 33.4904C23.9681 34.0244 24.0571 34.5139 24.5911 34.6919C25.1251 34.8699 25.4812 34.5584 25.7037 34.1579V34.2024C25.7482 34.4249 26.0597 34.5584 26.2377 34.5139C26.5047 34.4249 26.5937 34.2024 26.5492 33.9799C26.4602 33.4014 26.2377 32.8229 25.9262 32.2888C25.7037 31.9328 25.0361 32.0218 25.0806 32.5114C25.1251 32.7339 25.1251 33.0009 25.0806 33.2234C25.0361 33.3569 25.0361 33.4904 24.9916 33.5794C24.9916 33.6239 24.9471 33.6684 24.9471 33.6684C24.9026 33.4459 24.9471 33.1789 24.9471 32.9564C24.9471 32.4668 24.9916 31.8883 24.6356 31.5323C24.3241 31.1763 23.7456 31.1318 23.4341 31.4878C23.1226 31.8438 23.2561 32.2888 23.3006 32.6894C23.3451 33.0009 23.1671 33.3569 22.8556 33.4904C22.4105 33.7129 22.01 33.4014 21.8765 33.0454C21.921 32.7784 21.921 32.5113 21.8765 32.2443C21.743 31.7993 21.1645 31.8438 21.031 32.2443C20.942 32.5113 20.942 32.7784 20.9865 33.0009C20.8975 33.2679 20.675 33.4459 20.408 33.4904C20.0964 33.5349 19.8739 33.3569 19.7404 33.0899C19.8739 32.7339 19.8739 32.2888 19.5179 32.1108C19.3399 31.9773 19.0729 32.0218 18.8949 32.1553C18.6724 32.3333 18.6724 32.6449 18.7169 32.8674C18.7169 32.9119 18.7614 33.0009 18.7614 33.0454C18.7169 33.0899 18.7169 33.1789 18.6724 33.2234C18.4944 33.4459 18.2719 33.6684 18.0048 33.7129C17.8713 33.7574 17.7378 33.7129 17.6488 33.6684C17.7378 33.4014 17.7378 33.0899 17.6933 32.8229C17.6488 32.4223 17.2483 32.2443 16.9368 32.5114C16.7143 32.6894 16.5808 32.9564 16.5808 33.2234C16.2248 32.5558 15.2457 32.7784 14.8897 33.3569C14.5337 33.9799 14.4447 35.048 15.2012 35.404C15.8243 35.671 16.5808 35.3595 17.0258 34.8699C17.1148 34.7364 17.2483 34.6474 17.3373 34.5139C17.3818 34.5139 17.4263 34.5584 17.4708 34.5584C18.1829 34.8254 18.8504 34.4694 19.3399 33.9354C19.6514 34.2469 20.0964 34.4694 20.586 34.4249C20.942 34.3804 21.298 34.2024 21.5205 33.9799C21.6095 34.1134 21.743 34.2024 21.8765 34.2914C22.4105 34.7364 23.3006 34.4249 23.7901 33.8019ZM15.6908 34.6029C15.6018 34.6029 15.4682 34.6474 15.3792 34.6029C15.2902 34.5584 15.3792 34.3359 15.3792 34.2469C15.3792 34.1134 15.4237 33.8019 15.6017 33.7574C15.6463 33.7574 15.6908 33.7574 15.6908 33.7574C15.6908 33.7574 15.6908 33.7574 15.6908 33.8019C15.7798 34.0244 16.0913 34.0689 16.3138 33.9799C16.4028 33.9354 16.4473 33.8464 16.4918 33.7574C16.4918 33.8019 16.5363 33.8464 16.5363 33.8909C16.3583 34.2024 16.0913 34.5584 15.6908 34.6029Z" fill="#23443C"/>
<path d="M29.7984 34.4253C29.6204 34.3808 29.3979 34.3363 29.2199 34.2473C29.1754 34.2473 29.1309 34.2028 29.0864 34.2028C29.0419 34.2028 29.0419 34.2028 28.9974 34.1583C28.9084 34.1138 28.8194 34.0693 28.7304 34.0248C28.5524 33.9358 28.4189 33.8468 28.2408 33.7133C28.5969 33.4908 28.8639 33.1792 29.1309 32.8677C29.1754 32.8232 29.1754 32.8232 29.2199 32.7787C29.3534 32.6007 29.2644 32.3337 29.0864 32.2002C28.9084 32.0667 28.6859 32.0667 28.5079 32.2447C28.4634 32.2892 28.4634 32.2892 28.4189 32.2892C28.4189 32.2892 28.3744 32.2892 28.3744 32.3337C28.3299 32.3782 28.2854 32.4227 28.1964 32.4227C28.0628 32.5117 27.9738 32.5562 27.8403 32.6452C27.7958 32.6452 27.7958 32.6897 27.7513 32.6897C27.7513 32.6897 27.7068 32.6897 27.7068 32.7342L27.6623 32.7787C27.6178 32.7787 27.6178 32.8232 27.5733 32.8232C27.4398 32.8677 27.3063 32.9122 27.1728 32.9567C26.9503 33.0012 26.7723 33.2683 26.8613 33.4908C26.9058 33.6243 26.9948 33.7133 27.1283 33.7578C27.1283 33.8468 27.1728 33.9358 27.2173 33.9803C27.8848 34.6478 28.6859 35.0928 29.6204 35.2708C29.8429 35.3153 30.1099 35.1818 30.1544 34.9593C30.1544 34.7368 30.0654 34.4698 29.7984 34.4253Z" fill="#23443C"/>
<path d="M9.0591 30.464C9.1036 30.5085 9.10359 30.5085 9.1481 30.553C9.68212 30.998 10.3942 31.1315 11.0172 30.82C11.2397 30.731 11.4177 30.553 11.5957 30.375C11.7737 30.464 11.9962 30.553 12.2187 30.553C12.7527 30.5975 13.1088 30.3305 13.3313 29.9745C13.4203 30.0635 13.4648 30.108 13.5538 30.197C13.9988 30.553 14.6218 29.93 14.1768 29.574C13.9098 29.3515 13.7318 29.0399 13.5983 28.7284C13.5983 28.4169 13.5093 28.1054 13.4203 27.8829C13.2423 27.4379 12.5302 27.4824 12.5302 28.0164C12.5302 28.3724 12.5747 28.6839 12.7082 28.9954C12.7082 29.396 12.6192 29.752 12.1742 29.7075C12.0852 29.7075 11.9962 29.663 11.9072 29.6185C12.0407 28.9954 11.9072 28.3279 11.4622 27.8384C11.2397 27.6159 10.7947 27.7049 10.7057 28.0164C10.5722 28.5949 10.6167 29.2179 10.8837 29.752C10.7947 29.8855 10.7057 29.9745 10.6167 30.019C10.2161 30.286 9.68212 30.019 9.41511 29.6185C9.45961 29.307 9.41511 28.9509 9.1926 28.6839C9.01459 28.4169 8.43608 28.3724 8.39157 28.7729C8.34707 29.0844 8.39157 29.396 8.48057 29.7075C8.34706 29.9745 8.08005 30.1525 7.76854 30.1525C7.63503 30.1525 7.45702 30.1525 7.32352 30.108C7.41252 29.752 7.59053 29.3959 7.81304 29.0844C8.16906 28.6394 7.54603 28.0164 7.19002 28.4614C7.05651 28.6394 6.92301 28.7729 6.7895 28.9509C6.7895 28.9064 6.7895 28.8619 6.745 28.8174C6.47799 28.3279 5.81046 28.5059 5.63245 28.9509C5.49895 29.307 5.72146 29.7075 5.81046 30.0635C5.89946 30.4195 6.03297 30.7755 6.12198 31.1315C5.94397 31.176 5.76595 31.354 5.76595 31.532C5.81046 32.0216 6.29998 32.2441 6.7005 32.0661C7.10101 31.8436 7.10102 31.3985 7.01201 30.998V30.9535C7.23452 30.998 7.50154 31.0425 7.72405 31.0425C8.25807 31.0425 8.74759 30.8645 9.0591 30.464Z" fill="#23443C"/>
<path d="M18.4526 28.7278C18.6306 28.6833 18.8086 28.6388 18.9866 28.5943C19.0756 28.5943 19.1201 28.5498 19.1646 28.5053C19.3426 28.8613 19.6542 29.2173 19.8322 29.5733C20.0992 30.0183 20.7222 29.7068 20.6332 29.2173C20.5442 28.7723 20.4107 28.3273 20.2772 27.9268C20.6332 27.9713 20.8557 28.3273 21.0782 28.5943C21.3452 28.9058 21.6122 29.2173 21.9683 29.3953C22.5468 29.6623 23.1253 29.5288 23.4813 29.1283C23.6593 29.2173 23.8818 29.2173 24.1043 29.2173C24.5494 29.1283 24.8164 28.8613 24.9944 28.5053C25.3949 28.6388 25.7509 28.4608 26.0179 28.1938C26.1959 28.3718 26.4629 28.5053 26.7744 28.5943C27.4865 28.7278 28.154 28.3718 28.688 27.9713C29.1775 27.6597 28.7325 26.9032 28.243 27.2147C27.887 27.4372 27.531 27.7487 27.086 27.7487C26.8635 27.7487 26.5074 27.6152 26.5074 27.3927C26.4629 26.9922 25.8844 26.7252 25.6619 27.1702C25.6174 27.2592 25.3949 27.7487 25.2614 27.6597C25.2169 27.6597 25.2169 27.6152 25.2169 27.5707C25.2169 27.3482 25.2169 27.1702 25.2169 26.9922C25.1724 26.4137 24.3713 26.4137 24.3268 26.9922C24.3268 27.2147 24.3269 27.4372 24.3714 27.6597C24.3714 27.9713 24.2823 28.2383 24.0598 28.3273C24.0153 28.3718 23.9263 28.3273 23.8818 28.3273C23.9708 27.6597 23.7928 26.8142 23.1253 26.5027C22.8138 26.3692 22.4578 26.5027 22.4578 26.9032C22.4578 27.4817 22.5023 28.1048 22.8138 28.5498L22.8583 28.5943C22.8138 28.6388 22.7693 28.6833 22.7248 28.6833C22.4578 28.7278 22.1463 28.4608 21.9683 28.2383C21.7012 27.9268 21.4342 27.5707 21.0782 27.3037C20.7667 27.0812 20.2772 26.9922 19.8767 27.0812C19.7432 26.8587 19.5651 26.6807 19.3871 26.5917C18.9866 26.4137 18.4971 26.5917 18.1856 26.9032C17.8296 27.3037 17.8296 27.8378 17.9186 28.3273C17.9186 28.5943 18.1411 28.8168 18.4526 28.7278ZM18.8086 27.4817C18.9421 27.2592 19.0311 27.4372 19.1201 27.6152C19.0756 27.6597 19.0756 27.7042 19.0756 27.7933C18.9866 27.7488 18.8531 27.7042 18.7196 27.7487C18.7641 27.6597 18.7641 27.5707 18.8086 27.4817Z" fill="#23443C"/>
<path d="M6.88115 25.0352C6.70315 24.2787 6.52515 23.2107 7.23718 22.6766C7.32618 22.5876 7.50419 22.4986 7.63769 22.5431C7.68219 22.5431 7.6822 22.5431 7.6822 22.5431C7.6822 22.5431 7.6822 22.5431 7.6822 22.5876C7.7267 22.6766 7.77119 22.8546 7.77119 22.9436C7.9047 23.4332 7.9492 23.9227 7.9937 24.4122C8.0382 24.6347 8.17171 24.8572 8.43872 24.8572C8.66123 24.8572 8.88374 24.6347 8.88374 24.4122C8.83924 24.0117 8.83924 23.6112 8.92824 23.2107C9.06175 23.5667 9.15076 23.9672 9.28426 24.3232C9.37327 24.6792 9.95179 24.7682 10.0853 24.4122C10.1743 24.1897 10.2633 24.0117 10.3078 23.7892C10.5748 24.0117 10.9753 24.1007 11.3313 23.9672C11.6429 23.8337 11.8654 23.5667 12.0434 23.2997C12.1324 23.5222 12.2659 23.7892 12.4884 23.9672C13.1114 24.5012 13.8234 23.6112 14.2685 23.2552C14.58 22.9881 14.847 22.7211 15.1585 22.4986C15.292 22.9436 15.648 23.3442 16.1375 23.5222C16.3156 23.5667 16.5381 23.4777 16.6271 23.2997C16.7161 23.2107 16.7606 23.0771 16.8496 22.9881C16.9831 22.8101 16.8941 22.4986 16.6716 22.3651C16.449 22.2316 16.271 22.3206 16.093 22.4986C15.915 22.2761 15.8705 21.9201 16.0485 21.6976C16.36 21.2526 15.6925 20.8521 15.3365 21.1636C14.8915 21.5196 14.491 21.9201 14.046 22.2761C13.8234 22.4541 13.6454 22.6321 13.4229 22.8101C13.2894 22.8991 13.2004 22.9881 13.0669 23.1217C13.0224 23.1662 12.9779 23.2107 12.9334 23.2552C12.8889 23.1662 12.8444 23.0771 12.7999 22.9881C12.7109 22.8101 12.6219 22.6321 12.5774 22.4541C12.5774 22.4096 12.5329 22.3651 12.5329 22.3206C12.6219 22.0091 12.7109 21.7421 12.7999 21.4306C12.8889 21.0301 12.3994 20.674 12.0434 20.9856C11.6874 21.3416 11.5984 21.7421 11.6429 22.2316C11.5094 22.5431 11.3313 22.8546 11.1088 23.1662C10.9753 23.3442 10.8863 23.3887 10.7528 23.1662C10.5748 22.8991 10.6193 22.4986 10.6638 22.2316C10.7083 21.6531 9.81828 21.6531 9.77377 22.2316C9.77377 22.4541 9.72928 22.6766 9.68478 22.8991C9.55127 22.5876 9.46226 22.2761 9.32876 21.9646C9.19525 21.6531 8.70574 21.6976 8.57223 21.9646C8.52773 22.0536 8.43873 22.1426 8.39423 22.2761C8.08272 21.7866 7.45968 21.7421 6.92566 22.0091C6.61415 22.1426 6.39163 22.3651 6.21363 22.6321C6.08012 22.5431 5.94662 22.4986 5.81311 22.4986C5.5016 22.4541 5.32359 22.8101 5.3681 23.0772C5.5906 23.8782 5.76861 24.6792 5.99112 25.4803C6.16913 25.8363 7.01466 25.5693 6.88115 25.0352Z" fill="#23443C"/>
<path d="M21.21 23.3442C21.1655 22.5432 21.0765 21.7421 21.032 20.9411C21.0765 20.9411 21.121 20.8966 21.1655 20.8521C21.2545 20.7631 21.299 20.5851 21.299 20.4516C21.6551 20.4516 21.9666 20.8076 22.1001 21.0746C22.3226 21.5196 22.2781 22.0536 22.2336 22.5432C22.2336 22.6767 22.1891 22.7657 22.1891 22.8992C22.1891 23.4777 23.0346 23.4777 23.0791 22.8992C23.0791 22.4987 23.1681 22.0981 23.3016 21.6976C23.4351 22.0981 23.5686 22.4987 23.6576 22.8992C23.7911 23.3442 24.3697 23.2997 24.5032 22.8992C24.5477 22.8102 24.5922 22.6767 24.6367 22.5877C24.6367 22.6322 24.6367 22.6322 24.6812 22.6767C24.8147 23.1662 25.0817 23.6112 25.6602 23.6112C25.9717 23.6112 26.2387 23.5667 26.5503 23.4777C26.7283 23.7447 26.9953 23.9672 27.3513 24.1007C27.7963 24.2342 28.2858 24.1452 28.6418 23.8337C29.0424 23.4332 28.4193 22.8102 28.0188 23.2107C27.8853 23.3442 27.6628 23.2997 27.4848 23.2107C27.3958 23.1662 27.3513 23.1217 27.3068 23.0772C27.5738 22.8547 27.7963 22.5432 27.9298 22.1871C28.1078 21.7421 28.0633 21.2081 27.7963 20.8076C27.5293 20.4071 26.9953 20.2291 26.5948 20.5406C26.2832 20.8076 26.1942 21.2526 26.1942 21.6531C26.1942 21.9646 26.1942 22.3206 26.2387 22.6767C26.1052 22.7212 26.0162 22.7657 25.8827 22.7657C25.7937 22.7657 25.7047 22.8102 25.6157 22.7212C25.5712 22.6767 25.5712 22.5432 25.5267 22.4542C25.4822 22.3652 25.4822 22.2316 25.4377 22.1426C25.3042 21.6976 25.1707 21.2081 25.0372 20.7631C24.9037 20.3626 24.2362 20.3181 24.1917 20.7631C24.1472 20.9411 24.1472 21.0746 24.1027 21.2526C23.9691 20.9411 23.8801 20.6741 23.7466 20.3626C23.6131 20.0511 23.1236 20.0956 22.9901 20.3626C22.9456 20.4516 22.9011 20.5406 22.8566 20.5851C22.8566 20.5406 22.8121 20.5406 22.8121 20.4961C22.4116 19.873 21.655 19.428 20.943 19.6505C20.765 19.695 20.587 19.8285 20.409 19.9176C20.2755 19.9621 20.1865 20.0511 20.1865 20.1846C19.964 20.4961 19.786 20.8521 19.786 21.2526C19.697 22.0981 20.0975 22.8547 20.498 23.5667C20.587 23.9672 21.2545 23.7892 21.21 23.3442ZM26.9953 21.4751C26.9953 21.4751 26.9953 21.4306 26.9953 21.3861C26.9953 21.4306 27.0398 21.4751 27.0398 21.4751C27.0843 21.6531 27.0398 21.8311 26.9508 21.9646C26.9953 21.8311 26.9953 21.6531 26.9953 21.4751Z" fill="#23443C"/>
</svg>
