<svg width="64" height="64" viewBox="0 0 64 64" fill="none" xmlns="http://www.w3.org/2000/svg">
<path d="M46.335 24.9183C44.6029 25.7431 43.1183 28.1349 43.7782 30.4443C44.273 32.0938 45.1803 33.0011 46.335 33.1661C47.5721 33.331 48.9743 32.5062 49.8815 31.1866C50.3764 30.4443 51.2837 28.5473 49.8815 26.3204C48.7268 24.2584 47.1598 24.5884 46.335 24.9183Z" fill="#23443C"/>
<path d="M18.9524 24.5057H18.8699C17.3853 24.5882 15.7358 25.9903 15.076 27.8048C14.4986 29.5368 14.911 31.1864 16.2306 32.4236C17.5503 33.6607 19.1998 33.6607 20.6845 32.506C22.1691 31.2689 22.9938 28.7945 21.7567 26.8975C21.0144 25.3305 20.1071 24.5057 18.9524 24.5057Z" fill="#23443C"/>
<path d="M13.6735 10.4021C13.756 10.0722 13.756 9.74231 13.591 9.49487C13.4261 9.16496 13.0962 9 12.8487 9C12.6838 9 12.4363 9.08248 12.2714 9.16496C6.91033 11.7218 2.70396 17.0004 1.0544 23.2687C0.889445 23.7636 1.13687 24.0935 1.30182 24.2584C1.54926 24.5059 1.96166 24.5883 2.29157 24.5059C2.62148 24.4234 2.78644 24.1759 2.86891 23.846C4.35352 18.1551 8.31245 13.2889 13.3436 10.897C13.5086 10.8145 13.591 10.5671 13.6735 10.4021Z" fill="#23443C"/>
<path d="M60.9346 12.2991L60.6871 12.1341C60.0273 11.6393 58.7077 10.6495 57.8004 10.6495C57.7179 10.6495 57.6355 10.6495 57.553 10.6495C57.2231 10.732 57.0581 10.9794 56.8931 11.3918C56.6457 11.9692 57.1406 12.3816 58.5427 13.1239C59.45 13.6187 60.3572 14.1136 60.6871 14.9384C60.8521 15.3508 60.9346 15.7632 60.9346 16.1756C60.9346 16.3405 60.9346 16.423 61.017 16.588C61.0995 17.0828 61.2645 17.4127 61.4294 17.5777C61.5944 17.6602 61.7593 17.7426 61.9243 17.6602C62.4192 17.4127 62.7491 17.0828 62.7491 16.423C62.914 14.9384 61.7593 12.9589 60.9346 12.2991Z" fill="#23443C"/>
<path d="M49.9637 17.5772C43.6954 17.2473 38.3343 22.7733 36.2724 28.3818L35.7775 29.7015L35.2826 28.4643C34.0455 25.2477 32.3134 22.6909 30.0865 20.7114C27.3648 18.3195 24.0656 17.1649 20.7665 17.1649C18.1272 17.1649 15.4879 17.9896 13.426 19.6392C7.73501 24.093 8.06492 33.0006 10.0444 39.2689C11.2816 43.1454 13.261 46.6919 15.7354 49.4137C18.7046 52.7128 21.5088 54.5273 24.2306 54.9397C27.6947 55.4346 31.1587 52.7953 33.2207 50.2385C34.7053 48.3415 35.86 45.9496 36.4373 43.3104L36.7672 41.8257L37.4271 43.1454C37.757 43.8052 38.0869 44.465 38.4168 45.0424C40.0663 47.9291 42.2933 49.5787 45.2625 50.156C47.9842 50.6509 50.7885 49.9911 53.0154 48.3415C58.5414 44.1351 60.026 36.2173 59.6136 30.6912C59.2837 24.5054 56.4795 17.8247 49.9637 17.5772ZM32.9733 47.6817C31.4062 50.4035 28.3545 52.6304 25.1379 52.6304C24.2306 52.6304 23.3233 52.4654 22.3336 52.053C18.7046 50.4035 15.158 46.4445 12.9311 41.5783C10.5393 36.2997 9.13713 28.7942 12.4362 23.5981C15.5704 18.4845 22.4161 18.1546 26.9524 20.8764C31.4886 23.5981 34.5403 29.3716 35.1177 36.2997C35.4476 40.836 34.7053 44.7125 32.9733 47.6817ZM54.2526 44.5475C52.3556 47.0219 49.7988 48.5065 47.2419 48.5065C46.912 48.5065 46.6646 48.5065 46.3347 48.424C44.1078 48.0941 41.9633 46.7744 40.3138 44.5475C37.757 41.0835 36.5198 36.0523 37.2621 31.9284C38.2518 26.4024 41.9633 21.6187 46.6646 20.0516C49.6338 19.0618 52.3556 19.4742 54.335 21.3712C55.9021 22.9383 56.9743 25.1652 57.6341 28.2169C58.7064 33.9903 57.4692 40.2587 54.2526 44.5475Z" fill="#23443C"/>
</svg>
