<svg width="41" height="40" viewBox="0 0 41 40" fill="none" xmlns="http://www.w3.org/2000/svg">
<circle cx="20.5" cy="20" r="20" fill="#3B538D"/>
<path fill-rule="evenodd" clip-rule="evenodd" d="M19.568 13.068C20.4119 12.2241 21.5565 11.75 22.75 11.75H25C25.4142 11.75 25.75 12.0858 25.75 12.5V15.5C25.75 15.9142 25.4142 16.25 25 16.25H22.75V17.75H25C25.231 17.75 25.449 17.8564 25.5912 18.0384C25.7333 18.2205 25.7836 18.4578 25.7276 18.6819L24.9776 21.6819C24.8941 22.0158 24.5942 22.25 24.25 22.25H22.75V27.5C22.75 27.9142 22.4142 28.25 22 28.25H19C18.5858 28.25 18.25 27.9142 18.25 27.5V22.25H16.75C16.3358 22.25 16 21.9142 16 21.5V18.5C16 18.0858 16.3358 17.75 16.75 17.75H18.25V16.25C18.25 15.0565 18.7241 13.9119 19.568 13.068ZM22.75 13.25C21.9543 13.25 21.1913 13.5661 20.6287 14.1287C20.0661 14.6913 19.75 15.4544 19.75 16.25V18.5C19.75 18.9142 19.4142 19.25 19 19.25H17.5V20.75H19C19.4142 20.75 19.75 21.0858 19.75 21.5V26.75H21.25V21.5C21.25 21.0858 21.5858 20.75 22 20.75H23.6644L24.0394 19.25H22C21.5858 19.25 21.25 18.9142 21.25 18.5V16.25C21.25 15.8522 21.408 15.4706 21.6893 15.1893C21.9706 14.908 22.3522 14.75 22.75 14.75H24.25V13.25H22.75Z" fill="white"/>
</svg>
