<svg width="64" height="64" viewBox="0 0 64 64" fill="none" xmlns="http://www.w3.org/2000/svg">
<path d="M36.1796 28.9202C36.6214 27.8473 37.5682 27.153 38.4518 26.2694C39.9035 24.7546 40.5977 22.798 40.4084 20.9045C40.2191 19.3897 39.3985 16.8651 36.937 17.0544C36.4321 17.1175 36.0534 17.3069 35.6747 17.5593C35.5485 17.6856 35.296 17.938 35.1066 17.938C34.8542 18.0011 35.1066 18.0011 35.0435 17.8749C34.9804 17.7487 34.9804 17.5593 34.9804 17.4331C34.7911 16.6126 34.2861 15.7921 33.5287 15.224C31.8246 13.8355 28.9844 13.7092 27.0278 14.8453C25.4499 15.7921 24.8187 17.37 25.2605 18.7585C24.5662 18.6323 23.8089 18.7585 23.1146 19.011C23.0515 19.0741 22.9252 19.0741 22.8621 19.1372C22.8621 19.011 22.9252 18.8848 22.9252 18.7585C23.1146 17.8749 23.367 16.8651 23.3039 15.9183C23.2408 15.224 22.9252 14.3404 22.0416 14.0879C21.158 13.8355 20.4637 14.3404 20.1481 14.9716C19.6432 15.8552 19.4538 16.8651 19.1383 17.8118C19.1383 16.7388 19.2014 15.729 19.1383 14.656C19.1383 13.5199 19.0751 11.4371 19.0751 10.301C19.0751 9.54358 19.0751 8.53372 17.8759 8.34437C16.7398 8.15503 16.4243 9.10177 16.2349 9.79605C16.0456 10.8059 15.9193 12.7625 15.7931 13.7724C15.6669 14.8453 15.5406 15.8552 15.3513 16.9282C15.3513 17.1175 15.2882 17.2437 15.2882 17.4331C15.1619 15.729 15.0357 14.0879 14.9726 12.3838C14.9095 11.1846 14.7832 10.9321 14.7201 9.73293C14.657 8.72307 14.8464 7.58698 13.9627 6.76647C13.8365 6.64024 13.5209 6.57712 13.3316 6.64024C12.1955 7.01894 11.7537 7.83944 11.5643 8.78618C11.2487 10.1116 11.0594 10.4903 10.9332 11.8158C10.87 12.1945 10.87 12.6363 10.87 13.015C10.7438 12.6994 10.6807 12.3838 10.6176 12.1313C10.302 11.3108 9.98642 9.73293 8.53474 9.79605C7.46177 9.79605 7.01996 10.8059 7.01996 11.5002C6.95684 12.1313 7.14619 12.7625 7.2093 13.3937C7.27242 14.1511 7.33553 14.9716 7.46176 15.729C7.58799 17.1175 7.71423 18.5061 7.84046 19.8946C7.90358 20.5889 7.96669 21.2832 8.0298 21.9775C8.09292 22.6717 8.21915 23.366 8.0298 24.0603C7.90357 24.6283 7.52487 25.1964 6.76748 25.3226C5.94697 25.512 5.50517 25.007 5.06336 24.5652C4.36908 23.8709 3.61167 23.1767 2.34935 23.2398C1.08703 23.366 0.771451 24.3128 1.15015 25.1964C1.59196 26.2062 2.66493 26.8374 3.61167 27.5317C4.68465 28.3522 5.69451 29.2989 6.51502 30.3088C10.2389 34.7269 11.1856 40.0918 11.8799 45.2673C12.7635 51.642 13.2053 52.9675 13.3316 59.4053C13.3316 60.0365 14.5939 60.0365 14.5939 59.4053C14.5308 54.1036 14.1521 53.8511 13.5209 48.5494C12.9529 43.5632 12.4479 38.3877 10.1126 33.6539C9.10279 31.6342 7.77735 29.8039 6.07322 28.1628C5.18959 27.3423 4.17973 26.6481 3.23299 25.8907C2.8543 25.5751 2.34937 25.1333 2.28625 24.6915C2.22313 23.9972 3.23298 24.3759 3.61167 24.6915C4.30595 25.2595 4.93711 26.08 5.82074 26.3325C6.89371 26.6481 8.21916 26.08 8.85033 25.1964C9.5446 24.2496 9.35524 23.1136 9.29213 22.1037C9.16589 20.7783 9.03968 19.3897 8.91344 18.0643C8.78721 16.6126 8.59786 15.1609 8.47162 13.6461C8.40851 12.7625 8.15604 11.942 8.34538 11.0584C8.34538 10.9953 8.40851 10.869 8.47162 10.869C8.66097 10.7428 8.85033 10.9953 8.91344 11.1846C10.1127 14.0248 10.7438 17.1175 10.87 20.1471C10.87 20.3364 10.9332 20.3996 11.0594 20.5258C11.375 20.8414 12.1955 20.7782 12.1955 20.2733C12.1324 17.8749 12.0061 15.4765 12.1324 13.0781C12.1955 11.8789 12.3217 11.6264 12.5111 10.3641C12.6373 9.73293 12.6373 8.40749 13.3316 7.83944C13.4578 8.21814 13.3947 8.72307 13.4578 9.03865C13.5209 9.6067 13.5209 10.1747 13.584 10.7428C13.6472 11.8789 13.7103 12.0051 13.8365 13.1412C13.9627 15.4134 14.1521 17.6856 14.2783 19.9577C14.2783 20.1471 14.4677 20.3364 14.657 20.3996C14.9095 20.652 15.4775 20.7783 15.73 20.3996C16.7398 19.011 16.6767 17.2437 16.8661 15.729L17.2448 13.1412C17.3079 12.6994 17.371 11.3108 17.4341 10.869C17.4972 10.4903 17.4972 9.85916 17.7497 9.54358C17.8128 9.41735 17.8128 9.41735 17.7497 9.54358C17.8128 9.66981 17.8128 9.79604 17.8128 9.92228C17.8128 10.1116 17.8128 10.3641 17.8128 10.5534C17.8128 11.0584 17.8128 12.51 17.8759 13.015C17.8759 13.8986 17.8759 14.8453 17.939 15.729C17.939 17.6224 17.939 19.4528 17.8759 21.3463C17.8759 21.5357 17.9391 21.6619 18.0653 21.725C18.3178 22.0406 19.0751 22.1037 19.2014 21.5988C19.7694 19.8315 20.4006 18.0643 20.9686 16.297C21.0317 16.0445 21.0949 15.6027 21.3473 15.3503C21.7891 14.9716 21.9785 15.8552 21.9785 16.1077C22.0416 16.9282 21.7891 17.8118 21.6629 18.6323C21.5367 19.3897 21.3473 20.084 21.158 20.7783C20.9686 21.2201 20.8424 21.6619 20.7793 22.1037C20.7793 22.1668 20.7793 22.1668 20.7793 22.2299C20.653 22.798 20.4637 23.366 20.3375 23.9972C19.8956 25.6382 19.7694 27.2792 19.7063 28.9833C19.5169 36.3048 19.7063 44.2575 20.1481 48.5494C20.4637 51.3896 21.0317 54.2298 21.5998 58.3324C21.6629 58.9635 22.9252 58.9635 22.8621 58.3324C21.8522 50.2535 21.2211 47.287 21.0317 39.2082C20.9055 35.295 20.7793 31.2555 21.0317 27.3423C21.0949 26.4587 21.2842 25.512 21.4736 24.6283C22.6096 26.5218 24.8187 28.0997 25.7023 30.0563C27.0909 33.2121 26.3335 37.1253 26.4597 40.4705C26.586 43.3107 26.7122 46.1509 26.8384 48.9912C26.9647 51.5158 27.2802 54.9241 27.3433 56.8807C27.4696 57.5118 28.6688 57.5118 28.6057 56.8807C28.1639 50.6322 27.8483 47.9182 27.5958 42.4902C27.4696 39.4606 27.9114 36.4311 27.722 33.4015C27.6589 32.0129 27.4065 30.6875 26.7122 29.4252C26.0179 28.0366 24.8818 26.9636 23.8088 25.7644C22.9252 24.7546 22.0416 23.6185 22.0416 22.4193C22.1047 22.1668 22.1678 21.9775 22.2309 21.725C22.2941 21.5356 22.3572 21.2832 22.4203 21.0938C23.1146 20.0209 24.8818 19.3266 26.081 20.3996C26.5228 20.8414 27.4696 20.2733 27.0909 19.7684C25.7023 18.2536 26.3335 16.1077 28.6057 15.4134C30.7516 14.7822 33.0869 15.7921 33.655 17.4962C33.8443 18.1274 33.7181 19.011 34.7911 19.1372C35.864 19.2635 36.2427 18.1274 37.1895 18.1905C38.3887 18.2536 38.8305 19.7053 39.0198 20.4627C39.2723 21.3463 39.2092 22.3562 38.9567 23.2398C38.7043 24.1234 38.2625 24.9439 37.6313 25.6382C36.937 26.4587 35.9272 27.0899 35.4222 27.9735C34.3493 29.6776 34.4755 31.7605 34.4124 33.5908C34.223 37.6934 34.5386 42.1115 34.7911 46.2141C35.0435 50.001 35.6116 53.2831 36.3058 56.9438C36.4321 57.575 37.6313 57.3225 37.5051 56.6913C35.8009 46.9083 35.1698 42.1115 35.7378 32.2654C35.8009 31.0031 35.8009 29.9301 36.1796 28.9202Z" fill="#23443C"/>
<path d="M24.8804 24.3126C26.6476 25.8905 28.9198 22.9241 27.2788 21.6618C24.9435 19.7052 22.1664 23.0503 24.8804 24.3126ZM26.3952 23.5553C26.3321 23.6184 26.2058 23.7446 26.1427 23.7446C25.4484 23.6184 24.8804 22.9872 25.0697 22.4192C25.0697 22.356 25.1329 22.356 25.1329 22.2929C26.0165 21.5355 27.0895 22.9241 26.3952 23.5553Z" fill="#23443C"/>
<path d="M31.4453 16.8025C29.2363 15.8557 27.4059 18.5697 29.615 19.4533C31.824 20.4632 33.6544 17.6861 31.4453 16.8025ZM29.8674 18.1279V18.0648C29.8674 18.0648 29.8674 18.0648 29.8674 18.1279C29.8674 18.0648 29.8674 18.0648 29.8674 18.0648C29.8674 18.0017 29.8674 18.0017 29.9306 17.9386C29.9937 17.8123 30.183 17.6861 30.3724 17.623C30.3724 17.623 30.3724 17.623 30.3093 17.623H30.4355C30.6248 17.623 30.8142 17.6861 30.9404 17.7492L31.0035 17.8123L31.0666 17.8754L31.1298 17.9386C31.1298 17.9386 31.1298 18.0017 31.1929 18.0017C31.256 18.1279 31.256 18.2541 31.1929 18.3804C31.1929 18.3804 31.1298 18.4435 31.1929 18.4435C31.0667 18.6328 30.8142 18.7591 30.4986 18.696C30.3093 18.696 30.1199 18.6328 30.0568 18.5066C29.9937 18.4435 29.9306 18.3804 29.9306 18.3173C29.8674 18.2541 29.8674 18.191 29.8674 18.1279C29.8674 18.191 29.8674 18.191 29.8674 18.2541C29.8674 18.191 29.8674 18.1279 29.8674 18.1279Z" fill="#23443C"/>
<path d="M36.6849 20.147C35.4225 19.2634 33.7184 21.0938 34.7914 22.293C36.4955 24.1864 39.2095 21.4724 36.6849 20.147ZM35.675 20.9044C35.7381 20.9044 35.8012 20.9044 35.8012 20.9044H35.8643C36.1168 20.9675 36.3693 21.1569 36.5586 21.3462C36.5586 21.3462 36.4955 21.2831 36.5586 21.3462C36.6848 21.4725 36.8111 21.6618 36.748 21.788C36.1799 22.1667 34.7914 21.4093 35.675 20.9044Z" fill="#23443C"/>
<path d="M34.3482 25.5126C33.2121 22.8617 28.4784 24.629 29.867 27.0905C30.3719 27.9741 31.508 28.4159 32.581 28.1003C33.5908 27.7848 34.8532 26.7749 34.3482 25.5126ZM32.4547 27.0274C30.6244 27.6585 30.435 25.3232 31.8867 25.197C32.5179 25.0708 33.149 25.4495 33.149 26.0175C33.149 26.0806 33.149 26.1437 33.149 26.1437C33.2121 26.5224 32.8966 26.9011 32.4547 27.0274Z" fill="#23443C"/>
<path d="M62.7511 19.3269C61.3626 17.3703 57.8912 20.8417 56.8182 21.5991C56.6289 21.7254 56.3764 21.9147 56.124 22.0409C55.619 22.2303 55.5559 21.8516 55.4928 21.4729C55.3666 20.7786 55.4297 20.0843 55.4297 19.3901C55.4297 17.8753 55.4928 16.4236 55.619 14.9088C55.6821 14.0883 55.8084 13.2047 55.8715 12.3842C55.9346 11.6268 56.124 10.8694 56.124 10.112C56.124 9.10213 55.1141 7.8398 53.8518 8.34473C53.2206 8.59719 53.0944 9.16524 52.9681 9.67017C52.7788 10.4907 52.6526 11.3743 52.4632 12.1948C52.2739 13.2047 52.0845 14.1514 51.8952 15.1613C51.832 13.7727 51.7689 12.3842 51.7058 10.9956C51.6427 9.92263 51.3271 5.06269 49.4337 4.99957C47.7926 4.99957 48.2344 9.29147 48.0451 10.4907C47.9189 9.60705 47.7295 8.72343 47.3508 7.90292C47.0352 7.27176 46.5934 6.51436 45.7098 6.57748C44.763 6.64059 44.3843 7.46111 44.3212 8.2185C44.2581 9.29147 44.2581 10.3644 44.195 11.3743C44.195 11.8161 44.195 12.1948 44.1319 12.6366C44.0057 12.321 43.8794 12.0686 43.6901 11.8161C42.8696 10.7431 41.1023 11.3743 41.1023 12.6997C41.1023 13.1416 41.1023 13.5834 41.1654 13.9621C41.2285 14.9719 41.4179 15.9818 41.481 16.9916C41.6704 18.9482 41.7966 20.9048 41.7966 22.9246C41.7966 31.1297 41.3548 38.2618 40.0925 46.2775C39.6506 48.9915 39.1457 51.5793 38.5146 56.2499C38.4514 56.881 39.4613 57.0704 39.5875 56.4392C40.5974 48.8653 41.481 46.2775 42.4277 38.6405C43.3114 31.5084 43.3114 24.25 42.6171 16.9916C42.4909 15.4769 41.9859 13.7727 42.3015 12.321C42.3015 12.1948 42.3646 12.0686 42.4909 12.0055C42.6802 11.9424 42.8695 12.1317 42.9327 12.2579C43.8163 13.7096 43.8794 14.7195 44.1319 17.181C44.1319 17.4966 44.1319 17.8122 44.1319 18.1277C44.1319 18.6327 45.1418 18.7589 45.2049 18.1908C45.2049 18.1277 45.2049 18.1277 45.2049 18.0646C45.268 16.2974 45.3311 14.5301 45.3311 12.7629C45.3311 11.8792 45.3942 10.9325 45.3942 10.0489L45.4573 8.84966C45.4573 8.53408 45.3311 7.52422 45.836 7.39799C47.2877 7.08241 47.5402 16.0449 47.6033 16.9285C47.6664 17.5597 48.6763 17.4966 48.6763 16.8654C48.6763 15.1613 48.8025 13.4571 49.0549 11.8161C49.1181 11.3112 48.8656 5.5045 49.6861 5.75697C50.2541 5.94632 50.7591 9.4177 50.7591 9.73328C50.8222 10.5538 50.8222 11.3743 50.8853 12.1948C50.9484 13.8358 51.0746 15.54 51.1378 17.181C51.1378 17.3072 51.1378 17.4335 51.2009 17.4966C51.264 17.6859 51.5165 17.8122 51.7058 17.749C51.8952 17.749 52.0845 17.6228 52.2739 17.5597C52.4001 17.4966 52.5263 17.4335 52.5895 17.3072C52.6526 17.181 52.7157 17.0548 52.7157 16.8654C52.9681 15.6031 53.2206 14.2776 53.4731 13.0153C53.5993 12.321 53.7256 11.6268 53.8518 10.9325C53.9149 10.6169 53.978 10.3013 54.0411 9.98575C54.1042 9.67017 54.1042 9.10213 54.4198 8.91278C55.1772 8.47096 55.2403 9.85952 55.1772 10.2382C55.1141 10.9325 54.9878 11.6899 54.9247 12.3842C54.6723 14.3408 54.483 16.3605 54.483 18.3171C54.483 19.7056 54.1673 22.4196 55.8715 22.6721C56.9444 22.7983 58.0174 21.7254 58.7748 21.1573C59.2167 20.7786 59.6585 20.463 60.1634 20.1474C60.479 19.9581 61.4888 19.2007 61.9306 19.4532C62.2462 19.6425 61.9938 20.3368 61.9306 20.5261C60.2265 24.3762 55.8084 26.0172 53.4731 29.4255C52.1476 31.319 51.3902 33.5912 50.8222 35.8003C50.191 38.3249 49.6861 40.9127 49.3074 43.4373C48.1082 51.4531 48.2344 51.5162 47.2877 58.3958C47.2246 59.027 48.2344 59.2163 48.3607 58.5852C49.1812 52.526 49.1181 52.3998 50.0017 46.4038C50.4435 43.3742 50.8853 40.3446 51.5796 37.315C52.2107 34.601 52.9682 31.7608 54.6723 29.5518C56.1871 27.532 58.3961 26.0172 60.2896 24.25C61.1732 23.4295 61.9937 22.5459 62.6249 21.536C62.8774 21.1573 63.2561 20.1475 62.7511 19.3269Z" fill="#23443C"/>
</svg>
