<svg width="64" height="64" viewBox="0 0 64 64" fill="none" xmlns="http://www.w3.org/2000/svg">
<path d="M21.9031 14.298C20.1715 13.1436 17.5328 12.8962 15.8012 14.298C14.8117 15.1226 14.3994 16.3595 14.3994 17.5964C14.3994 18.6683 14.4819 20.5649 15.5538 21.2246C15.8012 21.3895 16.296 21.3895 16.5433 21.2246C16.9556 20.9772 17.1206 20.7298 17.1206 20.3175C17.1206 19.9877 16.9556 19.7403 16.7083 19.5754C16.3784 18.5859 16.2135 17.2665 16.7083 16.3595C17.203 15.2875 18.5223 15.0402 19.6768 15.37C22.3979 16.1121 22.8927 19.2455 22.8927 21.4719C22.8927 22.7913 22.7277 24.1106 22.0681 25.265C21.4084 26.337 20.1715 26.9967 19.3469 27.9037C17.6153 29.8003 17.8627 32.6863 20.3364 33.9232C21.4909 34.5004 22.4804 32.8512 21.3259 32.274C20.3364 31.7793 19.8417 30.6248 20.4189 29.6353C20.9961 28.6458 22.233 27.9862 23.0576 27.1616C24.7892 25.3475 25.119 22.7913 24.8717 20.4C24.6243 18.1736 23.9646 15.6998 21.9031 14.298Z" fill="#23443C"/>
<path d="M23.4703 40.2725C23.4703 40.19 23.3878 40.19 23.3878 40.1076C23.3878 40.0251 23.3054 40.0251 23.3054 39.9426C23.3054 39.9426 23.3054 39.9426 23.3054 39.8602C23.2229 39.7777 23.2229 39.7777 23.1404 39.6953C23.1404 39.6128 23.058 39.5303 22.9755 39.4479C22.8931 39.3654 22.8106 39.283 22.6457 39.283C22.5632 39.2005 22.3983 39.2005 22.2334 39.2005C22.1509 39.2005 22.0685 39.2005 22.0685 39.2005C21.986 39.2005 21.9036 39.2005 21.7386 39.2005C21.6562 39.2005 21.5737 39.283 21.4913 39.283C21.4088 39.3654 21.3264 39.3654 21.2439 39.4479C21.1614 39.5303 21.1614 39.6128 21.079 39.6128C21.079 39.6953 20.9965 39.6952 20.9965 39.7777C20.9965 39.8602 20.9141 39.9426 20.9141 39.9426C20.9141 40.0251 20.9141 40.1075 20.9141 40.2725C20.9141 40.2725 20.9141 40.2725 20.9141 40.3549C20.9141 40.4374 20.9141 40.5198 20.9141 40.6848C20.9141 40.6848 20.9141 40.6848 20.9141 40.7672C20.9141 40.8497 20.9965 41.0146 21.079 41.0971C21.079 41.0971 21.079 41.1795 21.1614 41.1795C21.2439 41.262 21.3264 41.3444 21.3264 41.4269C21.4088 41.5093 21.4913 41.5093 21.5737 41.5918C21.5737 41.5918 21.5737 41.5918 21.6562 41.5918C21.7386 41.5918 21.8211 41.6743 21.9036 41.6743C21.986 41.6743 22.0685 41.6743 22.1509 41.6743C22.1509 41.6743 22.1509 41.6743 22.2334 41.6743C22.3159 41.6743 22.3983 41.6743 22.5632 41.6743C22.7282 41.6743 22.8106 41.5918 22.8931 41.5093C22.8931 41.5093 22.8931 41.5093 22.9755 41.4269C23.058 41.4269 23.1404 41.3444 23.2229 41.262C23.3054 41.1795 23.3878 41.097 23.3878 41.0146C23.3878 40.9321 23.4703 40.8497 23.4703 40.7672C23.4703 40.7672 23.4703 40.7672 23.4703 40.6848C23.4703 40.6023 23.4703 40.5198 23.4703 40.4374C23.5527 40.5198 23.4703 40.4374 23.4703 40.2725C23.4703 40.3549 23.4703 40.2725 23.4703 40.2725Z" fill="#23443C"/>
<path d="M37.1577 11.4945C35.0137 10.6699 32.4575 11.0822 31.0557 12.8963C29.489 14.8753 29.7364 17.7613 31.7154 19.4105C32.7049 20.2351 34.1067 18.9157 33.1172 18.0911C31.3856 16.6069 31.7978 13.4735 34.3541 12.9787C35.5085 12.8138 36.8278 13.1436 37.57 14.0507C38.5595 15.1226 38.477 16.9367 38.3945 18.2561C38.2296 21.0597 36.9927 23.9457 34.9313 26.0072C33.9418 27.0791 32.7874 27.9862 32.4575 29.388C32.1277 30.8722 32.6224 32.4389 33.1996 33.8407C33.6119 34.8302 35.1787 34.6653 35.1787 33.5934C35.1787 33.346 35.1787 33.1811 35.1787 32.9337C35.1787 32.5214 35.0137 32.274 34.6839 32.1091C34.2716 30.8722 34.1067 29.6353 35.0137 28.5634C35.9208 27.409 37.0752 26.5019 37.8998 25.3475C39.4665 23.0387 40.3735 20.3175 40.3735 17.6789C40.456 15.1226 39.8788 12.5664 37.1577 11.4945Z" fill="#23443C"/>
<path d="M35.6748 37.9636C35.6748 37.8812 35.5923 37.7987 35.5098 37.7163C35.5098 37.7163 35.5098 37.6338 35.4274 37.6338L35.3449 37.5514C35.3449 37.5514 35.3449 37.5514 35.3449 37.4689C35.3449 37.2215 35.2625 36.9741 35.0151 36.8092C34.8502 36.6443 34.6028 36.4794 34.273 36.5618C34.1905 36.5618 34.0256 36.5619 33.9431 36.6443C33.8607 36.6443 33.6958 36.7268 33.6133 36.8092C33.4484 36.8917 33.3659 36.9741 33.201 37.0566C33.1185 37.1391 33.1185 37.1391 33.0361 37.2215C32.9536 37.304 32.9536 37.304 32.8712 37.3864C32.7887 37.4689 32.7887 37.4689 32.7063 37.5514C32.6238 37.6338 32.5413 37.7987 32.5413 37.8812C32.4589 38.1286 32.4589 38.2935 32.5413 38.5409C32.5413 38.7058 32.6238 38.7882 32.7063 38.8707C32.7887 38.9532 32.8712 39.1181 32.9536 39.2005C33.0361 39.283 33.201 39.3654 33.2835 39.4479C33.3659 39.4479 33.3659 39.5304 33.4484 39.5304C33.6133 39.6128 33.6958 39.6128 33.8607 39.6953C33.9431 39.6953 34.108 39.6953 34.1905 39.6953C34.273 39.6953 34.4379 39.6953 34.5203 39.6128C34.6028 39.6128 34.7677 39.5304 34.8502 39.5304H34.9326C35.0151 39.4479 35.0976 39.4479 35.18 39.3654L35.2625 39.283C35.3449 39.2005 35.3449 39.1181 35.3449 39.1181C35.4274 39.0356 35.4274 38.9531 35.5098 38.7882C35.7572 38.4584 35.7572 38.2935 35.6748 37.9636Z" fill="#23443C"/>
<path d="M48.4556 22.5435C46.2292 22.8733 45.9818 25.0997 46.2292 26.8313C46.3117 27.3261 46.6415 27.7384 47.2187 27.7384C47.7135 27.7384 48.2907 27.3261 48.2082 26.8313C48.1258 26.0067 47.8784 23.8628 49.4451 24.5225C50.8469 25.0997 50.9294 27.491 50.682 28.7279C50.3522 30.2946 48.7854 31.2841 47.7135 32.356C46.4766 33.5105 45.4046 35.0772 45.652 36.7263C45.7345 37.2211 46.0643 37.6334 46.6415 37.6334C47.1363 37.6334 47.7135 37.2211 47.631 36.7263C47.3012 34.5824 49.61 33.2631 51.0118 31.9437C51.7539 31.2016 52.4136 30.2946 52.661 29.2226C52.9084 28.1507 52.8259 27.0787 52.5785 26.0067C52.2487 24.1102 50.7644 22.2136 48.4556 22.5435Z" fill="#23443C"/>
<path d="M47.3012 40.7667C47.2188 40.5194 47.0538 40.3544 46.8065 40.1895C46.724 40.1895 46.6415 40.1071 46.5591 40.1071C46.3942 40.0246 46.2293 40.0246 45.9819 40.1071C45.8994 40.1895 45.7345 40.1895 45.652 40.272C45.5696 40.3544 45.4871 40.4369 45.3222 40.5194C45.2397 40.6018 45.0748 40.7667 44.9924 40.8492C44.9924 40.8492 44.9924 40.9317 44.9099 40.9317C44.745 41.0141 44.6625 41.179 44.5801 41.2615C44.4152 41.5913 44.3327 41.9212 44.4152 42.251C44.4976 42.4159 44.5801 42.6633 44.745 42.7457C44.9099 42.9107 45.0748 42.9931 45.2397 42.9931H45.3222C45.4047 43.0756 45.4871 43.158 45.5696 43.158C45.652 43.158 45.7345 43.2405 45.817 43.2405C45.9819 43.2405 46.0643 43.323 46.2292 43.2405C46.3117 43.2405 46.3942 43.2405 46.4766 43.158C46.6415 43.158 46.724 43.0756 46.8065 42.9931C46.8889 42.9107 46.9714 42.7457 47.0538 42.6633C47.1363 42.5808 47.1363 42.4984 47.2188 42.3335C47.2188 42.251 47.3012 42.0861 47.3012 42.0036C47.3012 41.7562 47.2188 41.4264 47.1363 41.179C47.3837 41.179 47.3837 40.9317 47.3012 40.7667Z" fill="#23443C"/>
<path d="M54.4747 10.5869C49.857 6.79385 45.0744 4.8973 39.2199 3.24813C35.9215 2.34108 31.4688 1.76387 28.0879 2.0937C24.7896 2.34108 21.7386 3.24812 18.7701 4.56746C13.2454 6.8763 7.8856 10.3396 4.83463 15.2046C1.86612 19.9048 1.37137 25.5944 2.6907 30.7893C4.0925 36.0666 7.4733 40.6019 12.091 43.9827C17.2034 47.6933 23.3878 49.6723 29.8196 50.332C33.4478 50.6618 37.3233 50.7443 40.7041 52.1461C44.2498 53.6303 46.806 56.5164 48.3728 59.7323C48.5377 60.0621 48.7851 60.227 49.1149 60.227C49.2798 60.6393 49.5272 61.0516 49.7746 61.5464C50.4342 62.6183 52.1659 61.6288 51.5062 60.5569C47.9605 54.7847 54.2273 48.8477 57.1134 44.1476C60.3293 38.7878 62.2258 32.6034 61.9784 26.419C61.8135 20.482 59.1748 14.4625 54.4747 10.5869ZM54.2273 44.8897C51.9185 48.1881 48.95 52.0636 48.5377 56.0216C47.4657 54.4549 46.0639 53.1356 44.4972 51.9812C42.1884 50.332 39.3848 49.4249 36.5812 49.0126C33.6127 48.6004 30.5617 48.5179 27.5932 48.1056C24.7896 47.6933 22.0685 46.9512 19.4298 45.8792C14.3174 43.7353 9.78214 40.3545 6.97855 35.8193C4.0925 31.2016 3.103 25.4295 4.66971 20.3171C6.23642 14.9572 10.5243 11.0817 15.5542 8.2781C21.4088 5.06221 28.8301 3.16567 35.5917 4.40255C41.5287 5.47451 46.4762 7.2886 51.2588 10.6694C56.2063 14.1327 59.5047 19.8223 59.917 25.6769C60.4117 32.2736 58.1029 39.2001 54.2273 44.8897Z" fill="#23443C"/>
</svg>
