<svg width="41" height="40" viewBox="0 0 41 40" fill="none" xmlns="http://www.w3.org/2000/svg">
<circle cx="20.5" cy="20" r="20" fill="url(#paint0_linear)"/>
<path fill-rule="evenodd" clip-rule="evenodd" d="M16.75 13.25C15.0931 13.25 13.75 14.5931 13.75 16.25V23.75C13.75 25.4069 15.0931 26.75 16.75 26.75H24.25C25.9069 26.75 27.25 25.4069 27.25 23.75V16.25C27.25 14.5931 25.9069 13.25 24.25 13.25H16.75ZM12.25 16.25C12.25 13.7647 14.2647 11.75 16.75 11.75H24.25C26.7353 11.75 28.75 13.7647 28.75 16.25V23.75C28.75 26.2353 26.7353 28.25 24.25 28.25H16.75C14.2647 28.25 12.25 26.2353 12.25 23.75V16.25ZM20.8625 17.7419C20.3944 17.6725 19.9162 17.7524 19.4962 17.9704C19.0761 18.1884 18.7354 18.5332 18.5227 18.956C18.3099 19.3787 18.2358 19.8578 18.311 20.325C18.3862 20.7923 18.6068 21.2239 18.9415 21.5585C19.2761 21.8932 19.7077 22.1138 20.175 22.189C20.6422 22.2642 21.1213 22.1901 21.544 21.9773C21.9668 21.7646 22.3116 21.4239 22.5296 21.0038C22.7476 20.5838 22.8275 20.1056 22.7581 19.6375C22.6873 19.16 22.4648 18.7179 22.1234 18.3766C21.7821 18.0352 21.34 17.8127 20.8625 17.7419ZM18.8053 16.639C19.5054 16.2757 20.3023 16.1424 21.0825 16.2581C21.8784 16.3761 22.6152 16.747 23.1841 17.3159C23.753 17.8848 24.1239 18.6216 24.2419 19.4175C24.3576 20.1977 24.2243 20.9946 23.861 21.6947C23.4978 22.3948 22.923 22.9626 22.2184 23.3172C21.5139 23.6718 20.7154 23.7952 19.9367 23.6699C19.1579 23.5446 18.4385 23.1769 17.8808 22.6192C17.3231 22.0615 16.9554 21.3421 16.8301 20.5633C16.7048 19.7846 16.8282 18.9861 17.1828 18.2816C17.5374 17.577 18.1052 17.0022 18.8053 16.639ZM24.625 15.125C24.2108 15.125 23.875 15.4608 23.875 15.875C23.875 16.2892 24.2108 16.625 24.625 16.625H24.6325C25.0467 16.625 25.3825 16.2892 25.3825 15.875C25.3825 15.4608 25.0467 15.125 24.6325 15.125H24.625Z" fill="white"/>
<defs>
<linearGradient id="paint0_linear" x1="9" y1="48.5" x2="51.5" y2="4.5" gradientUnits="userSpaceOnUse">
<stop stop-color="#E79F55"/>
<stop offset="0.302083" stop-color="#DB584C"/>
<stop offset="0.619792" stop-color="#963787"/>
<stop offset="0.953125" stop-color="#622FC0"/>
</linearGradient>
</defs>
</svg>
