<svg width="41" height="40" viewBox="0 0 41 40" fill="none" xmlns="http://www.w3.org/2000/svg">
<circle cx="20.5" cy="20" r="20" fill="#5FB3EC"/>
<g clip-path="url(#clip0)">
<path d="M24.9905 28.0503C24.8499 28.0503 24.7103 28.0087 24.5905 27.9274L20.0646 24.8574L17.6371 26.6041C17.4467 26.741 17.2013 26.7755 16.9803 26.6964C16.7595 26.6172 16.5918 26.4343 16.532 26.2075L15.3131 21.5884L10.958 19.9232C10.6838 19.8183 10.502 19.556 10.5 19.2624C10.498 18.9689 10.6762 18.7041 10.9491 18.5955L27.5088 12.0063C27.5839 11.9744 27.6634 11.956 27.7436 11.951C27.7723 11.9493 27.8011 11.9493 27.8297 11.9509C27.9958 11.9608 28.1589 12.0285 28.2862 12.1533C28.2994 12.1662 28.3119 12.1794 28.3238 12.1932C28.4292 12.3136 28.4872 12.4605 28.4981 12.6101C28.5008 12.6478 28.5006 12.6859 28.4973 12.724C28.495 12.7511 28.4911 12.7782 28.4856 12.8051L25.6904 27.4711C25.6454 27.7067 25.4851 27.904 25.2635 27.9958C25.1757 28.0323 25.0829 28.0503 24.9905 28.0503ZM20.4619 23.405L24.4935 26.1396L26.6684 14.7278L18.8131 22.2866L20.4429 23.3922C20.4495 23.3963 20.4558 23.4007 20.4619 23.405ZM17.1059 22.7969L17.6457 24.8423L18.8087 24.0054L17.2858 22.9724C17.215 22.9245 17.1544 22.8649 17.1059 22.7969ZM13.1729 19.2443L16.1634 20.3876C16.3776 20.4695 16.5393 20.6496 16.5978 20.8714L16.977 22.3086C16.9944 22.1429 17.0696 21.9869 17.1917 21.8694L24.6766 14.667L13.1729 19.2443Z" fill="white"/>
</g>
<defs>
<clipPath id="clip0">
<rect width="18" height="18" fill="white" transform="translate(10.5 11)"/>
</clipPath>
</defs>
</svg>
