<svg width="41" height="40" viewBox="0 0 41 40" fill="none" xmlns="http://www.w3.org/2000/svg">
<circle cx="20.5" cy="20" r="20" fill="#D64133"/>
<g clip-path="url(#clip0)">
<path fill-rule="evenodd" clip-rule="evenodd" d="M20.4438 14.7501L20.5004 14.75L20.5572 14.7501L20.7215 14.7506C20.8639 14.7512 21.0691 14.7524 21.3195 14.7549C21.8206 14.7598 22.5013 14.7696 23.2213 14.7891C23.9424 14.8087 24.6974 14.8379 25.3486 14.8812C26.0074 14.9251 26.5041 14.9804 26.7591 15.0404C26.9801 15.1053 27.1806 15.2263 27.3411 15.3917C27.4994 15.555 27.6134 15.7559 27.6722 15.9753C27.8986 17.2401 28.0085 18.5229 28.0004 19.8078L28.0004 19.8152C28.005 21.0807 27.8951 22.344 27.6722 23.5897C27.6134 23.8091 27.4994 24.01 27.3411 24.1733C27.1787 24.3406 26.9754 24.4625 26.7514 24.5269C26.5048 24.5918 26.0099 24.6529 25.3438 24.7014C24.694 24.7488 23.9401 24.7808 23.2194 24.8022C22.4999 24.8236 21.8196 24.8343 21.3188 24.8397C21.0686 24.8423 20.8635 24.8437 20.7211 24.8443L20.557 24.8449H20.4438L20.2797 24.8443C20.1374 24.8437 19.9323 24.8423 19.682 24.8397C19.1812 24.8343 18.5009 24.8236 17.7815 24.8022C17.0608 24.7808 16.3069 24.7488 15.657 24.7014C14.9881 24.6526 14.4918 24.5913 14.2463 24.526C14.0256 24.4653 13.8243 24.3488 13.6616 24.1878C13.5063 24.0341 13.3913 23.8448 13.3263 23.6365C13.1015 22.3761 12.9924 21.0976 13.0005 19.8172L13.0004 19.8088C12.9941 18.5336 13.104 17.2605 13.3286 16.0053C13.3875 15.7859 13.5014 15.585 13.6598 15.4217C13.8221 15.2544 14.0254 15.1325 14.2494 15.0681C14.496 15.0032 14.9909 14.9421 15.657 14.8936C16.3069 14.8462 17.0608 14.8142 17.7815 14.7928C18.5009 14.7714 19.1812 14.7607 19.682 14.7553C19.9323 14.7527 20.1374 14.7513 20.2797 14.7507L20.4438 14.7501ZM20.5602 13.2501L20.5003 13.25L20.4405 13.2501L20.2727 13.2507C20.1278 13.2514 19.9196 13.2527 19.666 13.2554C19.159 13.2609 18.4687 13.2717 17.7369 13.2935C17.0063 13.3152 16.2284 13.3479 15.5479 13.3975C14.8884 13.4456 14.2569 13.5134 13.8567 13.6205L13.8463 13.6233C13.3662 13.7591 12.9305 14.0192 12.5831 14.3774C12.2357 14.7355 11.989 15.1789 11.8679 15.6629C11.8638 15.6791 11.8603 15.6954 11.8573 15.7119C11.6134 17.0648 11.4939 18.4373 11.5004 19.812C11.492 21.1971 11.6115 22.58 11.8573 23.9431C11.8617 23.9675 11.8673 23.9916 11.8741 24.0154C12.0077 24.4844 12.2599 24.9109 12.6065 25.2539C12.953 25.5969 13.3822 25.8447 13.8525 25.9734L13.8567 25.9745C14.2569 26.0816 14.8884 26.1494 15.5479 26.1975C16.2284 26.2471 17.0063 26.2798 17.7369 26.3015C18.4687 26.3233 19.159 26.3341 19.666 26.3396C19.9196 26.3423 20.1278 26.3436 20.2727 26.3443L20.4405 26.3449L20.5008 26.345L20.5604 26.3449L20.7282 26.3443C20.8731 26.3436 21.0812 26.3423 21.3349 26.3396C21.8418 26.3341 22.5322 26.3233 23.264 26.3015C23.9946 26.2798 24.7725 26.2471 25.453 26.1975C26.1124 26.1494 26.744 26.0816 27.1442 25.9745L27.1546 25.9717C27.6347 25.8359 28.0704 25.5758 28.4178 25.2176C28.7651 24.8595 29.0118 24.4161 29.133 23.9321C29.137 23.9159 29.1406 23.8995 29.1435 23.8831C29.3857 22.5402 29.5051 21.178 29.5004 19.8135C29.5089 18.4282 29.3894 17.0452 29.1435 15.6819L28.4054 15.815L29.133 15.6329C29.0118 15.1489 28.7651 14.7055 28.4178 14.3474C28.0704 13.9892 27.6347 13.7291 27.1546 13.5933C27.1459 13.5909 27.1371 13.5886 27.1283 13.5864C26.734 13.4901 26.108 13.4285 25.4482 13.3845C24.7691 13.3393 23.9922 13.3095 23.262 13.2897C22.5308 13.2698 21.8409 13.2599 21.3342 13.255C21.0807 13.2525 20.8727 13.2512 20.7279 13.2506L20.5602 13.2501ZM19.1837 16.708C18.9515 16.576 18.6667 16.5774 18.4358 16.7117C18.205 16.846 18.0629 17.0929 18.0629 17.36V22.265C18.0629 22.5321 18.205 22.779 18.4358 22.9133C18.6667 23.0476 18.9515 23.049 19.1837 22.9169L23.4962 20.4644C23.7306 20.3311 23.8754 20.0822 23.8754 19.8125C23.8754 19.5428 23.7306 19.2939 23.4962 19.1605L19.1837 16.708ZM21.6083 19.8125L19.5629 20.9757V18.6493L21.6083 19.8125Z" fill="white"/>
</g>
<defs>
<clipPath id="clip0">
<rect width="18" height="18" fill="white" transform="translate(11.5 11)"/>
</clipPath>
</defs>
</svg>
